<svg width="140" height="154" viewBox="0 0 140 154" fill="none" xmlns="http://www.w3.org/2000/svg">
<rect width="140" height="154" rx="16" fill="#0F69C4" fill-opacity="0.1"/>
<mask id="mask0_3803_5032" style="mask-type:alpha" maskUnits="userSpaceOnUse" x="11" y="19" width="125" height="81">
<rect x="11" y="19" width="125" height="80.2083" rx="20" fill="#0F69B4" fill-opacity="0.16"/>
</mask>
<g mask="url(#mask0_3803_5032)">
<g opacity="0.18">
<path d="M115.642 70.2993C122.524 55.9723 114.721 35.3877 87.2279 36.7639C87.2279 36.7639 62.0915 36.0817 59.2221 53.3728C56.3527 70.6639 66.5822 86.073 96.0228 83.497C96.8742 83.4264 97.7141 83.3088 98.5189 83.1559C98.5189 83.1559 98.5889 83.1559 98.6239 83.1441C98.6705 83.1441 98.7172 83.1323 98.7639 83.1206C106.847 81.4267 112.539 84.8262 114.872 87.1434C117.228 89.4724 116.015 83.0265 114.872 78.2744C114.091 75.0043 114.382 73.4987 115.642 70.311V70.2993Z" fill="#0F69B4"/>
<path d="M29.3849 87.2493C29.3383 87.3081 29.3033 87.3787 29.2683 87.4375C29.105 87.7433 29 88.0844 29 88.4608C29 89.6253 29.5366 90.3664 30.6913 90.3664C31.0063 90.3664 31.2979 90.2958 31.5661 90.1664C39.9877 87.0023 46.8113 85.3202 50.3922 88.0962V88.0727C58.2773 94.9773 69.37 99.0707 82.9005 99.9882C83.0638 99.9882 83.2154 100 83.3787 100C86.843 100 89.7707 97.4475 90.0157 94.0951C90.2723 90.6016 87.5195 87.5551 83.8453 87.3081C71.3995 86.4729 62.2664 82.6383 56.6793 75.9336C49.984 67.8997 49.9956 57.7132 51.1737 50.5733C54.3931 31.1531 84.8484 31.7648 85.1517 31.7648H85.6882C91.0771 31.4942 96.0461 31.8589 100.479 32.8352C104.059 33.635 107.64 31.506 108.48 28.0948C109.32 24.6836 107.092 21.2607 103.511 20.4608C97.9357 19.2493 91.7886 18.7788 85.2333 19.0964C83.437 19.0729 74.2573 19.1317 64.541 22.037C49.3191 26.601 40.151 35.7876 38.0165 48.6207C36.7801 56.1017 37.1067 63.2417 38.8913 69.6641H38.8796C38.8796 69.6641 39.9294 74.275 34.7738 80.2622C32.7676 82.5913 31.2745 84.7321 29.6532 86.9081" fill="#0F69B4"/>
</g>
</g>
<circle cx="64" cy="48" r="35" fill="#0F69B4" fill-opacity="0.2"/>
<mask id="path-5-outside-1_3803_5032" maskUnits="userSpaceOnUse" x="60" y="29" width="44" height="43" fill="black">
<rect fill="white" x="60" y="29" width="44" height="43"/>
<path d="M61.1981 64.5459C61.1741 64.5757 61.1561 64.6114 61.1381 64.6412C61.054 64.796 61 64.9687 61 65.1592C61 65.7486 61.2762 66.1237 61.8705 66.1237C62.0326 66.1237 62.1827 66.088 62.3208 66.0225C66.6554 64.4209 70.1676 63.5695 72.0107 64.9746V64.9627C76.0692 68.4577 81.7786 70.5296 88.7428 70.994C88.8269 70.994 88.9049 71 88.989 71C90.7721 71 92.279 69.708 92.4051 68.0111C92.5372 66.2428 91.1203 64.7007 89.2291 64.5757C82.8233 64.153 78.1224 62.212 75.2467 58.8182C71.8006 54.7517 71.8066 49.5956 72.4129 45.9815C74.0699 36.1516 89.7455 36.4612 89.9016 36.4612H90.1777C92.9514 36.3242 95.509 36.5088 97.7903 37.003C99.6335 37.4079 101.477 36.3302 101.909 34.6035C102.341 32.8769 101.194 31.1443 99.3513 30.7394C96.4815 30.1262 93.3176 29.888 89.9436 30.0488C89.019 30.0369 84.2941 30.0666 79.2931 31.5373C71.4584 33.8474 66.7395 38.4974 65.6408 44.9932C65.0044 48.7799 65.1725 52.3939 66.0911 55.6448H66.0851C66.0851 55.6448 66.6254 57.9787 63.9718 61.0093C62.9392 62.1882 62.1707 63.2718 61.3362 64.3733"/>
</mask>
<path d="M61.1981 64.5459C61.1741 64.5757 61.1561 64.6114 61.1381 64.6412C61.054 64.796 61 64.9687 61 65.1592C61 65.7486 61.2762 66.1237 61.8705 66.1237C62.0326 66.1237 62.1827 66.088 62.3208 66.0225C66.6554 64.4209 70.1676 63.5695 72.0107 64.9746V64.9627C76.0692 68.4577 81.7786 70.5296 88.7428 70.994C88.8269 70.994 88.9049 71 88.989 71C90.7721 71 92.279 69.708 92.4051 68.0111C92.5372 66.2428 91.1203 64.7007 89.2291 64.5757C82.8233 64.153 78.1224 62.212 75.2467 58.8182C71.8006 54.7517 71.8066 49.5956 72.4129 45.9815C74.0699 36.1516 89.7455 36.4612 89.9016 36.4612H90.1777C92.9514 36.3242 95.509 36.5088 97.7903 37.003C99.6335 37.4079 101.477 36.3302 101.909 34.6035C102.341 32.8769 101.194 31.1443 99.3513 30.7394C96.4815 30.1262 93.3176 29.888 89.9436 30.0488C89.019 30.0369 84.2941 30.0666 79.2931 31.5373C71.4584 33.8474 66.7395 38.4974 65.6408 44.9932C65.0044 48.7799 65.1725 52.3939 66.0911 55.6448H66.0851C66.0851 55.6448 66.6254 57.9787 63.9718 61.0093C62.9392 62.1882 62.1707 63.2718 61.3362 64.3733" fill="#F5F5F5"/>
<path d="M96.8358 62.968C96.9315 62.968 97.0158 62.9445 97.0281 62.9414L96.7875 61.9708C96.7809 61.9724 96.7784 61.973 96.7766 61.9734C96.7751 61.9738 96.7768 61.9734 96.7804 61.9727C96.787 61.9715 96.8073 61.968 96.8358 61.968V62.968ZM61.1381 64.6412L60.2825 64.1235L60.2704 64.1435L60.2593 64.164L61.1381 64.6412ZM62.3208 66.0225L61.9742 65.0845L61.9325 65.0999L61.8923 65.119L62.3208 66.0225ZM72.0107 64.9746L71.4044 65.7699L73.0107 66.9944V64.9746H72.0107ZM72.0107 64.9627L72.6632 64.2049L71.0107 62.7819V64.9627H72.0107ZM88.7428 70.994L88.6763 71.9918L88.7095 71.994H88.7428V70.994ZM92.4051 68.0111L91.4079 67.9366L91.4078 67.937L92.4051 68.0111ZM89.2291 64.5757L89.2951 63.5779L89.295 63.5779L89.2291 64.5757ZM75.2467 58.8182L76.0096 58.1718L76.0096 58.1717L75.2467 58.8182ZM72.4129 45.9815L71.4268 45.8153L71.4267 45.8161L72.4129 45.9815ZM90.1777 36.4612V37.4612H90.2024L90.227 37.46L90.1777 36.4612ZM97.7903 37.003L98.0049 36.0263L98.002 36.0257L97.7903 37.003ZM99.3513 30.7394L99.5658 29.7627L99.5603 29.7615L99.3513 30.7394ZM89.9436 30.0488L89.9307 31.0487L89.9609 31.0491L89.9912 31.0477L89.9436 30.0488ZM79.2931 31.5373L79.011 30.5779L79.0103 30.5781L79.2931 31.5373ZM65.6408 44.9932L64.6548 44.8264L64.6546 44.8274L65.6408 44.9932ZM66.0911 55.6448V56.6448H67.4128L67.0534 55.3729L66.0911 55.6448ZM66.0851 55.6448V54.6448H64.8271L65.1109 55.8703L66.0851 55.6448ZM63.9718 61.0093L64.724 61.6682L64.7242 61.6681L63.9718 61.0093ZM60.4198 63.9181C60.3644 63.9867 60.326 64.0494 60.3068 64.0817C60.297 64.0981 60.288 64.1139 60.2846 64.1198C60.2795 64.1286 60.2803 64.1271 60.2825 64.1235L61.9937 65.1588C61.9997 65.149 62.0048 65.1401 62.0089 65.1332C62.0128 65.1264 62.0164 65.1201 62.0188 65.1161C62.0215 65.1113 62.0228 65.1091 62.024 65.1069C62.0251 65.1051 62.0253 65.1048 62.0249 65.1054C62.0243 65.1064 62.0199 65.1139 62.0126 65.1248C62.0052 65.1359 61.9931 65.1531 61.9764 65.1738L60.4198 63.9181ZM60.2593 64.164C60.1112 64.4368 60 64.7723 60 65.1592H62C62 65.159 62 65.159 62 65.1588C62.0001 65.1585 62.0002 65.1573 62.0009 65.1548C62.0023 65.1498 62.0063 65.1378 62.0169 65.1183L60.2593 64.164ZM60 65.1592C60 65.593 60.1 66.1007 60.4527 66.5128C60.828 66.9512 61.3526 67.1237 61.8705 67.1237V65.1237C61.8261 65.1237 61.8287 65.1167 61.8594 65.1291C61.8749 65.1354 61.8945 65.1455 61.9157 65.1607C61.937 65.1759 61.9561 65.1936 61.9721 65.2122C62.0048 65.2504 62.0123 65.2781 62.0108 65.273C62.0087 65.2658 62 65.2309 62 65.1592H60ZM61.8705 67.1237C62.1847 67.1237 62.4808 67.0534 62.7493 66.926L61.8923 65.119C61.8868 65.1216 61.8837 65.1224 61.8823 65.1227C61.8809 65.123 61.8775 65.1237 61.8705 65.1237V67.1237ZM62.6674 66.9605C64.822 66.1644 66.7017 65.5825 68.2425 65.3608C69.8118 65.1351 70.8091 65.316 71.4044 65.7699L72.617 64.1794C71.3692 63.2281 69.6888 63.1322 67.9577 63.3812C66.1979 63.6344 64.1543 64.279 61.9742 65.0845L62.6674 66.9605ZM73.0107 64.9746V64.9627H71.0107V64.9746H73.0107ZM71.3581 65.7205C75.6229 69.3931 81.5589 71.5172 88.6763 71.9918L88.8094 69.9963C81.9984 69.5421 76.5154 67.5222 72.6632 64.2049L71.3581 65.7205ZM88.7428 71.994C88.7636 71.994 88.7861 71.9948 88.8292 71.9963C88.8672 71.9977 88.9257 72 88.989 72V70C88.9682 70 88.9457 69.9993 88.9026 69.9977C88.8647 69.9963 88.8061 69.994 88.7428 69.994V71.994ZM88.989 72C91.2353 72 93.2331 70.3622 93.4023 68.0852L91.4078 67.937C91.3249 69.0537 90.3088 70 88.989 70V72ZM93.4023 68.0856C93.5799 65.7072 91.6829 63.7357 89.2951 63.5779L89.1632 65.5735C90.5576 65.6657 91.4944 66.7784 91.4079 67.9366L93.4023 68.0856ZM89.295 63.5779C83.0399 63.1651 78.6454 61.2824 76.0096 58.1718L74.4837 59.4647C77.5994 63.1416 82.6066 65.1408 89.1633 65.5735L89.295 63.5779ZM76.0096 58.1717C72.8475 54.4404 72.8109 49.6532 73.3991 46.147L71.4267 45.8161C70.8023 49.5379 70.7536 55.063 74.4837 59.4647L76.0096 58.1717ZM73.399 46.1478C74.1252 41.8397 77.9307 39.6254 81.9877 38.4987C85.9903 37.387 89.8278 37.4612 89.9016 37.4612V35.4612C89.9066 35.4612 89.9099 35.4612 89.8942 35.4611C89.8838 35.4609 89.8692 35.4608 89.8507 35.4606C89.8137 35.4603 89.762 35.46 89.6966 35.4601C89.5658 35.4602 89.3809 35.4618 89.1492 35.4674C88.6861 35.4785 88.035 35.5057 87.2543 35.5697C85.6971 35.6976 83.6048 35.9738 81.4525 36.5716C77.2184 37.7475 72.3577 40.2934 71.4268 45.8153L73.399 46.1478ZM90.227 37.46C92.9281 37.3266 95.3964 37.5076 97.5786 37.9803L98.002 36.0257C95.6215 35.51 92.9747 35.3219 90.1284 35.4624L90.227 37.46ZM97.5758 37.9797C99.8983 38.4899 102.303 37.1451 102.879 34.8464L100.939 34.3607C100.65 35.5152 99.3686 36.3258 98.0049 36.0263L97.5758 37.9797ZM102.879 34.8464C103.462 32.518 101.903 30.276 99.5658 29.7627L99.1367 31.7162C100.486 32.0126 101.22 33.2358 100.939 34.3607L102.879 34.8464ZM99.5603 29.7615C96.5964 29.1282 93.3454 28.8856 89.896 29.0499L89.9912 31.0477C93.2898 30.8905 96.3667 31.1242 99.1423 31.7174L99.5603 29.7615ZM89.9565 29.0489C88.99 29.0364 84.1509 29.0664 79.011 30.5779L79.5752 32.4966C84.4374 31.0668 89.048 31.0373 89.9307 31.0487L89.9565 29.0489ZM79.0103 30.5781C70.9151 32.965 65.8338 37.8559 64.6548 44.8264L66.6268 45.1599C67.6452 39.139 72.0016 34.7298 79.5759 32.4964L79.0103 30.5781ZM64.6546 44.8274C63.9963 48.7446 64.166 52.5093 65.1288 55.9167L67.0534 55.3729C66.1791 52.2786 66.0125 48.8151 66.627 45.1589L64.6546 44.8274ZM66.0911 54.6448H66.0851V56.6448H66.0911V54.6448ZM66.0851 55.6448C65.1109 55.8703 65.1107 55.8697 65.1106 55.8691C65.1105 55.8689 65.1104 55.8682 65.1103 55.8678C65.1101 55.867 65.1099 55.8663 65.1098 55.8655C65.1094 55.8641 65.1091 55.8627 65.1089 55.8615C65.1083 55.8592 65.1079 55.8573 65.1077 55.856C65.1071 55.8533 65.107 55.8527 65.1073 55.8542C65.1078 55.8572 65.1098 55.8683 65.1124 55.8872C65.1177 55.9251 65.1253 55.9942 65.1286 56.0913C65.1353 56.2853 65.1251 56.5926 65.0438 56.9904C64.8828 57.7783 64.435 58.9623 63.2195 60.3505L64.7242 61.6681C66.1622 60.0257 66.771 58.5275 67.0033 57.3908C67.1187 56.8262 67.1391 56.3606 67.1275 56.0223C67.1216 55.8533 67.1078 55.7163 67.0938 55.6147C67.0868 55.5639 67.0798 55.522 67.0737 55.4893C67.0707 55.4729 67.0679 55.4589 67.0654 55.4472C67.0642 55.4413 67.0631 55.4361 67.0621 55.4314C67.0616 55.4291 67.0611 55.4269 67.0606 55.4249C67.0604 55.4239 67.0602 55.4229 67.0599 55.4219C67.0598 55.4215 67.0597 55.4208 67.0596 55.4206C67.0595 55.4199 67.0593 55.4192 66.0851 55.6448ZM63.2196 60.3504C62.156 61.5645 61.3527 62.6956 60.5391 63.7694L62.1333 64.9771C62.9888 63.848 63.7223 62.8118 64.724 61.6682L63.2196 60.3504ZM89.9016 37.4612H90.1777V35.4612H89.9016V37.4612Z" fill="white" mask="url(#path-5-outside-1_3803_5032)"/>
<path d="M104.861 55.6996C108.186 48.8015 104.416 38.8904 91.1326 39.553C91.1326 39.553 78.988 39.2245 77.6017 47.5499C76.2153 55.8752 81.1577 63.2944 95.3818 62.0541C95.7932 62.0201 96.1989 61.9635 96.5878 61.8899C96.5878 61.8899 96.6216 61.8899 96.6385 61.8842C96.661 61.8842 96.6836 61.8785 96.7061 61.8729C100.612 61.0573 103.362 62.6941 104.489 63.8098C105.627 64.9312 105.041 61.8276 104.489 59.5395C104.111 57.965 104.252 57.2401 104.861 55.7053V55.6996Z" fill="#0F69C4"/>
<path d="M63.186 63.8608C63.1634 63.8891 63.1465 63.9231 63.1296 63.9514C63.0507 64.0986 63 64.2629 63 64.4441C63 65.0048 63.2592 65.3616 63.8172 65.3616C63.9693 65.3616 64.1102 65.3276 64.2398 65.2653C68.3087 63.7418 71.6055 62.9319 73.3356 64.2685V64.2572C77.1452 67.5817 82.5046 69.5526 89.0418 69.9943C89.1207 69.9943 89.194 70 89.2729 70C90.9466 70 92.3611 68.771 92.4795 67.1569C92.6035 65.4749 91.2735 64.008 89.4983 63.8891C83.4852 63.487 79.0725 61.6407 76.3731 58.4125C73.1383 54.5443 73.144 49.6397 73.7132 46.2019C75.2686 36.8515 89.9829 37.146 90.1295 37.146H90.3887C92.9923 37.0157 95.3931 37.1913 97.5346 37.6614C99.2647 38.0465 100.995 37.0214 101.401 35.379C101.806 33.7366 100.73 32.0885 98.9998 31.7034C96.306 31.12 93.3361 30.8935 90.1689 31.0464C89.301 31.0351 84.8659 31.0634 80.1715 32.4623C72.8171 34.6597 68.3876 39.0829 67.3563 45.2618C66.7589 48.8638 66.9167 52.3015 67.7789 55.3938H67.7733C67.7733 55.3938 68.2805 57.6139 65.7896 60.4966C64.8203 61.618 64.0989 62.6488 63.3156 63.6965" fill="#0F69C4"/>
<path d="M35.0146 100.359C35.0146 97.694 37.0166 95.666 39.6816 95.666C41.8916 95.666 43.0226 96.875 43.0226 96.875L42.3856 97.837C42.3856 97.837 41.3196 96.836 39.7336 96.836C37.6796 96.836 36.3406 98.396 36.3406 100.346C36.3406 102.309 37.7056 103.973 39.7466 103.973C41.4756 103.973 42.5806 102.777 42.5806 102.777L43.2696 103.7C43.2696 103.7 42.0086 105.156 39.7076 105.156C36.9516 105.156 35.0146 103.05 35.0146 100.359ZM44.3055 101.711C44.3055 99.618 45.7225 98.266 47.5945 98.266C49.4535 98.266 50.4415 99.644 50.4415 101.347C50.4415 101.516 50.4025 101.893 50.4025 101.893H45.6055C45.6705 103.336 46.6975 104.064 47.8675 104.064C48.9985 104.064 49.8175 103.297 49.8175 103.297L50.3375 104.22C50.3375 104.22 49.3625 105.156 47.7895 105.156C45.7225 105.156 44.3055 103.661 44.3055 101.711ZM45.6445 100.944H49.1545C49.1155 99.813 48.4135 99.267 47.5685 99.267C46.6065 99.267 45.8265 99.865 45.6445 100.944ZM51.9714 105V98.422H53.1934V99.293C53.1934 99.553 53.1674 99.774 53.1674 99.774H53.1934C53.4534 99.202 54.2334 98.266 55.6634 98.266C57.2104 98.266 57.9254 99.111 57.9254 100.788V105H56.6644V101.074C56.6644 100.151 56.4694 99.423 55.4164 99.423C54.4154 99.423 53.6094 100.086 53.3364 101.035C53.2584 101.295 53.2324 101.594 53.2324 101.919V105H51.9714ZM60.0774 102.595V99.527H59.2194V98.513H60.1164V96.615H61.3384V98.513H62.9244V99.527H61.3384V102.452C61.3384 103.765 62.2614 103.934 62.7424 103.934C62.9244 103.934 63.0414 103.908 63.0414 103.908V105.026C63.0414 105.026 62.8594 105.052 62.5994 105.052C61.7544 105.052 60.0774 104.792 60.0774 102.595ZM64.4636 105V98.422H65.6856V99.566C65.6856 99.839 65.6596 100.06 65.6596 100.06H65.6856C65.9846 99.098 66.7516 98.344 67.7656 98.344C67.9346 98.344 68.0906 98.37 68.0906 98.37V99.618C68.0906 99.618 67.9216 99.579 67.7266 99.579C66.9206 99.579 66.1796 100.151 65.8806 101.126C65.7636 101.503 65.7246 101.906 65.7246 102.309V105H64.4636ZM68.8195 101.698C68.8195 99.709 70.4055 98.266 72.3685 98.266C74.3315 98.266 75.9175 99.709 75.9175 101.698C75.9175 103.7 74.3315 105.156 72.3685 105.156C70.4055 105.156 68.8195 103.7 68.8195 101.698ZM70.1065 101.698C70.1065 103.076 71.1335 104.064 72.3685 104.064C73.6165 104.064 74.6305 103.076 74.6305 101.698C74.6305 100.333 73.6165 99.358 72.3685 99.358C71.1335 99.358 70.1065 100.333 70.1065 101.698ZM76.8798 104.194L77.4908 103.297C77.4908 103.297 78.2318 104.064 79.3758 104.064C79.9218 104.064 80.4678 103.778 80.4678 103.245C80.4678 102.036 77.0878 102.283 77.0878 100.138C77.0878 98.942 78.1538 98.266 79.4668 98.266C80.9098 98.266 81.5858 98.994 81.5858 98.994L81.0788 99.943C81.0788 99.943 80.4938 99.358 79.4538 99.358C78.9078 99.358 78.3748 99.592 78.3748 100.164C78.3748 101.347 81.7548 101.087 81.7548 103.245C81.7548 104.337 80.8188 105.156 79.3758 105.156C77.7638 105.156 76.8798 104.194 76.8798 104.194ZM86.1498 101.711C86.1498 99.618 87.3848 98.266 89.1268 98.266C90.6478 98.266 91.1548 99.306 91.1548 99.306H91.1808C91.1808 99.306 91.1548 99.111 91.1548 98.864V95.822H92.4158V105H91.2198V104.376C91.2198 104.116 91.2328 103.934 91.2328 103.934H91.2068C91.2068 103.934 90.6738 105.156 89.0488 105.156C87.2678 105.156 86.1498 103.752 86.1498 101.711ZM87.4368 101.711C87.4368 103.141 88.2038 104.064 89.2958 104.064C90.2708 104.064 91.1938 103.375 91.1938 101.698C91.1938 100.528 90.5828 99.358 89.3348 99.358C88.2948 99.358 87.4368 100.216 87.4368 101.711ZM93.9314 101.711C93.9314 99.618 95.3484 98.266 97.2204 98.266C99.0794 98.266 100.067 99.644 100.067 101.347C100.067 101.516 100.028 101.893 100.028 101.893H95.2314C95.2964 103.336 96.3234 104.064 97.4934 104.064C98.6244 104.064 99.4434 103.297 99.4434 103.297L99.9634 104.22C99.9634 104.22 98.9884 105.156 97.4154 105.156C95.3484 105.156 93.9314 103.661 93.9314 101.711ZM95.2704 100.944H98.7804C98.7414 99.813 98.0394 99.267 97.1944 99.267C96.2324 99.267 95.4524 99.865 95.2704 100.944ZM37.5747 121V111.822H40.6167C43.4247 111.822 45.2707 113.499 45.2707 116.398C45.2707 119.31 43.4247 121 40.6167 121H37.5747ZM38.8617 119.882H40.5257C42.5927 119.882 43.9447 118.66 43.9447 116.398C43.9447 114.149 42.5797 112.94 40.5257 112.94H38.8617V119.882ZM46.4827 117.711C46.4827 115.618 47.8997 114.266 49.7717 114.266C51.6307 114.266 52.6187 115.644 52.6187 117.347C52.6187 117.516 52.5797 117.893 52.5797 117.893H47.7827C47.8477 119.336 48.8747 120.064 50.0447 120.064C51.1757 120.064 51.9947 119.297 51.9947 119.297L52.5147 120.22C52.5147 120.22 51.5397 121.156 49.9667 121.156C47.8997 121.156 46.4827 119.661 46.4827 117.711ZM47.8217 116.944H51.3317C51.2927 115.813 50.5907 115.267 49.7457 115.267C48.7837 115.267 48.0037 115.865 47.8217 116.944ZM53.6156 120.194L54.2266 119.297C54.2266 119.297 54.9676 120.064 56.1116 120.064C56.6576 120.064 57.2036 119.778 57.2036 119.245C57.2036 118.036 53.8236 118.283 53.8236 116.138C53.8236 114.942 54.8896 114.266 56.2026 114.266C57.6456 114.266 58.3216 114.994 58.3216 114.994L57.8146 115.943C57.8146 115.943 57.2296 115.358 56.1896 115.358C55.6436 115.358 55.1106 115.592 55.1106 116.164C55.1106 117.347 58.4906 117.087 58.4906 119.245C58.4906 120.337 57.5546 121.156 56.1116 121.156C54.4996 121.156 53.6156 120.194 53.6156 120.194ZM59.4428 119.154C59.4428 116.983 62.3028 116.892 63.4078 116.892H63.6938V116.775C63.6938 115.696 63.0828 115.332 62.2508 115.332C61.2368 115.332 60.4178 115.969 60.4178 115.969L59.8978 115.046C59.8978 115.046 60.8468 114.266 62.3548 114.266C64.0188 114.266 64.9548 115.176 64.9548 116.84V121H63.7848V120.376C63.7848 120.077 63.8108 119.856 63.8108 119.856H63.7848C63.7848 119.856 63.2518 121.156 61.6788 121.156C60.5478 121.156 59.4428 120.467 59.4428 119.154ZM60.7168 119.089C60.7168 119.622 61.1328 120.142 61.9518 120.142C63.0178 120.142 63.7068 119.024 63.7068 118.049V117.841H63.3818C62.4328 117.841 60.7168 117.906 60.7168 119.089ZM66.844 121V114.422H68.066V115.566C68.066 115.839 68.04 116.06 68.04 116.06H68.066C68.365 115.098 69.132 114.344 70.146 114.344C70.315 114.344 70.471 114.37 70.471 114.37V115.618C70.471 115.618 70.302 115.579 70.107 115.579C69.301 115.579 68.56 116.151 68.261 117.126C68.144 117.503 68.105 117.906 68.105 118.309V121H66.844ZM71.719 121V114.422H72.941V115.566C72.941 115.839 72.915 116.06 72.915 116.06H72.941C73.24 115.098 74.007 114.344 75.021 114.344C75.19 114.344 75.346 114.37 75.346 114.37V115.618C75.346 115.618 75.177 115.579 74.982 115.579C74.176 115.579 73.435 116.151 73.136 117.126C73.019 117.503 72.98 117.906 72.98 118.309V121H71.719ZM76.0749 117.698C76.0749 115.709 77.6609 114.266 79.6239 114.266C81.5869 114.266 83.1729 115.709 83.1729 117.698C83.1729 119.7 81.5869 121.156 79.6239 121.156C77.6609 121.156 76.0749 119.7 76.0749 117.698ZM77.3619 117.698C77.3619 119.076 78.3889 120.064 79.6239 120.064C80.8719 120.064 81.8859 119.076 81.8859 117.698C81.8859 116.333 80.8719 115.358 79.6239 115.358C78.3889 115.358 77.3619 116.333 77.3619 117.698ZM84.5902 119.206V111.822H85.8512V118.985C85.8512 119.778 86.1632 119.921 86.5532 119.921C86.6702 119.921 86.7742 119.908 86.7742 119.908V121.026C86.7742 121.026 86.5792 121.052 86.3582 121.052C85.6432 121.052 84.5902 120.857 84.5902 119.206ZM88.0306 119.206V111.822H89.2916V118.985C89.2916 119.778 89.6036 119.921 89.9936 119.921C90.1106 119.921 90.2146 119.908 90.2146 119.908V121.026C90.2146 121.026 90.0196 121.052 89.7986 121.052C89.0836 121.052 88.0306 120.857 88.0306 119.206ZM91.068 117.698C91.068 115.709 92.654 114.266 94.617 114.266C96.58 114.266 98.166 115.709 98.166 117.698C98.166 119.7 96.58 121.156 94.617 121.156C92.654 121.156 91.068 119.7 91.068 117.698ZM92.355 117.698C92.355 119.076 93.382 120.064 94.617 120.064C95.865 120.064 96.879 119.076 96.879 117.698C96.879 116.333 95.865 115.358 94.617 115.358C93.382 115.358 92.355 116.333 92.355 117.698ZM30.3031 133.711C30.3031 131.618 31.5381 130.266 33.2801 130.266C34.8011 130.266 35.3081 131.306 35.3081 131.306H35.3341C35.3341 131.306 35.3081 131.111 35.3081 130.864V127.822H36.5691V137H35.3731V136.376C35.3731 136.116 35.3861 135.934 35.3861 135.934H35.3601C35.3601 135.934 34.8271 137.156 33.2021 137.156C31.4211 137.156 30.3031 135.752 30.3031 133.711ZM31.5901 133.711C31.5901 135.141 32.3571 136.064 33.4491 136.064C34.4241 136.064 35.3471 135.375 35.3471 133.698C35.3471 132.528 34.7361 131.358 33.4881 131.358C32.4481 131.358 31.5901 132.216 31.5901 133.711ZM38.0848 133.711C38.0848 131.618 39.5018 130.266 41.3738 130.266C43.2328 130.266 44.2208 131.644 44.2208 133.347C44.2208 133.516 44.1818 133.893 44.1818 133.893H39.3848C39.4498 135.336 40.4768 136.064 41.6468 136.064C42.7778 136.064 43.5968 135.297 43.5968 135.297L44.1168 136.22C44.1168 136.22 43.1418 137.156 41.5688 137.156C39.5018 137.156 38.0848 135.661 38.0848 133.711ZM39.4238 132.944H42.9338C42.8948 131.813 42.1928 131.267 41.3478 131.267C40.3858 131.267 39.6058 131.865 39.4238 132.944ZM49.3496 137V127.822H50.6236L54.7056 133.789C55.0436 134.283 55.4726 135.115 55.4726 135.115H55.4986C55.4986 135.115 55.4076 134.296 55.4076 133.789V127.822H56.6946V137H55.4336L51.3386 131.046C51.0006 130.539 50.5716 129.707 50.5716 129.707H50.5456C50.5456 129.707 50.6366 130.526 50.6366 131.046V137H49.3496ZM58.4734 133.711C58.4734 131.618 59.8904 130.266 61.7624 130.266C63.6214 130.266 64.6094 131.644 64.6094 133.347C64.6094 133.516 64.5704 133.893 64.5704 133.893H59.7734C59.8384 135.336 60.8654 136.064 62.0354 136.064C63.1664 136.064 63.9854 135.297 63.9854 135.297L64.5054 136.22C64.5054 136.22 63.5304 137.156 61.9574 137.156C59.8904 137.156 58.4734 135.661 58.4734 133.711ZM59.8124 132.944H63.3224C63.2834 131.813 62.5814 131.267 61.7364 131.267C60.7744 131.267 59.9944 131.865 59.8124 132.944ZM66.7244 138.196C66.7244 138.196 67.5434 138.638 68.5314 138.638C69.6754 138.638 70.6114 138.131 70.6114 136.792V136.311C70.6114 136.103 70.6244 135.895 70.6244 135.895H70.5984C70.2084 136.545 69.5974 136.922 68.6484 136.922C66.8154 136.922 65.7104 135.453 65.7104 133.555C65.7104 131.67 66.7634 130.266 68.5834 130.266C70.1694 130.266 70.6504 131.241 70.6504 131.241H70.6764C70.6764 131.241 70.6634 131.15 70.6634 131.033V130.422H71.8724V136.727C71.8724 138.898 70.2214 139.73 68.5574 139.73C67.7644 139.73 66.9454 139.509 66.3084 139.184L66.7244 138.196ZM68.8954 135.83C69.8054 135.83 70.6374 135.284 70.6374 133.568C70.6374 131.852 69.8054 131.358 68.7784 131.358C67.6344 131.358 66.9844 132.19 66.9844 133.529C66.9844 134.894 67.7124 135.83 68.8954 135.83ZM73.3644 133.698C73.3644 131.709 74.9504 130.266 76.9134 130.266C78.8764 130.266 80.4624 131.709 80.4624 133.698C80.4624 135.7 78.8764 137.156 76.9134 137.156C74.9504 137.156 73.3644 135.7 73.3644 133.698ZM74.6514 133.698C74.6514 135.076 75.6784 136.064 76.9134 136.064C78.1614 136.064 79.1754 135.076 79.1754 133.698C79.1754 132.333 78.1614 131.358 76.9134 131.358C75.6784 131.358 74.6514 132.333 74.6514 133.698ZM81.4897 133.711C81.4897 131.761 82.9457 130.266 85.0127 130.266C86.6637 130.266 87.4827 131.228 87.4827 131.228L86.8847 132.112C86.8847 132.112 86.1827 131.358 85.0647 131.358C83.7387 131.358 82.7767 132.346 82.7767 133.698C82.7767 135.037 83.7387 136.064 85.1037 136.064C86.3257 136.064 87.1317 135.18 87.1317 135.18L87.6387 136.103C87.6387 136.103 86.7287 137.156 85.0127 137.156C82.9457 137.156 81.4897 135.687 81.4897 133.711ZM89.0541 129.109V127.822H90.3281V129.109H89.0541ZM89.0671 137V130.422H90.3281V137H89.0671ZM91.8234 133.698C91.8234 131.709 93.4094 130.266 95.3724 130.266C97.3354 130.266 98.9214 131.709 98.9214 133.698C98.9214 135.7 97.3354 137.156 95.3724 137.156C93.4094 137.156 91.8234 135.7 91.8234 133.698ZM93.1104 133.698C93.1104 135.076 94.1374 136.064 95.3724 136.064C96.6204 136.064 97.6344 135.076 97.6344 133.698C97.6344 132.333 96.6204 131.358 95.3724 131.358C94.1374 131.358 93.1104 132.333 93.1104 133.698ZM99.8837 136.194L100.495 135.297C100.495 135.297 101.236 136.064 102.38 136.064C102.926 136.064 103.472 135.778 103.472 135.245C103.472 134.036 100.092 134.283 100.092 132.138C100.092 130.942 101.158 130.266 102.471 130.266C103.914 130.266 104.59 130.994 104.59 130.994L104.083 131.943C104.083 131.943 103.498 131.358 102.458 131.358C101.912 131.358 101.379 131.592 101.379 132.164C101.379 133.347 104.759 133.087 104.759 135.245C104.759 136.337 103.823 137.156 102.38 137.156C100.768 137.156 99.8837 136.194 99.8837 136.194Z" fill="#002673"/>
</svg>
