<svg width="240" height="154" viewBox="0 0 240 154" fill="none" xmlns="http://www.w3.org/2000/svg">
<rect width="240" height="154" rx="20" fill="#C1D91C" fill-opacity="0.3"/>
<path d="M29.1623 104C32.0791 104 33.566 105.532 33.566 105.532L32.7225 106.75C32.7225 106.75 31.3213 105.491 29.2195 105.491C26.5029 105.491 24.7443 107.462 24.7443 109.925C24.7443 112.388 26.5458 114.509 29.2338 114.509C31.5214 114.509 32.9655 113.003 32.9655 113.003L33.8806 114.166C33.8806 114.166 32.222 116 29.1766 116C25.5593 115.986 23 113.318 23 109.925C23 106.531 25.6451 104 29.1623 104Z" fill="#586213"/>
<path d="M40.4003 110.595H40.7721V110.445C40.7721 109.076 39.9714 108.625 38.8705 108.625C37.5265 108.625 36.4542 109.432 36.4542 109.432L35.7679 108.269C35.7679 108.269 37.0261 107.284 39.0135 107.284C41.2153 107.284 42.4449 108.433 42.4449 110.527V115.781H40.9008V114.987C40.9008 114.604 40.9294 114.331 40.9294 114.331H40.9008C40.9008 114.331 40.2002 115.973 38.127 115.973C36.64 115.973 35.1817 115.097 35.1817 113.441C35.1817 110.705 38.9563 110.582 40.4146 110.582L40.4003 110.595ZM38.4701 114.7C39.8713 114.7 40.7864 113.291 40.7864 112.059V111.799H40.3574C39.0992 111.799 36.8402 111.881 36.8402 113.373C36.8402 114.043 37.3835 114.7 38.4701 114.7Z" fill="#586213"/>
<path d="M44.8183 104.192H46.4769V113.236C46.4769 114.235 46.8915 114.413 47.4062 114.413C47.5635 114.413 47.6922 114.399 47.6922 114.399V115.808C47.6922 115.808 47.4348 115.836 47.1489 115.836C46.2052 115.836 44.8183 115.59 44.8183 113.51V104.192Z" fill="#586213"/>
<path d="M53.4971 107.284C55.6703 107.284 56.7569 108.502 56.7569 108.502L55.9706 109.624C55.9706 109.624 55.0412 108.666 53.5685 108.666C51.8242 108.666 50.5517 109.911 50.5517 111.621C50.5517 113.332 51.8242 114.604 53.6257 114.604C55.2414 114.604 56.2994 113.482 56.2994 113.482L56.9714 114.645C56.9714 114.645 55.7704 115.973 53.5114 115.973C50.7805 115.973 48.8646 114.112 48.8646 111.621C48.8646 109.131 50.7805 107.27 53.5114 107.27L53.4971 107.284Z" fill="#586213"/>
<path d="M58.7443 107.475H60.4029V112.429C60.4029 113.578 60.6459 114.495 62.0328 114.495C63.8057 114.495 64.8495 113.003 64.8495 111.361V107.475H66.508V115.781H64.8923V114.686C64.8923 114.344 64.9209 114.084 64.9209 114.084H64.8923C64.5349 114.905 63.4054 115.986 61.704 115.986C59.7452 115.986 58.7443 115.001 58.7443 112.798V107.475Z" fill="#586213"/>
<path d="M69.0101 104.192H70.6686V113.236C70.6686 114.235 71.0833 114.413 71.598 114.413C71.7553 114.413 71.8839 114.399 71.8839 114.399V115.808C71.8839 115.808 71.6266 115.836 71.3406 115.836C70.397 115.836 69.0101 115.59 69.0101 113.51V104.192Z" fill="#586213"/>
<path d="M78.1892 110.595H78.561V110.445C78.561 109.076 77.7603 108.625 76.6594 108.625C75.3154 108.625 74.2431 109.432 74.2431 109.432L73.5568 108.269C73.5568 108.269 74.815 107.284 76.8024 107.284C79.0042 107.284 80.2338 108.433 80.2338 110.527V115.781H78.6897V114.987C78.6897 114.604 78.7183 114.331 78.7183 114.331H78.6897C78.6897 114.331 77.9891 115.973 75.9159 115.973C74.4289 115.973 72.9706 115.097 72.9706 113.441C72.9706 110.705 76.7452 110.582 78.2035 110.582L78.1892 110.595ZM76.2733 114.7C77.6745 114.7 78.5896 113.291 78.5896 112.059V111.799H78.1606C76.9024 111.799 74.6434 111.881 74.6434 113.373C74.6434 114.043 75.1867 114.7 76.2733 114.7Z" fill="#586213"/>
<path d="M86.0816 107.284C88.0833 107.284 88.7553 108.597 88.7553 108.597H88.7839C88.7839 108.597 88.7553 108.351 88.7553 108.036V104.192H90.4138V115.781H88.841V114.987C88.841 114.659 88.8553 114.426 88.8553 114.426H88.8267C88.8267 114.426 88.1262 115.973 85.9815 115.973C83.6367 115.973 82.164 114.194 82.164 111.621C82.164 109.049 83.7939 107.27 86.0959 107.27L86.0816 107.284ZM86.3103 114.604C87.5971 114.604 88.8124 113.729 88.8124 111.621C88.8124 110.144 88.0118 108.666 86.3675 108.666C84.9949 108.666 83.8654 109.747 83.8654 111.635C83.8654 113.523 84.8806 114.604 86.3103 114.604Z" fill="#586213"/>
<path d="M97.0765 107.284C99.6644 107.284 101.752 109.104 101.752 111.621C101.752 114.139 99.6644 115.986 97.0765 115.986C94.4886 115.986 92.4012 114.153 92.4012 111.621C92.4012 109.09 94.4886 107.284 97.0765 107.284ZM97.0765 114.604C98.7208 114.604 100.065 113.359 100.065 111.621C100.065 109.884 98.7208 108.666 97.0765 108.666C95.4323 108.666 94.0883 109.897 94.0883 111.621C94.0883 113.345 95.4466 114.604 97.0765 114.604Z" fill="#586213"/>
<path d="M103.739 107.475H105.355V108.926C105.355 109.268 105.326 109.555 105.326 109.555H105.355C105.755 108.338 106.756 107.393 108.1 107.393C108.329 107.393 108.529 107.421 108.529 107.421V108.994C108.529 108.994 108.3 108.94 108.043 108.94C106.985 108.94 105.998 109.665 105.612 110.896C105.455 111.375 105.412 111.881 105.412 112.388V115.781H103.754V107.475H103.739Z" fill="#586213"/>
<path d="M114.706 110.595H115.077V110.445C115.077 109.076 114.277 108.625 113.176 108.625C111.832 108.625 110.759 109.432 110.759 109.432L110.073 108.269C110.073 108.269 111.331 107.284 113.319 107.284C115.521 107.284 116.75 108.433 116.75 110.527V115.781H115.206V114.987C115.206 114.604 115.235 114.331 115.235 114.331H115.206C115.206 114.331 114.505 115.973 112.432 115.973C110.945 115.973 109.487 115.097 109.487 113.441C109.487 110.705 113.262 110.582 114.72 110.582L114.706 110.595ZM112.775 114.7C114.177 114.7 115.092 113.291 115.092 112.059V111.799H114.663C113.405 111.799 111.146 111.881 111.146 113.373C111.146 114.043 111.689 114.7 112.775 114.7Z" fill="#586213"/>
<path d="M127.002 107.284C129.003 107.284 129.675 108.597 129.675 108.597H129.704C129.704 108.597 129.675 108.351 129.675 108.036V104.192H131.334V115.781H129.761V114.987C129.761 114.659 129.775 114.426 129.775 114.426H129.747C129.747 114.426 129.046 115.973 126.902 115.973C124.557 115.973 123.084 114.194 123.084 111.621C123.084 109.049 124.714 107.27 127.016 107.27L127.002 107.284ZM127.23 114.604C128.517 114.604 129.733 113.729 129.733 111.621C129.733 110.144 128.932 108.666 127.288 108.666C125.915 108.666 124.786 109.747 124.786 111.635C124.786 113.523 125.801 114.604 127.23 114.604Z" fill="#586213"/>
<path d="M137.696 107.284C140.156 107.284 141.457 109.022 141.457 111.17C141.457 111.389 141.399 111.854 141.399 111.854H135.066C135.151 113.674 136.51 114.591 138.054 114.591C139.598 114.591 140.627 113.619 140.627 113.619L141.314 114.782C141.314 114.782 140.027 115.959 137.954 115.959C135.223 115.959 133.364 114.071 133.364 111.608C133.364 108.967 135.237 107.257 137.696 107.257V107.284ZM139.755 110.664C139.698 109.241 138.783 108.543 137.668 108.543C136.395 108.543 135.366 109.295 135.137 110.664H139.77H139.755Z" fill="#586213"/>
<path d="M147.776 104.192H149.435V113.236C149.435 114.235 149.849 114.413 150.364 114.413C150.521 114.413 150.65 114.399 150.65 114.399V115.808C150.65 115.808 150.393 115.836 150.107 115.836C149.163 115.836 147.776 115.59 147.776 113.51V104.192Z" fill="#586213"/>
<path d="M156.955 110.595H157.327V110.445C157.327 109.076 156.527 108.625 155.426 108.625C154.082 108.625 153.009 109.432 153.009 109.432L152.323 108.269C152.323 108.269 153.581 107.284 155.569 107.284C157.77 107.284 159 108.433 159 110.527V115.781H157.456V114.987C157.456 114.604 157.484 114.331 157.484 114.331H157.456C157.456 114.331 156.755 115.973 154.682 115.973C153.195 115.973 151.737 115.097 151.737 113.441C151.737 110.705 155.511 110.582 156.97 110.582L156.955 110.595ZM155.04 114.7C156.441 114.7 157.356 113.291 157.356 112.059V111.799H156.927C155.669 111.799 153.41 111.881 153.41 113.373C153.41 114.043 153.953 114.7 155.04 114.7Z" fill="#586213"/>
<circle cx="59" cy="54" r="35" fill="#B5C92A" fill-opacity="0.47"/>
<circle cx="208" cy="118" r="12" fill="#CBDB64"/>
<path d="M209.824 118L206 113.667L206.588 113L211 118L206.588 123L206 122.333L209.824 118Z" fill="#7F8D24"/>
<path d="M82.6699 37.5C84.5944 34.1667 89.4056 34.1667 91.3301 37.5L106.053 63C107.977 66.3333 105.571 70.5 101.722 70.5H72.2776C68.4286 70.5 66.0229 66.3333 67.9474 63L82.6699 37.5Z" fill="white"/>
<path d="M107.966 62.2672L105.059 57.2518C104.985 57.1239 104.887 57.0118 104.769 56.9219C104.651 56.8319 104.517 56.766 104.374 56.7277C104.231 56.6894 104.082 56.6796 103.935 56.6989C103.788 56.7181 103.646 56.766 103.518 56.8398C103.39 56.9136 103.277 57.0119 103.187 57.129C103.097 57.2461 103.031 57.3798 102.992 57.5224C102.954 57.665 102.944 57.8138 102.964 57.9601C102.983 58.1065 103.031 58.2476 103.105 58.3754L106.055 63.4649C106.881 64.8904 107.02 66.6614 106.255 68.1202C105.863 68.8809 105.268 69.5185 104.534 69.9622C103.801 70.4059 102.958 70.6382 102.1 70.6334H91.3585V68.6386C91.3585 68.4412 91.3063 68.2474 91.2073 68.0765C91.1083 67.9056 90.9658 67.7637 90.7943 67.665C90.6228 67.5663 90.4282 67.5144 90.2301 67.5144C90.0321 67.5144 89.8375 67.5663 89.6659 67.665L84.244 70.7837C84.0724 70.8823 83.93 71.0242 83.831 71.1951C83.7319 71.366 83.6798 71.5599 83.6798 71.7572C83.6798 71.9546 83.7319 72.1484 83.831 72.3193C83.93 72.4902 84.0724 72.6321 84.244 72.7308L89.6659 75.8494C89.8375 75.948 90.032 76 90.2301 76C90.4282 76 90.6228 75.9481 90.7943 75.8494C90.9658 75.7507 91.1083 75.6088 91.2073 75.4379C91.3063 75.267 91.3585 75.0732 91.3585 74.8759V72.8807H102.1C103.339 72.8878 104.557 72.561 105.625 71.9348C106.693 71.3085 107.571 70.4062 108.166 69.3234C109.387 67.1359 109.222 64.4349 107.966 62.2672Z" fill="#9FAE3C"/>
<path d="M87.2074 35.2524C88.8585 35.3214 90.3285 36.3274 91.1547 37.7531L96.4256 46.8483L94.6951 47.8438C94.5232 47.9427 94.3804 48.0849 94.2812 48.2561C94.1819 48.4274 94.1297 48.6217 94.1297 48.8194C94.1297 49.0172 94.1819 49.2115 94.2812 49.3827C94.3804 49.554 94.5232 49.6962 94.6951 49.7951L100.11 52.9095C100.282 53.0084 100.477 53.0604 100.675 53.0604C100.874 53.0604 101.069 53.0084 101.241 52.9095C101.412 52.8106 101.555 52.6684 101.654 52.4971C101.754 52.3259 101.806 52.1316 101.806 51.9338L101.806 45.705C101.806 45.5072 101.754 45.313 101.654 45.1417C101.555 44.9704 101.412 44.8282 101.24 44.7293C101.069 44.6305 100.874 44.5784 100.675 44.5784C100.477 44.5784 100.282 44.6305 100.11 44.7294L98.3795 45.7245L93.1508 36.7022C91.894 34.5337 89.6275 33.0409 87.1145 33.0017C85.876 32.9742 84.6531 33.2808 83.5753 33.889C82.4974 34.4972 81.6046 35.3844 80.9914 36.4568L77.9422 41.7184C77.7928 41.9765 77.7524 42.2832 77.8299 42.5709C77.9075 42.8587 78.0965 43.104 78.3555 43.253C78.6145 43.4019 78.9223 43.4423 79.2112 43.3653C79.5001 43.2882 79.7465 43.1 79.8961 42.842L82.9454 37.5804C83.3702 36.8376 83.9935 36.2268 84.7459 35.8158C85.4983 35.4049 86.3504 35.2098 87.2074 35.2524Z" fill="#9FAE3C"/>
<path d="M77.9983 70.6334H72.103C70.5105 70.6334 68.9476 69.9322 68.0484 68.6229C67.5399 67.898 67.2505 67.0431 67.2146 66.1595C67.1786 65.2759 67.3976 64.4005 67.8455 63.637L73.2165 54.3692L74.958 55.371C75.1288 55.4692 75.3225 55.5209 75.5196 55.5209C75.7168 55.5209 75.9105 55.4692 76.0813 55.371C76.252 55.2728 76.3938 55.1315 76.4924 54.9614C76.591 54.7912 76.6429 54.5983 76.6429 54.4018V48.1468C76.6429 47.9503 76.591 47.7574 76.4924 47.5873C76.3938 47.4171 76.252 47.2759 76.0813 47.1777C75.9105 47.0795 75.7168 47.0277 75.5196 47.0277C75.3225 47.0277 75.1288 47.0794 74.958 47.1777L69.5207 50.3052C69.35 50.4035 69.2081 50.5447 69.1096 50.7148C69.011 50.885 68.9591 51.0779 68.9591 51.2744C68.9591 51.4708 69.011 51.6638 69.1096 51.8339C69.2081 52.004 69.35 52.1453 69.5207 52.2435L71.2627 53.2455L66.0342 62.2673C64.7779 64.4349 64.6128 67.1359 65.8339 69.3235C66.429 70.4063 67.307 71.3086 68.3748 71.9348C69.4427 72.5611 70.6607 72.8879 71.8998 72.8807H77.9984C78.2975 72.8807 78.5844 72.7623 78.7959 72.5516C79.0074 72.3409 79.1262 72.0551 79.1262 71.7571C79.1262 71.4591 79.0074 71.1733 78.7959 70.9626C78.5844 70.7518 78.2975 70.6334 77.9983 70.6334Z" fill="#9FAE3C"/>
<path fill-rule="evenodd" clip-rule="evenodd" d="M87.975 48.3858C91.9696 51.6304 94 54.4634 94 56.9537C94 60.4802 91.041 63 87.5 63C83.959 63 81 60.4802 81 56.9537C81 54.4634 83.0304 51.6304 87.025 48.3858L87.5 48L87.975 48.3858ZM82.4444 56.9537C82.4444 59.7104 84.7296 61.6564 87.5 61.6564C90.2704 61.6564 92.5556 59.7104 92.5556 56.9537C92.5556 55.0395 90.8897 52.6315 87.5 49.7898C84.1103 52.6315 82.4444 55.0395 82.4444 56.9537ZM87.5 60.9846V59.6409C89.0955 59.6409 90.3889 58.4378 90.3889 56.9537H91.8333C91.8333 59.1799 89.8932 60.9846 87.5 60.9846Z" fill="#9FAE3C"/>
<mask id="mask0_4244_2159" style="mask-type:alpha" maskUnits="userSpaceOnUse" x="0" y="0" width="240" height="154">
<rect width="240" height="154" rx="20" fill="#C1D91C" fill-opacity="0.3"/>
</mask>
<g mask="url(#mask0_4244_2159)">
<g opacity="0.18">
<path d="M169.743 -26.25C171.857 -29.9167 177.143 -29.9167 179.257 -26.25L267.256 126.375C269.37 130.042 266.727 134.625 262.499 134.625H86.5008C82.2726 134.625 79.63 130.042 81.7441 126.375L169.743 -26.25Z" fill="white"/>
<path d="M261.914 100.738L249.795 79.8243C249.487 79.291 249.075 78.8236 248.586 78.4486C248.096 78.0736 247.536 77.7985 246.939 77.639C246.343 77.4794 245.72 77.4386 245.108 77.5188C244.495 77.599 243.904 77.7987 243.369 78.1064C242.834 78.4142 242.365 78.824 241.989 79.3124C241.613 79.8008 241.337 80.3582 241.177 80.9528C241.018 81.5475 240.977 82.1676 241.058 82.7779C241.139 83.3882 241.339 83.9767 241.649 84.5097L253.946 105.731C257.391 111.676 257.972 119.06 254.781 125.143C253.148 128.315 250.665 130.974 247.607 132.824C244.549 134.674 241.036 135.643 237.458 135.623H192.672V127.305C192.672 126.482 192.455 125.673 192.042 124.961C191.629 124.248 191.035 123.656 190.32 123.245C189.605 122.834 188.793 122.617 187.968 122.617C187.142 122.617 186.33 122.834 185.615 123.245L163.009 136.249C162.294 136.661 161.7 137.252 161.287 137.965C160.874 138.677 160.657 139.486 160.657 140.309C160.657 141.131 160.874 141.94 161.287 142.652C161.7 143.365 162.294 143.957 163.009 144.368L185.615 157.372C186.33 157.783 187.142 158 187.968 158C188.793 158 189.605 157.783 190.32 157.372C191.035 156.961 191.629 156.369 192.042 155.656C192.455 154.944 192.672 154.135 192.672 153.313V144.993H237.458C242.624 145.023 247.703 143.66 252.155 141.049C256.607 138.438 260.268 134.675 262.749 130.16C267.841 121.039 267.152 109.776 261.914 100.738Z" fill="#91A600"/>
<path d="M175.365 -11.9079C182.249 -11.6201 188.378 -7.42557 191.823 -1.48056L213.799 36.444L206.584 40.5952C205.867 41.0074 205.272 41.6004 204.858 42.3145C204.444 43.0287 204.226 43.8387 204.226 44.6634C204.226 45.488 204.444 46.298 204.858 47.0121C205.272 47.7263 205.867 48.3193 206.584 48.7315L229.159 61.7179C229.876 62.1303 230.689 62.3474 231.517 62.3474C232.344 62.3474 233.157 62.1303 233.874 61.718C234.591 61.3057 235.186 60.7127 235.6 59.9986C236.014 59.2844 236.231 58.4743 236.231 57.6497L236.231 31.6769C236.231 30.8523 236.013 30.0422 235.6 29.3281C235.186 28.614 234.591 28.0209 233.874 27.6086C233.157 27.1963 232.344 26.9793 231.516 26.9793C230.689 26.9793 229.876 27.1964 229.159 27.6087L221.945 31.7583L200.145 -5.86287C194.905 -14.9046 185.455 -21.1294 174.977 -21.2929C169.814 -21.4075 164.715 -20.1291 160.221 -17.593C155.727 -15.0569 152.005 -11.3574 149.448 -6.8861L136.735 15.0536C136.112 16.1299 135.944 17.4086 136.267 18.6086C136.59 19.8085 137.378 20.8315 138.458 21.4526C139.538 22.0737 140.821 22.2421 142.026 21.9207C143.23 21.5994 144.257 20.8146 144.881 19.7389L157.595 -2.20084C159.366 -5.29793 161.965 -7.84489 165.102 -9.55857C168.239 -11.2722 171.792 -12.0855 175.365 -11.9079Z" fill="#91A600"/>
<path d="M136.969 135.623H112.389C105.749 135.623 99.233 132.699 95.4836 127.239C93.3636 124.217 92.1572 120.652 92.0073 116.967C91.8574 113.283 92.7703 109.633 94.6378 106.449L117.032 67.8047L124.292 71.9817C125.004 72.3913 125.812 72.6069 126.634 72.6069C127.456 72.6069 128.264 72.3913 128.976 71.9818C129.688 71.5722 130.279 70.9832 130.69 70.2738C131.101 69.5644 131.318 68.7597 131.317 67.9406V41.8586C131.317 41.0395 131.101 40.2348 130.69 39.5255C130.279 38.8162 129.688 38.2271 128.976 37.8176C128.264 37.408 127.456 37.1924 126.634 37.1924C125.812 37.1924 125.004 37.408 124.293 37.8175L101.622 50.8589C100.91 51.2684 100.319 51.8574 99.9082 52.5668C99.4971 53.2762 99.2807 54.0808 99.2807 54.8999C99.2807 55.719 99.4971 56.5237 99.9082 57.2331C100.319 57.9424 100.91 58.5315 101.622 58.941L108.885 63.1191L87.0858 100.738C81.8481 109.776 81.1595 121.039 86.2508 130.16C88.732 134.676 92.3926 138.438 96.8449 141.049C101.297 143.66 106.375 145.023 111.542 144.993H136.969C138.216 144.993 139.412 144.5 140.294 143.621C141.176 142.742 141.671 141.551 141.671 140.308C141.671 139.065 141.176 137.874 140.294 136.995C139.412 136.116 138.216 135.623 136.969 135.623Z" fill="#91A600"/>
<path fill-rule="evenodd" clip-rule="evenodd" d="M178.744 41.9411C195.959 55.7412 204.709 67.791 204.709 78.3829C204.709 93.3826 191.957 104.1 176.697 104.1C161.437 104.1 148.685 93.3826 148.685 78.3829C148.685 67.791 157.435 55.7412 174.65 41.9411L176.697 40.3L178.744 41.9411ZM154.91 78.3829C154.91 90.1082 164.758 98.3851 176.697 98.3851C188.636 98.3851 198.484 90.1082 198.484 78.3829C198.484 70.2414 191.305 59.9994 176.697 47.9127C162.089 59.9994 154.91 70.2414 154.91 78.3829ZM176.697 95.5276V89.8127C183.573 89.8127 189.147 84.6954 189.147 78.3829H195.372C195.372 87.8517 187.011 95.5276 176.697 95.5276Z" fill="#91A600"/>
</g>
</g>
<path d="M28.997 123C31.8355 123 33.2825 124.66 33.2825 124.66L32.4616 125.979C32.4616 125.979 31.098 124.616 29.0526 124.616C26.409 124.616 24.6975 126.75 24.6975 129.418C24.6975 132.087 26.4507 134.384 29.0665 134.384C31.2928 134.384 32.6981 132.754 32.6981 132.754L33.5886 134.014C33.5886 134.014 31.9746 136 29.0109 136C25.4906 135.97 23 133.095 23 129.418C23 125.742 25.5741 123 28.997 123Z" fill="#586213"/>
<path d="M35.5088 123.208H37.1506V124.971H35.5088V123.208ZM35.5227 126.765H37.1367V135.763H35.5227V126.765Z" fill="#586213"/>
<path d="M39.683 126.765H41.2553V128.336C41.2553 128.707 41.2275 129.018 41.2275 129.018H41.2553C41.6449 127.699 42.6189 126.676 43.9268 126.676C44.1494 126.676 44.3442 126.706 44.3442 126.706V128.41C44.3442 128.41 44.1216 128.351 43.8711 128.351C42.8415 128.351 41.8814 129.137 41.5057 130.471C41.3527 130.99 41.3109 131.538 41.3109 132.087V135.763H39.6969V126.765H39.683Z" fill="#586213"/>
<path d="M49.8125 126.558C51.9274 126.558 52.9849 127.877 52.9849 127.877L52.2196 129.092C52.2196 129.092 51.3152 128.055 49.882 128.055C48.1845 128.055 46.9462 129.404 46.9462 131.257C46.9462 133.109 48.1845 134.488 49.9377 134.488C51.51 134.488 52.5396 133.273 52.5396 133.273L53.1936 134.532C53.1936 134.532 52.0248 135.97 49.8264 135.97C47.1688 135.97 45.3043 133.954 45.3043 131.257C45.3043 128.559 47.1688 126.543 49.8264 126.543L49.8125 126.558Z" fill="#586213"/>
<path d="M54.905 126.765H56.5191V132.131C56.5191 133.376 56.7556 134.369 58.1053 134.369C59.8306 134.369 60.8463 132.754 60.8463 130.975V126.765H62.4604V135.763H60.8881V134.577C60.8881 134.206 60.9159 133.925 60.9159 133.925H60.8881C60.5402 134.814 59.441 135.985 57.7852 135.985C55.879 135.985 54.905 134.918 54.905 132.531V126.765Z" fill="#586213"/>
<path d="M64.9093 123.208H66.5233V133.006C66.5233 134.088 66.9268 134.281 67.4277 134.281C67.5808 134.281 67.706 134.266 67.706 134.266V135.792C67.706 135.792 67.4555 135.822 67.1773 135.822C66.2589 135.822 64.9093 135.555 64.9093 133.302V123.208Z" fill="#586213"/>
<path d="M73.8421 130.145H74.2039V129.982C74.2039 128.499 73.4247 128.01 72.3533 128.01C71.0454 128.01 70.0018 128.885 70.0018 128.885L69.3339 127.625C69.3339 127.625 70.5584 126.558 72.4924 126.558C74.6352 126.558 75.8318 127.803 75.8318 130.071V135.763H74.3291V134.903C74.3291 134.488 74.3569 134.192 74.3569 134.192H74.3291C74.3291 134.192 73.6473 135.97 71.6298 135.97C70.1827 135.97 68.7635 135.036 68.7635 133.228C68.7635 130.263 72.4368 130.13 73.856 130.13L73.8421 130.145ZM71.9637 134.592C73.3273 134.592 74.2178 133.065 74.2178 131.731V131.449H73.8004C72.5759 131.449 70.3775 131.538 70.3775 133.154C70.3775 133.88 70.9062 134.592 71.9637 134.592Z" fill="#586213"/>
<path d="M78.2529 126.765H79.8252V128.336C79.8252 128.707 79.7973 129.018 79.7973 129.018H79.8252C80.2148 127.699 81.1887 126.676 82.4967 126.676C82.7193 126.676 82.9141 126.706 82.9141 126.706V128.41C82.9141 128.41 82.6915 128.351 82.441 128.351C81.4114 128.351 80.4513 129.137 80.0756 130.471C79.9226 130.99 79.8808 131.538 79.8808 132.087V135.763H78.2668V126.765H78.2529Z" fill="#586213"/>
<path d="M84.5003 123.208H86.1422V124.971H84.5003V123.208ZM84.5142 126.765H86.1282V135.763H84.5142V126.765Z" fill="#586213"/>
<path d="M91.9443 126.558C93.8923 126.558 94.5463 127.981 94.5463 127.981H94.5741C94.5741 127.981 94.5463 127.714 94.5463 127.373V123.208H96.1603V135.763H94.6298V134.903C94.6298 134.547 94.6437 134.295 94.6437 134.295H94.6159C94.6159 134.295 93.9341 135.97 91.8469 135.97C89.565 135.97 88.1319 134.058 88.1319 131.257C88.1319 128.455 89.7181 126.543 91.9583 126.543L91.9443 126.558ZM92.1531 134.488C93.4053 134.488 94.588 133.539 94.588 131.257C94.588 129.656 93.8088 128.055 92.2087 128.055C90.873 128.055 89.7737 129.226 89.7737 131.271C89.7737 133.317 90.7617 134.488 92.1531 134.488Z" fill="#586213"/>
<path d="M103.103 130.145H103.465V129.982C103.465 128.499 102.686 128.01 101.615 128.01C100.307 128.01 99.2632 128.885 99.2632 128.885L98.5953 127.625C98.5953 127.625 99.8197 126.558 101.754 126.558C103.897 126.558 105.093 127.803 105.093 130.071V135.763H103.59V134.903C103.59 134.488 103.618 134.192 103.618 134.192H103.59C103.59 134.192 102.909 135.97 100.891 135.97C99.444 135.97 98.0248 135.036 98.0248 133.228C98.0248 130.263 101.698 130.13 103.117 130.13L103.103 130.145ZM101.239 134.592C102.603 134.592 103.493 133.065 103.493 131.731V131.449H103.076C101.851 131.449 99.6528 131.538 99.6528 133.154C99.6528 133.88 100.181 134.592 101.239 134.592Z" fill="#586213"/>
<path d="M110.784 126.558C112.732 126.558 113.386 127.981 113.386 127.981H113.414C113.414 127.981 113.386 127.714 113.386 127.373V123.208H115V135.763H113.469V134.903C113.469 134.547 113.483 134.295 113.483 134.295H113.456C113.456 134.295 112.774 135.97 110.687 135.97C108.405 135.97 106.972 134.058 106.972 131.257C106.972 128.455 108.558 126.543 110.798 126.543L110.784 126.558ZM111.007 134.488C112.259 134.488 113.442 133.539 113.442 131.257C113.442 129.656 112.662 128.055 111.062 128.055C109.727 128.055 108.627 129.226 108.627 131.271C108.627 133.317 109.615 134.488 111.007 134.488Z" fill="#586213"/>
</svg>
