<svg width="240" height="155" viewBox="0 0 240 155" fill="none" xmlns="http://www.w3.org/2000/svg">
<rect x="0.5" y="0.943359" width="239" height="153" rx="19.5" fill="#EBF6F8" stroke="#EBF6F8"/>
<circle cx="60.5" cy="53.9434" r="40.5" fill="#CBE8ED"/>
<circle cx="194.5" cy="118.943" r="12.5" fill="#B8DFE7"/>
<path d="M197.588 118.943L193 114.177L193.706 113.443L199 118.943L193.706 124.443L193 123.71L197.588 118.943Z" fill="#2F8697"/>
<path d="M20.768 122.731C20.768 119.451 23.232 116.955 26.512 116.955C29.232 116.955 30.624 118.443 30.624 118.443L29.84 119.627C29.84 119.627 28.528 118.395 26.576 118.395C24.048 118.395 22.4 120.315 22.4 122.715C22.4 125.131 24.08 127.179 26.592 127.179C28.72 127.179 30.08 125.707 30.08 125.707L30.928 126.843C30.928 126.843 29.376 128.635 26.544 128.635C23.152 128.635 20.768 126.043 20.768 122.731ZM32.1709 124.379C32.1709 121.931 34.1229 120.155 36.5389 120.155C38.9549 120.155 40.9069 121.931 40.9069 124.379C40.9069 126.843 38.9549 128.635 36.5389 128.635C34.1229 128.635 32.1709 126.843 32.1709 124.379ZM33.7549 124.379C33.7549 126.075 35.0189 127.291 36.5389 127.291C38.0749 127.291 39.3229 126.075 39.3229 124.379C39.3229 122.699 38.0749 121.499 36.5389 121.499C35.0189 121.499 33.7549 122.699 33.7549 124.379ZM42.1553 124.379C42.1553 121.931 44.1073 120.155 46.5233 120.155C48.9393 120.155 50.8913 121.931 50.8913 124.379C50.8913 126.843 48.9393 128.635 46.5233 128.635C44.1073 128.635 42.1553 126.843 42.1553 124.379ZM43.7393 124.379C43.7393 126.075 45.0033 127.291 46.5233 127.291C48.0593 127.291 49.3073 126.075 49.3073 124.379C49.3073 122.699 48.0593 121.499 46.5233 121.499C45.0033 121.499 43.7393 122.699 43.7393 124.379ZM52.7316 131.643V120.347H54.1556V121.035C54.1556 121.355 54.1236 121.627 54.1236 121.627H54.1556C54.1556 121.627 54.8436 120.155 56.8756 120.155C59.0516 120.155 60.4276 121.883 60.4276 124.395C60.4276 126.971 58.8756 128.635 56.7636 128.635C54.9876 128.635 54.2836 127.307 54.2836 127.307H54.2516C54.2516 127.307 54.2836 127.595 54.2836 128.011V131.643H52.7316ZM54.2356 124.427C54.2356 125.867 55.0356 127.307 56.5236 127.307C57.8036 127.307 58.8596 126.251 58.8596 124.411C58.8596 122.651 57.9156 121.515 56.5716 121.515C55.3556 121.515 54.2356 122.363 54.2356 124.427ZM61.7654 124.395C61.7654 121.819 63.5094 120.155 65.8134 120.155C68.1014 120.155 69.3174 121.851 69.3174 123.947C69.3174 124.155 69.2694 124.619 69.2694 124.619H63.3654C63.4454 126.395 64.7094 127.291 66.1494 127.291C67.5414 127.291 68.5494 126.347 68.5494 126.347L69.1894 127.483C69.1894 127.483 67.9894 128.635 66.0534 128.635C63.5094 128.635 61.7654 126.795 61.7654 124.395ZM63.4134 123.451H67.7334C67.6854 122.059 66.8214 121.387 65.7814 121.387C64.5974 121.387 63.6374 122.123 63.4134 123.451ZM71.2004 128.443V120.347H72.7044V121.755C72.7044 122.091 72.6724 122.363 72.6724 122.363H72.7044C73.0724 121.179 74.0164 120.251 75.2644 120.251C75.4724 120.251 75.6644 120.283 75.6644 120.283V121.819C75.6644 121.819 75.4564 121.771 75.2164 121.771C74.2244 121.771 73.3124 122.475 72.9444 123.675C72.8004 124.139 72.7524 124.635 72.7524 125.131V128.443H71.2004ZM76.5444 126.171C76.5444 123.499 80.0644 123.387 81.4244 123.387H81.7764V123.243C81.7764 121.915 81.0244 121.467 80.0004 121.467C78.7524 121.467 77.7444 122.251 77.7444 122.251L77.1044 121.115C77.1044 121.115 78.2724 120.155 80.1284 120.155C82.1764 120.155 83.3284 121.275 83.3284 123.323V128.443H81.8884V127.675C81.8884 127.307 81.9204 127.035 81.9204 127.035H81.8884C81.8884 127.035 81.2324 128.635 79.2964 128.635C77.9044 128.635 76.5444 127.787 76.5444 126.171ZM78.1124 126.091C78.1124 126.747 78.6244 127.387 79.6324 127.387C80.9444 127.387 81.7924 126.011 81.7924 124.811V124.555H81.3924C80.2244 124.555 78.1124 124.635 78.1124 126.091ZM85.9426 125.483V121.707H84.8866V120.459H85.9906V118.123H87.4946V120.459H89.4466V121.707H87.4946V125.307C87.4946 126.923 88.6306 127.131 89.2226 127.131C89.4466 127.131 89.5906 127.099 89.5906 127.099V128.475C89.5906 128.475 89.3666 128.507 89.0466 128.507C88.0066 128.507 85.9426 128.187 85.9426 125.483ZM91.325 118.731V117.147H92.893V118.731H91.325ZM91.341 128.443V120.347H92.893V128.443H91.341ZM97.2454 128.443L94.2214 120.347H95.8694L97.8374 125.819C97.9974 126.267 98.0934 126.923 98.1094 126.923H98.1414C98.1574 126.923 98.2694 126.267 98.4294 125.819L100.397 120.347H102.029L99.0374 128.443H97.2454ZM102.701 126.171C102.701 123.499 106.221 123.387 107.581 123.387H107.933V123.243C107.933 121.915 107.181 121.467 106.157 121.467C104.909 121.467 103.901 122.251 103.901 122.251L103.261 121.115C103.261 121.115 104.429 120.155 106.285 120.155C108.333 120.155 109.485 121.275 109.485 123.323V128.443H108.045V127.675C108.045 127.307 108.077 127.035 108.077 127.035H108.045C108.045 127.035 107.389 128.635 105.453 128.635C104.061 128.635 102.701 127.787 102.701 126.171ZM104.269 126.091C104.269 126.747 104.781 127.387 105.789 127.387C107.101 127.387 107.949 126.011 107.949 124.811V124.555H107.549C106.381 124.555 104.269 124.635 104.269 126.091ZM111.154 127.451L111.906 126.347C111.906 126.347 112.818 127.291 114.226 127.291C114.898 127.291 115.57 126.939 115.57 126.283C115.57 124.795 111.41 125.099 111.41 122.459C111.41 120.987 112.722 120.155 114.338 120.155C116.114 120.155 116.946 121.051 116.946 121.051L116.322 122.219C116.322 122.219 115.602 121.499 114.322 121.499C113.65 121.499 112.994 121.787 112.994 122.491C112.994 123.947 117.154 123.627 117.154 126.283C117.154 127.627 116.002 128.635 114.226 128.635C112.242 128.635 111.154 127.451 111.154 127.451Z" fill="#206674"/>
<circle cx="98" cy="47.8184" r="5.25" fill="white"/>
<path d="M99.3125 58.3183C93.5375 57.2683 85.9688 61.3808 82.9062 63.5683V68.8183H114.406C113.969 68.5996 113.094 67.6371 113.094 65.5371C113.094 62.9121 106.531 59.6308 99.3125 58.3183Z" fill="white"/>
<path d="M60.55 69.5184V67.2434C60.55 65.2017 61.6583 63.4955 63.875 62.1246C66.0917 60.7538 68.9208 60.0684 72.3625 60.0684C72.8292 60.0684 73.3542 60.0976 73.9375 60.1559C74.5208 60.2142 75.1625 60.3017 75.8625 60.4184C75.3958 61.2934 75.0604 62.183 74.8562 63.0871C74.6521 63.9913 74.55 64.8809 74.55 65.7559V69.5184H60.55ZM81.55 69.5184V66.1059C81.55 64.8319 81.9292 63.6676 82.6875 62.6129C83.4458 61.5582 84.5833 60.6517 86.1 59.8934C87.6167 59.1351 89.3667 58.5663 91.35 58.1871C93.3333 57.808 95.5383 57.6184 97.965 57.6184C100.438 57.6184 102.667 57.808 104.65 58.1871C106.633 58.5663 108.383 59.1351 109.9 59.8934C111.417 60.6517 112.554 61.5582 113.312 62.6129C114.071 63.6676 114.45 64.8319 114.45 66.1059V69.5184H81.55ZM121.45 69.5184V65.7821C121.45 64.7858 121.348 63.8469 121.144 62.9655C120.94 62.0841 120.633 61.2351 120.225 60.4184C120.983 60.3017 121.64 60.2142 122.194 60.1559C122.748 60.0976 123.258 60.0684 123.725 60.0684C127.167 60.0684 129.981 60.7538 132.169 62.1246C134.356 63.4955 135.45 65.2017 135.45 67.2434V69.5184H121.45ZM84 67.0684H112V66.1059C112 64.2976 110.717 62.8392 108.15 61.7309C105.583 60.6226 102.2 60.0684 98 60.0684C93.8 60.0684 90.4167 60.6226 87.85 61.7309C85.2833 62.8392 84 64.2976 84 66.1059V67.0684ZM72.3389 56.8309C71.1296 56.8309 70.1021 56.4024 69.2562 55.5455C68.4104 54.6886 67.9875 53.6587 67.9875 52.4559C67.9875 51.2892 68.4159 50.283 69.2729 49.4371C70.1298 48.5913 71.1597 48.1684 72.3625 48.1684C73.5292 48.1684 74.55 48.5913 75.425 49.4371C76.3 50.283 76.7375 51.298 76.7375 52.4821C76.7375 53.6313 76.316 54.6434 75.4731 55.5184C74.6302 56.3934 73.5854 56.8309 72.3389 56.8309ZM123.725 56.8309C122.558 56.8309 121.537 56.3934 120.662 55.5184C119.787 54.6434 119.35 53.6313 119.35 52.4821C119.35 51.298 119.787 50.283 120.662 49.4371C121.537 48.5913 122.564 48.1684 123.742 48.1684C124.956 48.1684 125.985 48.5913 126.831 49.4371C127.677 50.283 128.1 51.2892 128.1 52.4559C128.1 53.6587 127.681 54.6886 126.843 55.5455C126.004 56.4024 124.965 56.8309 123.725 56.8309ZM98.0306 54.9934C96.1435 54.9934 94.5292 54.3298 93.1875 53.0028C91.8458 51.6757 91.175 50.0642 91.175 48.1684C91.175 46.2346 91.8385 44.6135 93.1656 43.3051C94.4927 41.9973 96.1042 41.3434 98 41.3434C99.9337 41.3434 101.555 41.9944 102.863 43.2964C104.171 44.599 104.825 46.2128 104.825 48.1378C104.825 50.0248 104.174 51.6392 102.872 52.9809C101.569 54.3226 99.9556 54.9934 98.0306 54.9934ZM98.0437 52.5434C99.2396 52.5434 100.26 52.1059 101.106 51.2309C101.952 50.3559 102.375 49.3205 102.375 48.1246C102.375 46.9288 101.956 45.908 101.118 45.0621C100.279 44.2163 99.2396 43.7934 98 43.7934C96.8333 43.7934 95.8125 44.2125 94.9375 45.0508C94.0625 45.8896 93.625 46.9288 93.625 48.1684C93.625 49.3351 94.0625 50.3559 94.9375 51.2309C95.8125 52.1059 96.8479 52.5434 98.0437 52.5434Z" fill="#4995A4"/>
</svg>
