<svg width="140" height="154" viewBox="0 0 140 154" fill="none" xmlns="http://www.w3.org/2000/svg">
<rect width="140" height="154" rx="16" fill="#EDE7F6"/>
<mask id="mask0_3803_5121" style="mask-type:alpha" maskUnits="userSpaceOnUse" x="7" y="25" width="128" height="97">
<rect x="7" y="25" width="128" height="96.25" rx="20" fill="#0F69B4" fill-opacity="0.1"/>
</mask>
<g mask="url(#mask0_3803_5121)">
<path d="M36.7189 112.5C35.3277 112.5 34.2 111.372 34.2 109.981V109.981C34.2 108.312 35.5533 106.958 37.2227 106.958H126.362C127.893 106.958 129.133 108.199 129.133 109.729V109.729C129.133 111.259 127.893 112.5 126.362 112.5H36.7189ZM47.4049 101.417C45.2696 101.417 43.4866 100.562 42.0561 98.8537C40.6255 97.145 39.9103 95.0153 39.9103 92.4647V38.327C39.9103 35.7764 40.6255 33.6467 42.0561 31.938C43.4866 30.2293 45.2696 29.375 47.4049 29.375H115.928C118.064 29.375 119.847 30.2293 121.277 31.938C122.708 33.6467 123.423 35.7764 123.423 38.327V92.4647C123.423 95.0153 122.708 97.145 121.277 98.8537C119.847 100.562 118.064 101.417 115.928 101.417H47.4049ZM47.4049 95.8749H115.928C116.642 95.8749 117.296 95.5197 117.891 94.8092C118.486 94.0988 118.783 93.3173 118.783 92.4647V38.327C118.783 37.4744 118.486 36.6929 117.891 35.9825C117.296 35.2719 116.642 34.9167 115.928 34.9167H47.4049C46.6912 34.9167 46.0369 35.2719 45.442 35.9825C44.8472 36.6929 44.5498 37.4744 44.5498 38.327V92.4647C44.5498 93.3173 44.8472 94.0988 45.442 94.8092C46.0369 95.5197 46.6912 95.8749 47.4049 95.8749Z" fill="#CBBBE5"/>
</g>
<circle cx="55" cy="49" r="35" fill="#4208A0" fill-opacity="0.2"/>
<path d="M49 73V70.0667H108V73H49ZM57.2068 67.1333C55.8796 67.1333 54.7716 66.6811 53.8825 65.7767C52.9934 64.8722 52.5489 63.745 52.5489 62.3948V33.7385C52.5489 32.3884 52.9934 31.2611 53.8825 30.3567C54.7716 29.4522 55.8796 29 57.2068 29H99.7932C101.12 29 102.228 29.4522 103.118 30.3567C104.007 31.2611 104.451 32.3884 104.451 33.7385V62.3948C104.451 63.745 104.007 64.8722 103.118 65.7767C102.228 66.6811 101.12 67.1333 99.7932 67.1333H57.2068ZM57.2068 64.1999H99.7932C100.237 64.1999 100.643 64.0119 101.013 63.6359C101.383 63.2598 101.568 62.8461 101.568 62.3948V33.7385C101.568 33.2872 101.383 32.8735 101.013 32.4975C100.643 32.1214 100.237 31.9333 99.7932 31.9333H57.2068C56.7632 31.9333 56.3565 32.1214 55.9868 32.4975C55.6172 32.8735 55.4323 33.2872 55.4323 33.7385V62.3948C55.4323 62.8461 55.6172 63.2598 55.9868 63.6359C56.3565 64.0119 56.7632 64.1999 57.2068 64.1999Z" fill="#4208A0" fill-opacity="0.4"/>
<rect x="57" y="32" width="49" height="33" fill="white"/>
<path d="M52.3333 73C51.597 73 51 72.403 51 71.6667V71.6667C51 70.783 51.7163 70.0667 52.6 70.0667H108.533C109.343 70.0667 110 70.7233 110 71.5333V71.5333C110 72.3434 109.343 73 108.533 73H52.3333ZM59.2068 67.1333C57.8796 67.1333 56.7716 66.6811 55.8825 65.7767C54.9934 64.8722 54.5489 63.745 54.5489 62.3948V33.7385C54.5489 32.3884 54.9934 31.2611 55.8825 30.3567C56.7716 29.4522 57.8796 29 59.2068 29H101.793C103.12 29 104.228 29.4522 105.118 30.3567C106.007 31.2611 106.451 32.3884 106.451 33.7385V62.3948C106.451 63.745 106.007 64.8722 105.118 65.7767C104.228 66.6811 103.12 67.1333 101.793 67.1333H59.2068ZM59.2068 64.1999H101.793C102.237 64.1999 102.643 64.0119 103.013 63.6359C103.383 63.2598 103.568 62.8461 103.568 62.3948V33.7385C103.568 33.2872 103.383 32.8735 103.013 32.4975C102.643 32.1214 102.237 31.9333 101.793 31.9333H59.2068C58.7632 31.9333 58.3565 32.1214 57.9868 32.4975C57.6172 32.8735 57.4323 33.2872 57.4323 33.7385V62.3948C57.4323 62.8461 57.6172 63.2598 57.9868 63.6359C58.3565 64.0119 58.7632 64.1999 59.2068 64.1999Z" fill="#4208A0"/>
<g clip-path="url(#clip0_3803_5121)">
<path d="M127.105 51.1959L107.938 47.3212L95.2654 52.8599L114.435 56.7346L127.105 51.1959Z" fill="white"/>
<path d="M114.435 57.0001C114.416 57.0001 114.4 57.0001 114.382 56.9947L95.2154 53.12C95.1025 53.0961 95.0185 53.0032 95.0053 52.8865C94.9922 52.7697 95.0578 52.6609 95.1629 52.6158L107.836 47.077C107.885 47.0558 107.938 47.0505 107.991 47.0611L127.157 50.9358C127.27 50.9597 127.354 51.0526 127.367 51.1694C127.38 51.2861 127.315 51.395 127.21 51.4401L114.537 56.9762C114.503 56.9894 114.469 56.9974 114.432 56.9974L114.435 57.0001ZM96.1424 52.767L114.403 56.4587L126.228 51.2915L107.967 47.5998L96.1424 52.767Z" fill="#4208A0" fill-opacity="0.8"/>
<path d="M127.105 45.0945L107.938 41.2198L95.2654 46.7585L114.435 50.6306L127.105 45.0945Z" fill="#CBBBE5"/>
<path d="M114.435 50.896C114.416 50.896 114.4 50.896 114.382 50.8907L95.2154 47.0186C95.1025 46.9947 95.0185 46.9018 95.0053 46.7851C94.9922 46.6683 95.0578 46.5595 95.1629 46.5144L107.836 40.9783C107.885 40.957 107.938 40.9517 107.991 40.9623L127.157 44.8371C127.27 44.861 127.354 44.9538 127.367 45.0706C127.38 45.1874 127.315 45.2962 127.21 45.3413L114.537 50.8801C114.503 50.8933 114.469 50.9013 114.432 50.9013L114.435 50.896ZM96.1424 46.663L114.403 50.3546L126.228 45.1874L107.967 41.4958L96.1424 46.663Z" fill="#4208A0" fill-opacity="0.8"/>
<path d="M127.105 45.0945C127.105 45.0945 128.517 47.499 127.105 51.1773L114.432 56.732C115.845 53.051 114.432 50.6306 114.432 50.6306L127.105 45.0919V45.0945Z" fill="#A88ED3"/>
<path d="M114.434 57C114.369 57 114.303 56.9735 114.253 56.9257C114.177 56.8514 114.153 56.7373 114.19 56.6391C115.535 53.1359 114.222 50.7898 114.209 50.7686C114.172 50.7022 114.161 50.6253 114.185 50.551C114.209 50.4793 114.261 50.4209 114.329 50.3891L127.002 44.8503C127.123 44.7972 127.265 44.8424 127.333 44.9591C127.393 45.0626 128.796 47.5175 127.351 51.2755C127.325 51.3418 127.275 51.3949 127.21 51.4241L114.537 56.9788C114.503 56.9947 114.469 57 114.432 57H114.434ZM114.792 50.7633C115.101 51.4586 115.774 53.4517 114.881 56.2463L126.897 50.9782C127.955 48.1279 127.259 46.0738 126.978 45.4368L114.789 50.7633H114.792Z" fill="#4208A0" fill-opacity="0.8"/>
<path d="M96.1846 53.0457V46.9443L114.435 50.6332C114.435 50.6332 115.777 53.1279 114.435 56.7346L96.1846 53.0457Z" fill="white"/>
<path d="M114.435 57C114.416 57 114.401 57 114.382 56.9947L96.1319 53.3058C96.0085 53.2819 95.9219 53.1731 95.9219 53.0457V46.9443C95.9219 46.8647 95.956 46.7904 96.019 46.7399C96.0794 46.6895 96.1608 46.6683 96.237 46.6842L114.487 50.3732C114.563 50.3891 114.629 50.4369 114.666 50.5059C114.723 50.612 116.05 53.1492 114.681 56.8275C114.642 56.9337 114.542 57 114.435 57ZM96.4471 52.8281L114.264 56.4294C115.275 53.5075 114.471 51.3604 114.253 50.8668L96.4471 47.2654V52.8254V52.8281Z" fill="#4208A0" fill-opacity="0.8"/>
<path d="M95.8953 42.2415L115.062 38.3668L127.735 43.9055L108.568 47.7776L95.8953 42.2415Z" fill="white"/>
<path d="M108.568 48.043C108.531 48.043 108.497 48.035 108.463 48.0218L95.7903 42.4857C95.6852 42.4406 95.6222 42.3291 95.6327 42.215C95.6459 42.0982 95.7299 42.0053 95.8428 41.9814L115.009 38.1067C115.062 38.0961 115.117 38.1014 115.164 38.1226L127.837 43.6614C127.942 43.7065 128.005 43.8179 127.995 43.9321C127.984 44.0462 127.897 44.1417 127.785 44.1656L108.618 48.0403C108.602 48.043 108.584 48.0456 108.565 48.0456L108.568 48.043ZM96.7698 42.3344L108.597 47.5016L126.858 43.81L115.033 38.6428L96.7698 42.3344Z" fill="#4208A0" fill-opacity="0.8"/>
<path d="M95.8953 36.1401L115.062 32.2654L127.735 37.8041L108.568 41.6762L95.8953 36.1401Z" fill="#CBBBE5"/>
<path d="M108.568 41.9416C108.531 41.9416 108.497 41.9337 108.463 41.9204L95.7903 36.3843C95.6852 36.3392 95.6222 36.2277 95.6327 36.1136C95.6459 35.9968 95.7299 35.9039 95.8428 35.88L115.009 32.0053C115.062 31.9947 115.117 32 115.164 32.0212L127.837 37.56C127.942 37.6051 128.005 37.7166 127.995 37.8307C127.984 37.9448 127.897 38.0403 127.785 38.0642L108.618 41.939C108.602 41.9416 108.584 41.9443 108.565 41.9443L108.568 41.9416ZM96.7698 36.233L108.597 41.4002L126.858 37.7086L115.033 32.5414L96.7698 36.233Z" fill="#4208A0" fill-opacity="0.8"/>
<path d="M95.8955 36.1401C95.8955 36.1401 94.4827 38.5445 95.8955 42.2229L108.568 47.7775C107.155 44.0966 108.568 41.6762 108.568 41.6762L95.8955 36.1401Z" fill="#A88ED3"/>
<path d="M108.568 48.043C108.534 48.043 108.497 48.035 108.463 48.0217L95.7903 42.467C95.7247 42.4379 95.6748 42.3848 95.6512 42.3184C94.2095 38.5605 95.6092 36.1056 95.6695 36.0021C95.7378 35.888 95.877 35.8402 96.0004 35.8933L108.673 41.432C108.741 41.4612 108.794 41.5223 108.818 41.5939C108.841 41.6656 108.833 41.7452 108.794 41.8115C108.781 41.8354 107.468 44.1788 108.812 47.682C108.852 47.7829 108.825 47.8943 108.749 47.9686C108.699 48.0164 108.634 48.043 108.568 48.043ZM96.1002 42.0238L108.116 47.2919C107.224 44.4973 107.896 42.5042 108.208 41.8089L96.0188 36.4824C95.7378 37.1194 95.042 39.1735 96.1002 42.0238Z" fill="#4208A0" fill-opacity="0.8"/>
<path d="M126.816 44.0913V37.9899L108.565 41.6789C108.565 41.6789 107.224 44.1736 108.565 47.7803L126.816 44.0913Z" fill="white"/>
<path d="M108.568 48.043C108.46 48.043 108.361 47.9767 108.321 47.8705C106.953 44.1922 108.279 41.655 108.337 41.5488C108.374 41.4798 108.439 41.4321 108.516 41.4161L126.766 37.7272C126.845 37.7113 126.923 37.7325 126.984 37.7829C127.044 37.8333 127.081 37.9077 127.081 37.9873V44.0886C127.081 44.216 126.992 44.3248 126.871 44.3487L108.621 48.0377C108.602 48.0403 108.586 48.043 108.568 48.043ZM108.747 41.9124C108.529 42.4061 107.725 44.5504 108.736 47.4751L126.553 43.8737V38.3137L108.747 41.9124Z" fill="#4208A0" fill-opacity="0.8"/>
</g>
<path d="M44.6435 114V104.822H47.9975C49.6745 104.822 50.8835 105.953 50.8835 107.695C50.8835 109.437 49.6745 110.607 47.9975 110.607H45.9305V114H44.6435ZM45.9305 109.489H47.7895C48.8945 109.489 49.5705 108.8 49.5705 107.695C49.5705 106.59 48.8945 105.94 47.8025 105.94H45.9305V109.489ZM51.799 110.698C51.799 108.709 53.385 107.266 55.348 107.266C57.311 107.266 58.897 108.709 58.897 110.698C58.897 112.7 57.311 114.156 55.348 114.156C53.385 114.156 51.799 112.7 51.799 110.698ZM53.086 110.698C53.086 112.076 54.113 113.064 55.348 113.064C56.596 113.064 57.61 112.076 57.61 110.698C57.61 109.333 56.596 108.358 55.348 108.358C54.113 108.358 53.086 109.333 53.086 110.698ZM60.3923 114V107.422H61.6143V108.566C61.6143 108.839 61.5883 109.06 61.5883 109.06H61.6143C61.9133 108.098 62.6803 107.344 63.6943 107.344C63.8633 107.344 64.0193 107.37 64.0193 107.37V108.618C64.0193 108.618 63.8503 108.579 63.6553 108.579C62.8493 108.579 62.1083 109.151 61.8093 110.126C61.6923 110.503 61.6533 110.906 61.6533 111.309V114H60.3923ZM65.5403 111.595V108.527H64.6823V107.513H65.5793V105.615H66.8013V107.513H68.3873V108.527H66.8013V111.452C66.8013 112.765 67.7243 112.934 68.2053 112.934C68.3873 112.934 68.5043 112.908 68.5043 112.908V114.026C68.5043 114.026 68.3223 114.052 68.0623 114.052C67.2173 114.052 65.5403 113.792 65.5403 111.595ZM69.3935 112.154C69.3935 109.983 72.2535 109.892 73.3585 109.892H73.6445V109.775C73.6445 108.696 73.0335 108.332 72.2015 108.332C71.1875 108.332 70.3685 108.969 70.3685 108.969L69.8485 108.046C69.8485 108.046 70.7975 107.266 72.3055 107.266C73.9695 107.266 74.9055 108.176 74.9055 109.84V114H73.7355V113.376C73.7355 113.077 73.7615 112.856 73.7615 112.856H73.7355C73.7355 112.856 73.2025 114.156 71.6295 114.156C70.4985 114.156 69.3935 113.467 69.3935 112.154ZM70.6675 112.089C70.6675 112.622 71.0835 113.142 71.9025 113.142C72.9685 113.142 73.6575 112.024 73.6575 111.049V110.841H73.3325C72.3835 110.841 70.6675 110.906 70.6675 112.089ZM76.7166 112.206V104.822H77.9776V111.985C77.9776 112.778 78.2896 112.921 78.6796 112.921C78.7966 112.921 78.9006 112.908 78.9006 112.908V114.026C78.9006 114.026 78.7056 114.052 78.4846 114.052C77.7696 114.052 76.7166 113.857 76.7166 112.206ZM83.1449 110.711C83.1449 108.618 84.3799 107.266 86.1219 107.266C87.6429 107.266 88.1499 108.306 88.1499 108.306H88.1759C88.1759 108.306 88.1499 108.111 88.1499 107.864V104.822H89.4109V114H88.2149V113.376C88.2149 113.116 88.2279 112.934 88.2279 112.934H88.2019C88.2019 112.934 87.6689 114.156 86.0439 114.156C84.2629 114.156 83.1449 112.752 83.1449 110.711ZM84.4319 110.711C84.4319 112.141 85.1989 113.064 86.2909 113.064C87.2659 113.064 88.1889 112.375 88.1889 110.698C88.1889 109.528 87.5779 108.358 86.3299 108.358C85.2899 108.358 84.4319 109.216 84.4319 110.711ZM90.9266 110.711C90.9266 108.618 92.3436 107.266 94.2156 107.266C96.0746 107.266 97.0626 108.644 97.0626 110.347C97.0626 110.516 97.0236 110.893 97.0236 110.893H92.2266C92.2916 112.336 93.3186 113.064 94.4886 113.064C95.6196 113.064 96.4386 112.297 96.4386 112.297L96.9586 113.22C96.9586 113.22 95.9836 114.156 94.4106 114.156C92.3436 114.156 90.9266 112.661 90.9266 110.711ZM92.2656 109.944H95.7756C95.7366 108.813 95.0346 108.267 94.1896 108.267C93.2276 108.267 92.4476 108.865 92.2656 109.944ZM31.5844 125.359C31.5844 122.694 33.5864 120.666 36.2514 120.666C38.4614 120.666 39.5924 121.875 39.5924 121.875L38.9554 122.837C38.9554 122.837 37.8894 121.836 36.3034 121.836C34.2494 121.836 32.9104 123.396 32.9104 125.346C32.9104 127.309 34.2754 128.973 36.3164 128.973C38.0454 128.973 39.1504 127.777 39.1504 127.777L39.8394 128.7C39.8394 128.7 38.5784 130.156 36.2774 130.156C33.5214 130.156 31.5844 128.05 31.5844 125.359ZM40.7973 128.154C40.7973 125.983 43.6573 125.892 44.7623 125.892H45.0483V125.775C45.0483 124.696 44.4373 124.332 43.6053 124.332C42.5913 124.332 41.7723 124.969 41.7723 124.969L41.2523 124.046C41.2523 124.046 42.2013 123.266 43.7093 123.266C45.3733 123.266 46.3093 124.176 46.3093 125.84V130H45.1393V129.376C45.1393 129.077 45.1653 128.856 45.1653 128.856H45.1393C45.1393 128.856 44.6063 130.156 43.0333 130.156C41.9023 130.156 40.7973 129.467 40.7973 128.154ZM42.0713 128.089C42.0713 128.622 42.4873 129.142 43.3063 129.142C44.3723 129.142 45.0613 128.024 45.0613 127.049V126.841H44.7363C43.7873 126.841 42.0713 126.906 42.0713 128.089ZM48.1984 132.6V123.422H49.3554V123.981C49.3554 124.241 49.3294 124.462 49.3294 124.462H49.3554C49.3554 124.462 49.9144 123.266 51.5654 123.266C53.3334 123.266 54.4514 124.67 54.4514 126.711C54.4514 128.804 53.1904 130.156 51.4744 130.156C50.0314 130.156 49.4594 129.077 49.4594 129.077H49.4334C49.4334 129.077 49.4594 129.311 49.4594 129.649V132.6H48.1984ZM49.4204 126.737C49.4204 127.907 50.0704 129.077 51.2794 129.077C52.3194 129.077 53.1774 128.219 53.1774 126.724C53.1774 125.294 52.4104 124.371 51.3184 124.371C50.3304 124.371 49.4204 125.06 49.4204 126.737ZM55.4604 128.154C55.4604 125.983 58.3204 125.892 59.4254 125.892H59.7114V125.775C59.7114 124.696 59.1004 124.332 58.2684 124.332C57.2544 124.332 56.4354 124.969 56.4354 124.969L55.9154 124.046C55.9154 124.046 56.8644 123.266 58.3724 123.266C60.0364 123.266 60.9724 124.176 60.9724 125.84V130H59.8024V129.376C59.8024 129.077 59.8284 128.856 59.8284 128.856H59.8024C59.8024 128.856 59.2694 130.156 57.6964 130.156C56.5654 130.156 55.4604 129.467 55.4604 128.154ZM56.7344 128.089C56.7344 128.622 57.1504 129.142 57.9694 129.142C59.0354 129.142 59.7244 128.024 59.7244 127.049V126.841H59.3994C58.4504 126.841 56.7344 126.906 56.7344 128.089ZM62.3935 126.711C62.3935 124.761 63.8495 123.266 65.9165 123.266C67.5675 123.266 68.3865 124.228 68.3865 124.228L67.7885 125.112C67.7885 125.112 67.0865 124.358 65.9685 124.358C64.6425 124.358 63.6805 125.346 63.6805 126.698C63.6805 128.037 64.6425 129.064 66.0075 129.064C67.2295 129.064 68.0355 128.18 68.0355 128.18L68.5425 129.103C68.5425 129.103 67.6325 130.156 65.9165 130.156C63.8495 130.156 62.3935 128.687 62.3935 126.711ZM69.9579 122.109V120.822H71.2319V122.109H69.9579ZM69.9709 130V123.422H71.2319V130H69.9709ZM73.4812 127.595V124.527H72.6232V123.513H73.5202V121.615H74.7422V123.513H76.3282V124.527H74.7422V127.452C74.7422 128.765 75.6652 128.934 76.1462 128.934C76.3282 128.934 76.4452 128.908 76.4452 128.908V130.026C76.4452 130.026 76.2632 130.052 76.0032 130.052C75.1582 130.052 73.4812 129.792 73.4812 127.595ZM77.3344 128.154C77.3344 125.983 80.1944 125.892 81.2994 125.892H81.5854V125.775C81.5854 124.696 80.9744 124.332 80.1424 124.332C79.1284 124.332 78.3094 124.969 78.3094 124.969L77.7894 124.046C77.7894 124.046 78.7384 123.266 80.2464 123.266C81.9104 123.266 82.8464 124.176 82.8464 125.84V130H81.6764V129.376C81.6764 129.077 81.7024 128.856 81.7024 128.856H81.6764C81.6764 128.856 81.1434 130.156 79.5704 130.156C78.4394 130.156 77.3344 129.467 77.3344 128.154ZM78.6084 128.089C78.6084 128.622 79.0244 129.142 79.8434 129.142C80.9094 129.142 81.5984 128.024 81.5984 127.049V126.841H81.2734C80.3244 126.841 78.6084 126.906 78.6084 128.089ZM84.2676 126.711C84.2676 124.761 85.7236 123.266 87.7906 123.266C89.4416 123.266 90.2606 124.228 90.2606 124.228L89.6626 125.112C89.6626 125.112 88.9606 124.358 87.8426 124.358C86.5166 124.358 85.5546 125.346 85.5546 126.698C85.5546 128.037 86.5166 129.064 87.8816 129.064C89.1036 129.064 89.9096 128.18 89.9096 128.18L90.4166 129.103C90.4166 129.103 89.5066 130.156 87.7906 130.156C85.7236 130.156 84.2676 128.687 84.2676 126.711ZM91.8319 122.109V120.822H93.1059V122.109H91.8319ZM91.8449 130V123.422H93.1059V130H91.8449ZM94.6012 126.698C94.6012 124.709 96.1872 123.266 98.1502 123.266C100.113 123.266 101.699 124.709 101.699 126.698C101.699 128.7 100.113 130.156 98.1502 130.156C96.1872 130.156 94.6012 128.7 94.6012 126.698ZM95.8882 126.698C95.8882 128.076 96.9152 129.064 98.1502 129.064C99.3982 129.064 100.412 128.076 100.412 126.698C100.412 125.333 99.3982 124.358 98.1502 124.358C96.9152 124.358 95.8882 125.333 95.8882 126.698ZM97.5912 122.473L98.5402 120.822H99.8922L98.6442 122.473H97.5912ZM103.195 130V123.422H104.417V124.293C104.417 124.553 104.391 124.774 104.391 124.774H104.417C104.677 124.202 105.457 123.266 106.887 123.266C108.434 123.266 109.149 124.111 109.149 125.788V130H107.888V126.074C107.888 125.151 107.693 124.423 106.64 124.423C105.639 124.423 104.833 125.086 104.56 126.035C104.482 126.295 104.456 126.594 104.456 126.919V130H103.195Z" fill="#4208A0" fill-opacity="0.9"/>
<defs>
<clipPath id="clip0_3803_5121">
<rect width="33" height="25" fill="white" transform="translate(95 32)"/>
</clipPath>
</defs>
</svg>
