<svg width="240" height="154" viewBox="0 0 240 154" fill="none" xmlns="http://www.w3.org/2000/svg">
<rect width="240" height="154" rx="20" fill="#C1D91C" fill-opacity="0.3"/>
<g clip-path="url(#clip0_4251_2783)">
<path d="M184.583 114.367C158.449 140.487 129.235 130.917 117.292 125.211C106.867 137.12 104.969 147 104.969 147L100 144.126C105.885 133.278 113.588 123.285 113.588 123.285C129.182 102.813 146.197 83.3931 164.388 65.1959C172.908 56.7192 182.069 48.2535 191.219 40.4559C194.657 37.5559 199.002 34.0007 202.526 31.2011C200.278 32.8895 196.943 35.3319 194.741 37.0665C180.635 47.9219 167.042 59.8997 154.271 72.2857C138.835 87.3692 124.114 103.237 110.409 119.928C105.543 111.156 90.5693 78.3822 119.573 49.395C158.972 10.0195 222.998 11.0016 222.998 11.0016C222.998 11.0016 223.983 74.9912 184.583 114.367Z" fill="#E8F0B1"/>
</g>
<circle cx="59" cy="54" r="35" fill="#B5C92A" fill-opacity="0.47"/>
<circle cx="208" cy="118" r="12" fill="#CBDB64"/>
<path d="M209.824 118L206 113.667L206.588 113L211 118L206.588 123L206 122.333L209.824 118Z" fill="#7F8D24"/>
<g clip-path="url(#clip1_4251_2783)">
<path d="M97.493 34.0957C92.6933 34.1299 88.209 30.6857 79.6032 33.4625C79.6032 33.4625 71.7189 36.2949 68.3232 47.6715C68.3232 47.6715 80.1259 50.6664 86.0057 47.5003C93.8252 43.8507 97.4627 34.1 97.493 34.0957Z" fill="#C1D91C"/>
<path d="M59 60.062C61.4279 64.1609 60.6589 69.7272 67.3898 75.7214C67.3898 75.7214 73.8095 81.0696 85.4567 78.2928C85.4567 78.2928 82.1734 66.6724 76.4664 63.2153C69.3641 58.3292 59.0173 60.0877 59 60.062Z" fill="#C1D91C"/>
<path d="M102.024 80C104.392 75.8669 109.649 73.7405 111.52 64.9738C111.52 64.9738 112.985 56.7933 104.733 48.1934C104.733 48.1934 96.2138 56.8189 96.041 63.4464C95.3238 71.9777 102.033 79.9743 102.02 80H102.024Z" fill="#C1D91C"/>
<path d="M79.8788 47.479C74.7508 47.479 69.8042 46.2467 69.4888 46.1655C69.2339 46.1013 69.0179 45.9387 68.8883 45.7119C68.7587 45.4852 68.7285 45.2199 68.8019 44.9675C72.2926 33.2657 80.3367 30.2536 80.678 30.1338C86.7263 28.1828 90.9298 29.1797 94.3082 29.9798C95.9541 30.3691 97.3798 30.7071 98.8227 30.7071C98.8486 30.7071 98.8702 30.7071 98.8962 30.7071C99.4059 30.7071 99.8336 31.105 99.8596 31.6099C99.8682 31.7768 99.8336 31.9351 99.7645 32.0763L99.7386 32.1362C98.745 34.5321 94.9475 42.5929 87.8452 45.9216C85.6462 47.0982 82.7344 47.479 79.8788 47.479ZM70.962 44.5396C73.8695 45.1557 82.4277 46.666 86.9509 44.2273C86.9682 44.2187 86.9855 44.2102 87.0028 44.2016C92.6406 41.5703 96.0535 35.5419 97.4576 32.5384C96.2652 32.4057 95.0858 32.1276 93.8589 31.8367C90.5539 31.0537 86.8083 30.1638 81.3088 31.9394C81.2699 31.9565 74.3058 34.6134 70.962 44.5396Z" fill="#9FAE3A"/>
<path d="M65.2555 51.9971C65.1 51.9971 64.9444 51.9586 64.7976 51.8816C64.331 51.6291 64.1538 51.0515 64.4087 50.5852C71.982 36.757 89.7292 34.8188 90.4809 34.7418C91.008 34.6862 91.4832 35.0712 91.5394 35.5932C91.5955 36.1195 91.2067 36.5858 90.6797 36.6415C90.5068 36.6586 73.1873 38.5668 66.1066 51.4965C65.9338 51.8174 65.6011 51.9971 65.2598 51.9971H65.2555Z" fill="#9FAE3A"/>
<path d="M80.2982 77.6211C72.6083 77.6211 68.3961 74.2026 68.1758 74.0229C63.4409 69.8085 62.214 65.7054 61.229 62.411C60.7408 60.7809 60.3174 59.3689 59.5744 58.1153C59.3152 57.6747 59.4491 57.1099 59.8768 56.8318C60.0193 56.7419 60.1749 56.6906 60.3304 56.6778L60.3952 56.6692C62.9873 56.3269 71.9344 55.5482 78.3973 59.9765C84.3462 63.609 87.6511 75.1096 87.7894 75.5974C87.8585 75.8455 87.8239 76.1151 87.6943 76.3376C87.5604 76.5601 87.3444 76.7226 87.0895 76.7825C84.5924 77.3773 82.3243 77.6168 80.2982 77.6168V77.6211ZM61.89 58.4277C62.3695 59.5187 62.7151 60.6653 63.0737 61.8633C64.0414 65.0893 65.1344 68.7475 69.4373 72.5767C69.4719 72.6024 75.2738 77.2489 85.6293 75.1481C84.7134 72.3457 81.7541 64.2507 77.3648 61.5895C77.3475 61.5809 77.3346 61.5681 77.3173 61.5596C72.1936 58.0383 65.2208 58.1282 61.89 58.4234V58.4277Z" fill="#9FAE3A"/>
<path d="M93.5133 77.7581C78.0126 77.7581 67.7392 63.9042 67.3029 63.3095C66.9918 62.8816 67.0869 62.2869 67.5189 61.9746C67.9509 61.6665 68.5557 61.7607 68.8668 62.1885C68.9705 62.3297 79.3129 76.2306 94.1441 75.837C94.1527 75.837 94.1614 75.837 94.17 75.837C94.6927 75.837 95.1204 76.2477 95.1334 76.7654C95.1463 77.2917 94.7273 77.7324 94.1959 77.7452C93.9669 77.7495 93.738 77.7538 93.5133 77.7538V77.7581Z" fill="#9FAE3A"/>
<path d="M103.429 78.5196C103.282 78.5196 103.135 78.4854 102.997 78.417C102.846 78.3442 102.72 78.233 102.634 78.1046L102.595 78.0533C101.001 76.0039 95.8469 68.7175 96.4863 60.9563C96.685 54.0379 105.092 45.4509 105.451 45.0873C105.632 44.9033 105.904 44.8049 106.146 44.8006C106.41 44.8006 106.656 44.9118 106.837 45.1001C115.326 53.9481 113.94 62.3511 113.875 62.7062C112.557 68.8716 109.585 71.9778 107.196 74.4722C106.012 75.7044 104.993 76.774 104.267 78.0362C104.09 78.3442 103.766 78.5196 103.429 78.5196ZM106.137 47.1666C104.146 49.3529 98.547 55.9376 98.4174 61.0333C98.4174 61.0504 98.4174 61.0718 98.4174 61.0889C97.8989 67.2457 101.467 73.18 103.39 75.8883C104.103 74.93 104.936 74.0614 105.805 73.1544C108.142 70.7113 110.795 67.9474 111.991 62.3383C111.996 62.2955 113.158 54.9963 106.146 47.1623L106.137 47.1666Z" fill="#9FAE3A"/>
<path d="M104.064 69.3722C103.93 69.3722 103.796 69.3465 103.67 69.2866C103.187 69.0727 102.966 68.5036 103.187 68.0244C103.26 67.8661 110.25 52.0613 102.487 39.5209C102.206 39.0717 102.348 38.4812 102.806 38.2074C103.26 37.9293 103.856 38.0705 104.133 38.524C112.436 51.9329 105.26 68.1271 104.949 68.8074C104.789 69.1625 104.435 69.3722 104.068 69.3722H104.064Z" fill="#9FAE3A"/>
</g>
<path d="M67.9454 123.234C67.9454 123.234 69.2154 124.48 70.9933 124.48C72.108 124.48 73.0605 123.871 73.0605 122.769C73.0605 120.257 67.2681 120.804 67.2681 117.238C67.2681 115.431 68.8767 114 71.1344 114C73.3921 114 74.521 115.164 74.521 115.164L73.759 116.512C73.759 116.512 72.6584 115.513 71.1344 115.513C69.8645 115.513 68.9684 116.286 68.9684 117.204C68.9684 119.6 74.7608 118.963 74.7608 122.721C74.7608 124.515 73.3357 125.993 70.9651 125.993C68.4252 125.993 67 124.467 67 124.467L67.9454 123.234Z" fill="#586213"/>
<path d="M76.701 117.484H78.3449V122.447C78.3449 123.597 78.5848 124.515 79.9535 124.515C81.6962 124.515 82.7333 123.022 82.7333 121.379V117.484H84.3772V125.801H82.7827V124.699C82.7827 124.357 82.818 124.09 82.818 124.09H82.7827C82.43 124.912 81.3082 125.993 79.6361 125.993C77.7029 125.993 76.7081 125.007 76.7081 122.803V117.477L76.701 117.484Z" fill="#586213"/>
<path d="M87.0512 123.645C87.0512 123.645 88.0178 124.617 89.5064 124.617C90.219 124.617 90.9316 124.254 90.9316 123.584C90.9316 122.057 86.5291 122.365 86.5291 119.654C86.5291 118.141 87.919 117.286 89.6264 117.286C91.5031 117.286 92.385 118.203 92.385 118.203L91.7218 119.401C91.7218 119.401 90.9598 118.662 89.6052 118.662C88.8926 118.662 88.2012 118.956 88.2012 119.682C88.2012 121.174 92.6037 120.845 92.6037 123.577C92.6037 124.959 91.3831 125.993 89.5064 125.993C87.4039 125.993 86.2539 124.775 86.2539 124.775L87.0512 123.638V123.645Z" fill="#586213"/>
<path d="M94.8896 118.881H93.7749V117.601H94.9461V115.198H96.5406V117.594H98.6078V118.874H96.5406V122.57C96.5406 124.227 97.74 124.446 98.3679 124.446C98.6078 124.446 98.7559 124.412 98.7559 124.412V125.822C98.7559 125.822 98.5161 125.856 98.1774 125.856C97.0768 125.856 94.8896 125.528 94.8896 122.748V118.874V118.881Z" fill="#586213"/>
<path d="M104.287 117.286C106.707 117.286 107.998 119.025 107.998 121.181C107.998 121.393 107.949 121.872 107.949 121.872H101.698C101.783 123.693 103.123 124.617 104.647 124.617C106.171 124.617 107.187 123.645 107.187 123.645L107.864 124.809C107.864 124.809 106.594 125.993 104.548 125.993C101.853 125.993 100.012 124.104 100.012 121.639C100.012 118.997 101.86 117.286 104.294 117.286H104.287ZM106.319 120.667C106.27 119.237 105.353 118.545 104.252 118.545C102.996 118.545 101.98 119.298 101.747 120.667H106.319Z" fill="#586213"/>
<path d="M109.988 117.484H111.582V118.586C111.582 118.915 111.547 119.196 111.547 119.196H111.582C111.921 118.47 112.937 117.293 114.8 117.293C116.818 117.293 117.749 118.361 117.749 120.483V125.808H116.105V120.845C116.105 119.682 115.851 118.758 114.482 118.758C113.113 118.758 112.126 119.593 111.773 120.797C111.674 121.126 111.639 121.503 111.639 121.913V125.808H109.995V117.484H109.988Z" fill="#586213"/>
<path d="M120.557 118.881H119.442V117.601H120.613V115.198H122.208V117.594H124.275V118.874H122.208V122.57C122.208 124.227 123.407 124.446 124.035 124.446C124.275 124.446 124.423 124.412 124.423 124.412V125.822C124.423 125.822 124.183 125.856 123.845 125.856C122.744 125.856 120.557 125.528 120.557 122.748V118.874V118.881Z" fill="#586213"/>
<path d="M130.731 120.606H131.105V120.455C131.105 119.093 130.307 118.634 129.228 118.634C127.908 118.634 126.843 119.442 126.843 119.442L126.166 118.278C126.166 118.278 127.4 117.293 129.369 117.293C131.535 117.293 132.755 118.443 132.755 120.544V125.801H131.232V125.014C131.232 124.638 131.267 124.357 131.267 124.357H131.232C131.232 124.357 130.54 126 128.487 126C127.012 126 125.573 125.131 125.573 123.467C125.573 120.722 129.298 120.606 130.738 120.606H130.731ZM128.84 124.713C130.23 124.713 131.126 123.303 131.126 122.071V121.811H130.702C129.468 121.811 127.231 121.893 127.231 123.385C127.231 124.056 127.774 124.713 128.84 124.713Z" fill="#586213"/>
<path d="M135.204 114.199H136.848V117.991C136.848 118.402 136.812 118.696 136.812 118.696H136.848C136.848 118.696 137.574 117.286 139.592 117.286C141.892 117.286 143.353 119.059 143.353 121.639C143.353 124.22 141.709 125.993 139.458 125.993C137.546 125.993 136.763 124.562 136.763 124.562H136.728C136.728 124.562 136.763 124.823 136.763 125.185V125.795H135.204V114.199ZM139.218 124.631C140.573 124.631 141.687 123.549 141.687 121.66C141.687 119.771 140.686 118.689 139.268 118.689C137.983 118.689 136.798 119.558 136.798 121.681C136.798 123.159 137.595 124.638 139.218 124.638V124.631Z" fill="#586213"/>
<path d="M145.342 114.199H147V115.828H145.342V114.199ZM145.363 117.484H147.007V125.801H145.363V117.484Z" fill="#586213"/>
<path d="M149.477 114.199H151.12V123.255C151.12 124.254 151.53 124.439 152.038 124.439C152.193 124.439 152.327 124.426 152.327 124.426V125.836C152.327 125.836 152.073 125.87 151.784 125.87C150.852 125.87 149.484 125.624 149.484 123.536V114.199H149.477Z" fill="#586213"/>
<path d="M154.048 114.199H155.706V115.828H154.048V114.199ZM154.07 117.484H155.713V125.801H154.07V117.484Z" fill="#586213"/>
<path d="M161.598 117.286C163.58 117.286 164.236 118.6 164.236 118.6H164.272C164.272 118.6 164.236 118.354 164.236 118.039V114.199H165.88V125.801H164.321V125.014C164.321 124.686 164.335 124.453 164.335 124.453H164.3C164.3 124.453 163.608 126 161.492 126C159.171 126 157.717 124.227 157.717 121.646C157.717 119.066 159.326 117.293 161.598 117.293V117.286ZM161.823 124.617C163.093 124.617 164.293 123.748 164.293 121.626C164.293 120.147 163.495 118.669 161.873 118.669C160.518 118.669 159.403 119.75 159.403 121.639C159.403 123.529 160.405 124.61 161.823 124.61V124.617Z" fill="#586213"/>
<path d="M172.928 120.606H173.302V120.455C173.302 119.093 172.505 118.634 171.426 118.634C170.106 118.634 169.041 119.442 169.041 119.442L168.364 118.278C168.364 118.278 169.598 117.293 171.567 117.293C173.733 117.293 174.953 118.443 174.953 120.544V125.801H173.429V125.014C173.429 124.638 173.465 124.357 173.465 124.357H173.429C173.429 124.357 172.738 126 170.685 126C169.21 126 167.771 125.131 167.771 123.467C167.771 120.722 171.496 120.606 172.935 120.606H172.928ZM171.03 124.713C172.42 124.713 173.316 123.303 173.316 122.071V121.811H172.893C171.658 121.811 169.422 121.893 169.422 123.385C169.422 124.056 169.965 124.713 171.03 124.713Z" fill="#586213"/>
<path d="M180.717 117.286C182.7 117.286 183.356 118.6 183.356 118.6H183.391C183.391 118.6 183.356 118.354 183.356 118.039V114.199H185V125.801H183.441V125.014C183.441 124.686 183.455 124.453 183.455 124.453H183.42C183.42 124.453 182.728 126 180.612 126C178.29 126 176.837 124.227 176.837 121.646C176.837 119.066 178.446 117.293 180.717 117.293V117.286ZM180.936 124.617C182.206 124.617 183.406 123.748 183.406 121.626C183.406 120.147 182.608 118.669 180.986 118.669C179.631 118.669 178.516 119.75 178.516 121.639C178.516 123.529 179.518 124.61 180.936 124.61V124.617Z" fill="#586213"/>
<defs>
<clipPath id="clip0_4251_2783">
<rect width="123" height="136" fill="white" transform="translate(100 11)"/>
</clipPath>
<clipPath id="clip1_4251_2783">
<rect width="55" height="51" fill="white" transform="translate(59 29)"/>
</clipPath>
</defs>
</svg>
