<svg width="240" height="154" viewBox="0 0 240 154" fill="none" xmlns="http://www.w3.org/2000/svg">
<rect width="240" height="154" rx="20" fill="#71C0CF" fill-opacity="0.14"/>
<circle cx="211" cy="120" r="12" fill="#B8DFE7"/>
<path d="M212.824 120L209 115.667L209.588 115L214 120L209.588 125L209 124.333L212.824 120Z" fill="#2F8697"/>
<circle cx="55" cy="49" r="35" fill="#4DB0C3" fill-opacity="0.2"/>
<path d="M49 73V70.0667H108V73H49ZM57.2068 67.1333C55.8796 67.1333 54.7716 66.6811 53.8825 65.7767C52.9934 64.8722 52.5489 63.745 52.5489 62.3948V33.7385C52.5489 32.3884 52.9934 31.2611 53.8825 30.3567C54.7716 29.4522 55.8796 29 57.2068 29H99.7932C101.12 29 102.228 29.4522 103.118 30.3567C104.007 31.2611 104.451 32.3884 104.451 33.7385V62.3948C104.451 63.745 104.007 64.8722 103.118 65.7767C102.228 66.6811 101.12 67.1333 99.7932 67.1333H57.2068ZM57.2068 64.1999H99.7932C100.237 64.1999 100.643 64.0119 101.013 63.6359C101.383 63.2598 101.568 62.8461 101.568 62.3948V33.7385C101.568 33.2872 101.383 32.8735 101.013 32.4975C100.643 32.1214 100.237 31.9333 99.7932 31.9333H57.2068C56.7632 31.9333 56.3565 32.1214 55.9868 32.4975C55.6172 32.8735 55.4323 33.2872 55.4323 33.7385V62.3948C55.4323 62.8461 55.6172 63.2598 55.9868 63.6359C56.3565 64.0119 56.7632 64.1999 57.2068 64.1999Z" fill="#87CAD7"/>
<rect x="57" y="32" width="49" height="33" fill="white"/>
<path d="M52.3333 73C51.597 73 51 72.403 51 71.6667C51 70.783 51.7163 70.0667 52.6 70.0667H108.533C109.343 70.0667 110 70.7233 110 71.5333C110 72.3434 109.343 73 108.533 73H52.3333ZM59.2068 67.1333C57.8796 67.1333 56.7716 66.6811 55.8825 65.7767C54.9934 64.8722 54.5489 63.745 54.5489 62.3948V33.7385C54.5489 32.3884 54.9934 31.2611 55.8825 30.3567C56.7716 29.4522 57.8796 29 59.2068 29H101.793C103.12 29 104.228 29.4522 105.118 30.3567C106.007 31.2611 106.451 32.3884 106.451 33.7385V62.3948C106.451 63.745 106.007 64.8722 105.118 65.7767C104.228 66.6811 103.12 67.1333 101.793 67.1333H59.2068ZM59.2068 64.1999H101.793C102.237 64.1999 102.643 64.0119 103.013 63.6359C103.383 63.2598 103.568 62.8461 103.568 62.3948V33.7385C103.568 33.2872 103.383 32.8735 103.013 32.4975C102.643 32.1214 102.237 31.9333 101.793 31.9333H59.2068C58.7632 31.9333 58.3565 32.1214 57.9868 32.4975C57.6172 32.8735 57.4323 33.2872 57.4323 33.7385V62.3948C57.4323 62.8461 57.6172 63.2598 57.9868 63.6359C58.3565 64.0119 58.7632 64.1999 59.2068 64.1999Z" fill="#2F8697"/>
<path d="M90 49.622L87.4413 41.9005H89.8073C89.9032 41.9005 89.9781 41.8188 89.9664 41.7238C89.8782 41.0049 89.2643 40.4502 88.5202 40.4502H86.957L86.941 40.4023L86.9257 40.4502H85.4298C84.6251 40.4502 83.3203 39 82.5156 39H79.4521C78.6474 39 77.3426 40.4502 76.5379 40.4502H74.9442L74.9282 40.4023L74.9129 40.4502H73.4818C72.7376 40.4502 72.1238 41.0049 72.0356 41.7238C72.0239 41.8188 72.0988 41.9005 72.1947 41.9005H74.4495L72 49.628L72.0103 49.6513C72.0296 50.4635 73.3579 51.1291 74.9946 51.1291C76.6357 51.1291 77.9669 50.475 77.9791 49.6598L77.9872 49.6196L75.4286 41.9005H80.1453V55.6305C77.6666 55.7188 75.5096 56.1682 75.0935 56.8196C75.0265 56.9244 75.1336 57 75.2583 57H86.7439C86.8685 57 86.8892 56.9244 86.8222 56.8196C86.4059 56.1682 84.5045 55.7188 81.6838 55.6305V41.9005H86.4623L84.0128 49.628L84.0232 49.6513C84.0424 50.4635 85.3707 51.1291 87.0074 51.1291C88.6485 51.1291 89.9797 50.455 89.992 49.6398L90 49.622ZM73.0128 49.5782L74.9486 43.5031L76.9721 49.5782H73.0128ZM85.0255 49.5782L86.9612 43.5031L88.9847 49.5782H85.0255Z" fill="#46A9BB"/>
<mask id="mask0_4244_2111" style="mask-type:alpha" maskUnits="userSpaceOnUse" x="0" y="0" width="240" height="154">
<rect width="240" height="154" rx="20" fill="#71C0CF" fill-opacity="0.14"/>
</mask>
<g mask="url(#mask0_4244_2111)">
<path d="M247 84.2699L222.124 9.19905H245.126C246.058 9.19905 246.787 8.40533 246.673 7.4814C245.816 0.49218 239.848 -4.90047 232.613 -4.90047H217.415L217.26 -5.36658L217.111 -4.90047H202.568C194.744 -4.90047 182.059 -19 174.235 -19H144.451C136.627 -19 123.942 -4.90047 116.118 -4.90047H100.624L100.469 -5.36658L100.32 -4.90047H86.4061C79.1715 -4.90047 73.2033 0.49218 72.3457 7.4814C72.2327 8.40533 72.9606 9.19905 73.893 9.19905H95.8146L72 84.328L72.1006 84.5544C72.2875 92.4509 85.202 98.9218 101.114 98.9218C117.069 98.9218 130.012 92.5629 130.131 84.6365L130.209 84.2458L105.334 9.19905H151.19V142.686C127.092 143.543 106.121 147.914 102.075 154.246C101.424 155.265 102.466 156 103.678 156H215.343C216.555 156 216.756 155.265 216.104 154.246C212.057 147.914 193.571 143.543 166.148 142.686V9.19905H212.606L188.791 84.328L188.892 84.5544C189.079 92.4509 201.993 98.9218 217.905 98.9218C233.86 98.9218 246.803 92.368 246.922 84.4424L247 84.2699ZM81.8465 83.8436L100.667 24.7799L120.34 83.8436H81.8465ZM198.637 83.8436L217.456 24.7799L237.129 83.8436H198.637Z" fill="#46A9BB" fill-opacity="0.3"/>
</g>
<path d="M25.672 120.763H21.0104L19.7828 124.294H18L22.4571 112H24.2838L28.7409 124.309H26.9288L25.6867 120.777L25.672 120.763ZM23.3485 113.686C23.3485 113.686 23.0709 114.805 22.8517 115.43L21.4634 119.339H25.219L23.8454 115.43C23.6408 114.805 23.3777 113.686 23.3777 113.686H23.3485Z" fill="#206674"/>
<path d="M30.3045 122.027C30.3045 122.027 31.2982 123.059 32.8472 123.059C33.5779 123.059 34.3232 122.681 34.3232 121.955C34.3232 120.327 29.7638 120.661 29.7638 117.784C29.7638 116.185 31.1959 115.27 32.9641 115.27C34.9077 115.27 35.8138 116.243 35.8138 116.243L35.1269 117.522C35.1269 117.522 34.3378 116.738 32.9349 116.738C32.2042 116.738 31.4736 117.057 31.4736 117.813C31.4736 119.397 36.033 119.048 36.033 121.94C36.033 123.408 34.7762 124.498 32.8326 124.498C30.6552 124.498 29.4715 123.204 29.4715 123.204L30.2899 121.998L30.3045 122.027Z" fill="#206674"/>
<path d="M41.8783 115.27C44.3918 115.27 45.7217 117.115 45.7217 119.397C45.7217 119.629 45.6632 120.124 45.6632 120.124H39.1895C39.2771 122.056 40.6654 123.03 42.2437 123.03C43.8219 123.03 44.8741 121.998 44.8741 121.998L45.5755 123.233C45.5755 123.233 44.2603 124.483 42.1414 124.483C39.3502 124.483 37.4505 122.478 37.4505 119.862C37.4505 117.057 39.3648 115.241 41.8783 115.241V115.27ZM43.9827 118.874C43.9242 117.362 42.989 116.621 41.8491 116.621C40.5485 116.621 39.4963 117.421 39.2625 118.874H43.9973H43.9827Z" fill="#206674"/>
<path d="M47.8991 122.027C47.8991 122.027 48.8928 123.059 50.4418 123.059C51.1725 123.059 51.9178 122.681 51.9178 121.955C51.9178 120.327 47.3584 120.661 47.3584 117.784C47.3584 116.185 48.7905 115.27 50.5587 115.27C52.5023 115.27 53.4083 116.243 53.4083 116.243L52.7215 117.522C52.7215 117.522 51.9324 116.738 50.5295 116.738C49.7988 116.738 49.0681 117.057 49.0681 117.813C49.0681 119.397 53.6275 119.048 53.6275 121.94C53.6275 123.408 52.3708 124.498 50.4272 124.498C48.2498 124.498 47.0661 123.204 47.0661 123.204L47.8845 121.998L47.8991 122.027Z" fill="#206674"/>
<path d="M59.7798 115.27C62.4248 115.27 64.5584 117.203 64.5584 119.876C64.5584 122.55 62.4248 124.512 59.7798 124.512C57.1348 124.512 55.0012 122.565 55.0012 119.876C55.0012 117.188 57.1348 115.27 59.7798 115.27ZM59.7798 123.045C61.4603 123.045 62.834 121.722 62.834 119.876C62.834 118.031 61.4603 116.738 59.7798 116.738C58.0992 116.738 56.7256 118.045 56.7256 119.876C56.7256 121.708 58.1138 123.045 59.7798 123.045Z" fill="#206674"/>
<path d="M66.5896 115.488H68.241V117.028C68.241 117.391 68.2117 117.697 68.2117 117.697H68.241C68.6501 116.403 69.6731 115.401 71.0467 115.401C71.2805 115.401 71.4851 115.43 71.4851 115.43V117.101C71.4851 117.101 71.2513 117.043 70.9883 117.043C69.9069 117.043 68.8986 117.813 68.504 119.121C68.3433 119.629 68.2994 120.167 68.2994 120.705V124.309H66.6042V115.488H66.5896Z" fill="#206674"/>
<path d="M73.1657 115.488H74.8608V124.309H73.1657V115.488ZM74.554 112H76.3806L74.7001 114.209H73.2826L74.5686 112H74.554Z" fill="#206674"/>
<path d="M82.1529 118.801H82.5329V118.641C82.5329 117.188 81.7145 116.708 80.5893 116.708C79.2156 116.708 78.1196 117.566 78.1196 117.566L77.4182 116.331C77.4182 116.331 78.7042 115.284 80.7354 115.284C82.9859 115.284 84.2427 116.505 84.2427 118.728V124.309H82.6644V123.466C82.6644 123.059 82.6936 122.768 82.6936 122.768H82.6644C82.6644 122.768 81.9483 124.512 79.8294 124.512C78.3096 124.512 76.819 123.582 76.819 121.824C76.819 118.917 80.677 118.787 82.1675 118.787L82.1529 118.801ZM80.1947 123.161C81.6269 123.161 82.5621 121.664 82.5621 120.356V120.08H82.1237C80.8377 120.08 78.5288 120.167 78.5288 121.751C78.5288 122.463 79.0841 123.161 80.1947 123.161Z" fill="#206674"/>
<path d="M91.6517 112H93.3907V122.812H98.9291V124.309H91.6517V112Z" fill="#206674"/>
<path d="M104.395 115.27C106.908 115.27 108.238 117.115 108.238 119.397C108.238 119.629 108.179 120.124 108.179 120.124H101.706C101.793 122.056 103.182 123.03 104.76 123.03C106.338 123.03 107.39 121.998 107.39 121.998L108.092 123.233C108.092 123.233 106.777 124.483 104.658 124.483C101.866 124.483 99.9667 122.478 99.9667 119.862C99.9667 117.057 101.881 115.241 104.395 115.241V115.27ZM106.499 118.874C106.44 117.362 105.505 116.621 104.365 116.621C103.065 116.621 102.013 117.421 101.779 118.874H106.514H106.499Z" fill="#206674"/>
<path d="M113.528 126.503C115.077 126.503 116.334 125.82 116.334 124.033V123.393C116.334 123.117 116.348 122.841 116.348 122.841H116.319C115.793 123.713 114.975 124.222 113.689 124.222C111.219 124.222 109.728 122.245 109.728 119.702C109.728 117.159 111.146 115.299 113.601 115.299C115.735 115.299 116.392 116.607 116.392 116.607H116.421C116.421 116.607 116.407 116.49 116.407 116.331V115.517H118.044V123.975C118.044 126.881 115.822 128 113.572 128C112.505 128 111.394 127.709 110.547 127.273L111.102 125.951C111.102 125.951 112.213 126.547 113.543 126.547L113.528 126.503ZM116.378 119.702C116.378 117.406 115.252 116.738 113.879 116.738C112.33 116.738 111.453 117.856 111.453 119.644C111.453 121.431 112.432 122.725 114.025 122.725C115.252 122.725 116.378 121.998 116.378 119.688V119.702Z" fill="#206674"/>
<path d="M125.336 118.801H125.716V118.641C125.716 117.188 124.897 116.708 123.772 116.708C122.398 116.708 121.302 117.566 121.302 117.566L120.601 116.331C120.601 116.331 121.887 115.284 123.918 115.284C126.169 115.284 127.425 116.505 127.425 118.728V124.309H125.847V123.466C125.847 123.059 125.876 122.768 125.876 122.768H125.847C125.847 122.768 125.131 124.512 123.012 124.512C121.492 124.512 120.002 123.582 120.002 121.824C120.002 118.917 123.86 118.787 125.35 118.787L125.336 118.801ZM123.363 123.161C124.795 123.161 125.73 121.664 125.73 120.356V120.08H125.292C124.006 120.08 121.697 120.167 121.697 121.751C121.697 122.463 122.252 123.161 123.363 123.161Z" fill="#206674"/>
<path d="M129.866 112H131.561V121.606C131.561 122.667 131.985 122.856 132.511 122.856C132.672 122.856 132.803 122.841 132.803 122.841V124.338C132.803 124.338 132.54 124.367 132.248 124.367C131.283 124.367 129.866 124.105 129.866 121.896V112Z" fill="#206674"/>
<path d="M139.759 112L142.828 120.69C143.062 121.359 143.296 122.376 143.296 122.376H143.325C143.325 122.376 143.573 121.344 143.792 120.69L146.89 112H148.732L144.172 124.309H142.433L137.859 112H139.759Z" fill="#206674"/>
<path d="M150.178 112H151.903V113.729H150.178V112ZM150.208 115.488H151.903V124.309H150.208V115.488Z" fill="#206674"/>
<path d="M154.562 115.488H156.214V117.028C156.214 117.391 156.185 117.697 156.185 117.697H156.214C156.623 116.403 157.646 115.401 159.02 115.401C159.253 115.401 159.458 115.43 159.458 115.43V117.101C159.458 117.101 159.224 117.043 158.961 117.043C157.88 117.043 156.871 117.813 156.477 119.121C156.316 119.629 156.272 120.167 156.272 120.705V124.309H154.577V115.488H154.562Z" fill="#206674"/>
<path d="M160.364 116.97V115.604H161.577V113.061H163.228V115.604H165.362V116.97H163.228V120.894C163.228 122.652 164.47 122.885 165.128 122.885C165.376 122.885 165.537 122.856 165.537 122.856V124.352C165.537 124.352 165.289 124.381 164.938 124.381C163.798 124.381 161.533 124.033 161.533 121.083V116.97H160.364Z" fill="#206674"/>
<path d="M167.305 115.488H169.001V120.748C169.001 121.969 169.249 122.943 170.666 122.943C172.479 122.943 173.545 121.359 173.545 119.615V115.488H175.24V124.309H173.589V123.146C173.589 122.783 173.618 122.507 173.618 122.507H173.589C173.224 123.379 172.069 124.527 170.33 124.527C168.328 124.527 167.305 123.48 167.305 121.141V115.488Z" fill="#206674"/>
<path d="M182.533 118.801H182.912V118.641C182.912 117.188 182.094 116.708 180.969 116.708C179.595 116.708 178.499 117.566 178.499 117.566L177.798 116.331C177.798 116.331 179.084 115.284 181.115 115.284C183.366 115.284 184.622 116.505 184.622 118.728V124.309H183.044V123.466C183.044 123.059 183.073 122.768 183.073 122.768H183.044C183.044 122.768 182.328 124.512 180.209 124.512C178.689 124.512 177.199 123.582 177.199 121.824C177.199 118.917 181.057 118.787 182.547 118.787L182.533 118.801ZM180.574 123.161C182.006 123.161 182.942 121.664 182.942 120.356V120.08H182.503C181.217 120.08 178.908 120.167 178.908 121.751C178.908 122.463 179.464 123.161 180.574 123.161Z" fill="#206674"/>
<path d="M187.063 112H188.758V121.606C188.758 122.667 189.182 122.856 189.708 122.856C189.868 122.856 190 122.841 190 122.841V124.338C190 124.338 189.737 124.367 189.445 124.367C188.48 124.367 187.063 124.105 187.063 121.896V112Z" fill="#206674"/>
</svg>
