<svg width="241" height="155" viewBox="0 0 241 155" fill="none" xmlns="http://www.w3.org/2000/svg">
<rect x="1" width="240" height="154" rx="20" fill="#0F69B4" fill-opacity="0.16"/>
<g clip-path="url(#clip0_4244_2172)">
<path d="M28.7833 102C31.5207 102 32.9162 103.534 32.9162 103.534L32.1245 104.753C32.1245 104.753 30.8095 103.493 28.837 103.493C26.2875 103.493 24.637 105.466 24.637 107.932C24.637 110.397 26.3278 112.521 28.8504 112.521C30.9973 112.521 32.3526 111.014 32.3526 111.014L33.2114 112.178C33.2114 112.178 31.6549 114.014 28.7967 114.014C25.4019 114 23 111.329 23 107.932C23 104.534 25.4824 102 28.7833 102Z" fill="#173277"/>
<path d="M38.5785 105.288C40.8864 105.288 42.1075 107.027 42.1075 109.178C42.1075 109.397 42.0538 109.863 42.0538 109.863H36.1095C36.19 111.685 37.4647 112.603 38.9139 112.603C40.3631 112.603 41.3292 111.63 41.3292 111.63L41.9733 112.794C41.9733 112.794 40.7657 113.973 38.82 113.973C36.2571 113.973 34.5127 112.082 34.5127 109.616C34.5127 106.973 36.2705 105.26 38.5785 105.26V105.288ZM40.5107 108.671C40.457 107.247 39.5983 106.548 38.5516 106.548C37.3574 106.548 36.3913 107.301 36.1766 108.671H40.5241H40.5107Z" fill="#173277"/>
<path d="M44.0127 105.479H45.529V106.575C45.529 106.904 45.5021 107.178 45.5021 107.178H45.529C45.851 106.452 46.8171 105.274 48.5884 105.274C50.5072 105.274 51.3928 106.342 51.3928 108.466V113.795H49.8363V108.836C49.8363 107.671 49.5947 106.753 48.2932 106.753C46.9916 106.753 46.0523 107.589 45.7168 108.795C45.6229 109.123 45.5826 109.507 45.5826 109.918V113.808H44.0261V105.479H44.0127Z" fill="#173277"/>
<path d="M54.064 106.877H53.0039V105.589H54.1176V103.206H55.6339V105.603H57.593V106.89H55.6339V110.589C55.6339 112.247 56.7745 112.466 57.3783 112.466C57.6064 112.466 57.754 112.438 57.754 112.438V113.849C57.754 113.849 57.5259 113.877 57.2039 113.877C56.1572 113.877 54.0774 113.548 54.0774 110.767V106.89L54.064 106.877Z" fill="#173277"/>
<path d="M59.4844 105.479H61.0006V106.932C61.0006 107.274 60.9738 107.562 60.9738 107.562H61.0006C61.3764 106.342 62.3157 105.397 63.577 105.397C63.7917 105.397 63.9795 105.425 63.9795 105.425V107C63.9795 107 63.7648 106.945 63.5233 106.945C62.5303 106.945 61.6045 107.671 61.2422 108.904C61.0946 109.384 61.0543 109.89 61.0543 110.397V113.795H59.4978V105.479H59.4844Z" fill="#173277"/>
<path d="M69.2804 105.288C71.7091 105.288 73.6682 107.11 73.6682 109.63C73.6682 112.151 71.7091 114 69.2804 114C66.8517 114 64.8926 112.164 64.8926 109.63C64.8926 107.096 66.8517 105.288 69.2804 105.288ZM69.2804 112.616C70.8235 112.616 72.0848 111.37 72.0848 109.63C72.0848 107.89 70.8235 106.671 69.2804 106.671C67.7373 106.671 66.4759 107.904 66.4759 109.63C66.4759 111.356 67.7507 112.616 69.2804 112.616Z" fill="#173277"/>
<path d="M75.6137 111.644C75.6137 111.644 76.5262 112.616 77.9485 112.616C78.6194 112.616 79.3038 112.26 79.3038 111.575C79.3038 110.041 75.1173 110.356 75.1173 107.644C75.1173 106.137 76.4323 105.274 78.0693 105.274C79.8539 105.274 80.6993 106.192 80.6993 106.192L80.0686 107.397C80.0686 107.397 79.344 106.658 78.0559 106.658C77.385 106.658 76.714 106.959 76.714 107.671C76.714 109.164 80.9006 108.836 80.9006 111.562C80.9006 112.945 79.7466 113.973 77.9485 113.973C75.9492 113.973 74.8623 112.753 74.8623 112.753L75.6137 111.616V111.644Z" fill="#173277"/>
<path d="M90.0243 105.288C91.9029 105.288 92.5335 106.603 92.5335 106.603H92.5604C92.5604 106.603 92.5335 106.356 92.5335 106.041V102.192H94.0901V113.795H92.614V113C92.614 112.671 92.6275 112.438 92.6275 112.438H92.6006C92.6006 112.438 91.9431 113.986 89.9304 113.986C87.7298 113.986 86.3477 112.205 86.3477 109.63C86.3477 107.055 87.8774 105.274 90.0377 105.274L90.0243 105.288ZM90.239 112.616C91.4466 112.616 92.5872 111.74 92.5872 109.63C92.5872 108.151 91.8358 106.671 90.2927 106.671C89.0045 106.671 87.9444 107.753 87.9444 109.644C87.9444 111.534 88.8971 112.616 90.239 112.616Z" fill="#173277"/>
<path d="M100.062 105.288C102.37 105.288 103.591 107.027 103.591 109.178C103.591 109.397 103.537 109.863 103.537 109.863H97.5929C97.6734 111.685 98.9481 112.603 100.397 112.603C101.847 112.603 102.813 111.63 102.813 111.63L103.457 112.794C103.457 112.794 102.249 113.973 100.303 113.973C97.7405 113.973 95.9961 112.082 95.9961 109.616C95.9961 106.973 97.7539 105.26 100.062 105.26V105.288ZM101.994 108.671C101.94 107.247 101.082 106.548 100.035 106.548C98.8408 106.548 97.8747 107.301 97.6466 108.671H101.994Z" fill="#173277"/>
<path d="M109.951 102.192H113.722C117.197 102.192 119.478 104.315 119.478 107.973C119.478 111.63 117.197 113.795 113.722 113.795H109.951V102.192ZM113.601 112.384C116.164 112.384 117.828 110.836 117.828 107.986C117.828 105.137 116.137 103.616 113.601 103.616H111.535V112.384H113.601Z" fill="#173277"/>
<path d="M125.046 105.288C127.341 105.288 128.575 107.027 128.575 109.178C128.575 109.397 128.522 109.863 128.522 109.863H122.577C122.658 111.685 123.933 112.603 125.382 112.603C126.831 112.603 127.797 111.63 127.797 111.63L128.441 112.794C128.441 112.794 127.233 113.973 125.288 113.973C122.725 113.973 120.98 112.082 120.98 109.616C120.98 106.973 122.738 105.26 125.06 105.26L125.046 105.288ZM126.978 108.671C126.925 107.247 126.066 106.548 125.019 106.548C123.825 106.548 122.859 107.301 122.644 108.671H126.992H126.978Z" fill="#173277"/>
<path d="M130.575 111.644C130.575 111.644 131.488 112.616 132.91 112.616C133.581 112.616 134.265 112.26 134.265 111.575C134.265 110.041 130.079 110.356 130.079 107.644C130.079 106.137 131.394 105.274 133.018 105.274C134.802 105.274 135.634 106.192 135.634 106.192L135.003 107.397C135.003 107.397 134.279 106.658 132.991 106.658C132.32 106.658 131.649 106.959 131.649 107.671C131.649 109.164 135.835 108.836 135.835 111.562C135.835 112.945 134.681 113.973 132.897 113.973C130.897 113.973 129.811 112.753 129.811 112.753L130.562 111.616L130.575 111.644Z" fill="#173277"/>
<path d="M141.941 108.603H142.29V108.452C142.29 107.082 141.538 106.63 140.505 106.63C139.244 106.63 138.237 107.438 138.237 107.438L137.593 106.274C137.593 106.274 138.774 105.288 140.639 105.288C142.706 105.288 143.86 106.438 143.86 108.534V113.795H142.41V113C142.41 112.616 142.437 112.342 142.437 112.342H142.41C142.41 112.342 141.753 113.986 139.807 113.986C138.412 113.986 137.043 113.11 137.043 111.452C137.043 108.712 140.585 108.589 141.954 108.589L141.941 108.603ZM140.143 112.712C141.458 112.712 142.316 111.301 142.316 110.068V109.808H141.914C140.733 109.808 138.613 109.89 138.613 111.384C138.613 112.055 139.123 112.712 140.143 112.712Z" fill="#173277"/>
<path d="M146.194 105.479H147.711V106.932C147.711 107.274 147.684 107.562 147.684 107.562H147.711C148.086 106.342 149.026 105.397 150.287 105.397C150.502 105.397 150.689 105.425 150.689 105.425V107C150.689 107 150.475 106.945 150.233 106.945C149.24 106.945 148.314 107.671 147.952 108.904C147.805 109.384 147.764 109.89 147.764 110.397V113.795H146.208V105.479H146.194Z" fill="#173277"/>
<path d="M152.232 105.479H153.749V106.932C153.749 107.274 153.722 107.562 153.722 107.562H153.749C154.124 106.342 155.064 105.397 156.325 105.397C156.54 105.397 156.728 105.425 156.728 105.425V107C156.728 107 156.513 106.945 156.271 106.945C155.278 106.945 154.353 107.671 153.99 108.904C153.843 109.384 153.802 109.89 153.802 110.397V113.795H152.246V105.479H152.232Z" fill="#173277"/>
<path d="M162.027 105.288C164.456 105.288 166.415 107.11 166.415 109.63C166.415 112.151 164.456 114 162.027 114C159.599 114 157.64 112.164 157.64 109.63C157.64 107.096 159.599 105.288 162.027 105.288ZM162.027 112.616C163.571 112.616 164.832 111.37 164.832 109.63C164.832 107.89 163.571 106.671 162.027 106.671C160.484 106.671 159.223 107.904 159.223 109.63C159.223 111.356 160.498 112.616 162.027 112.616Z" fill="#173277"/>
<path d="M168.174 102.192H169.73V111.247C169.73 112.247 170.119 112.425 170.603 112.425C170.75 112.425 170.871 112.411 170.871 112.411V113.822C170.871 113.822 170.629 113.849 170.361 113.849C169.475 113.849 168.174 113.603 168.174 111.521V102.192Z" fill="#173277"/>
<path d="M172.44 102.192H173.997V111.247C173.997 112.247 174.386 112.425 174.869 112.425C175.017 112.425 175.138 112.411 175.138 112.411V113.822C175.138 113.822 174.896 113.849 174.628 113.849C173.742 113.849 172.44 113.603 172.44 111.521V102.192Z" fill="#173277"/>
<path d="M180.599 105.288C183.027 105.288 184.987 107.11 184.987 109.63C184.987 112.151 183.027 114 180.599 114C178.17 114 176.211 112.164 176.211 109.63C176.211 107.096 178.17 105.288 180.599 105.288ZM180.599 112.616C182.142 112.616 183.403 111.37 183.403 109.63C183.403 107.89 182.155 106.671 180.599 106.671C179.042 106.671 177.794 107.904 177.794 109.63C177.794 111.356 179.069 112.616 180.599 112.616Z" fill="#173277"/>
</g>
<mask id="mask0_4244_2172" style="mask-type:alpha" maskUnits="userSpaceOnUse" x="0" y="1" width="240" height="154">
<rect y="1" width="240" height="154" rx="20" fill="#0F69B4" fill-opacity="0.16"/>
</mask>
<g mask="url(#mask0_4244_2172)">
<g opacity="0.18">
<path d="M241.86 91.4651C256.861 60.335 239.852 15.6078 179.924 18.5981C179.924 18.5981 125.132 17.1157 118.877 54.6865C112.623 92.2574 134.921 125.739 199.095 120.142C200.951 119.988 202.781 119.733 204.536 119.4C204.536 119.4 204.688 119.4 204.764 119.375C204.866 119.375 204.968 119.349 205.07 119.324C222.689 115.643 235.097 123.03 240.182 128.065C245.318 133.125 242.674 119.119 240.182 108.794C238.479 101.688 239.114 98.4169 241.86 91.4906V91.4651Z" fill="#0F69B4"/>
<path d="M53.839 128.295C53.7373 128.422 53.6611 128.576 53.5848 128.704C53.2288 129.368 53 130.109 53 130.927C53 133.457 54.1696 135.068 56.6867 135.068C57.3732 135.068 58.0088 134.914 58.5936 134.633C76.9508 127.758 91.8246 124.103 99.6302 130.135V130.084C116.818 145.087 140.997 153.981 170.491 155.974C170.847 155.974 171.177 156 171.533 156C179.085 156 185.467 150.454 186 143.17C186.56 135.579 180.559 128.959 172.55 128.422C145.421 126.608 125.513 118.276 113.335 103.708C98.7404 86.2512 98.7658 64.1176 101.334 48.6037C108.351 6.40676 174.737 7.7358 175.398 7.7358H176.568C188.314 7.14795 199.145 7.94026 208.807 10.0616C216.613 11.7996 224.418 7.17351 226.249 -0.238424C228.08 -7.65036 223.223 -15.0878 215.418 -16.8258C203.264 -19.4583 189.865 -20.4807 175.576 -19.7906C171.661 -19.8417 151.651 -19.7139 130.471 -13.401C97.2911 -3.48434 77.3067 16.4768 72.6539 44.361C69.9588 60.6161 70.6707 76.13 74.5608 90.0849H74.5353C74.5353 90.0849 76.8236 100.104 65.5856 113.113C61.2124 118.174 57.958 122.825 54.4238 127.553" fill="#0F69B4"/>
</g>
</g>
<circle cx="52" cy="48" r="35" fill="#0F69B4" fill-opacity="0.2"/>
<circle cx="215.5" cy="113.5" r="12.5" fill="#95BDDE"/>
<path d="M218.588 113.5L214 108.733L214.706 108L220 113.5L214.706 119L214 118.267L218.588 113.5Z" fill="#0F69B4"/>
<mask id="path-26-outside-1_4244_2172" maskUnits="userSpaceOnUse" x="58" y="29" width="44" height="43" fill="black">
<rect fill="white" x="58" y="29" width="44" height="43"/>
<path d="M59.1981 64.5459C59.1741 64.5757 59.1561 64.6114 59.1381 64.6412C59.054 64.796 59 64.9687 59 65.1592C59 65.7486 59.2762 66.1237 59.8705 66.1237C60.0326 66.1237 60.1827 66.088 60.3208 66.0225C64.6554 64.4209 68.1676 63.5695 70.0107 64.9746V64.9627C74.0692 68.4577 79.7786 70.5296 86.7428 70.994C86.8269 70.994 86.9049 71 86.989 71C88.7721 71 90.279 69.708 90.4051 68.0111C90.5372 66.2428 89.1203 64.7007 87.2291 64.5757C80.8233 64.153 76.1224 62.212 73.2467 58.8182C69.8006 54.7517 69.8066 49.5956 70.4129 45.9815C72.0699 36.1516 87.7455 36.4612 87.9016 36.4612H88.1777C90.9514 36.3242 93.509 36.5088 95.7903 37.003C97.6335 37.4079 99.4766 36.3302 99.9088 34.6035C100.341 32.8769 99.1944 31.1443 97.3513 30.7394C94.4815 30.1262 91.3176 29.888 87.9436 30.0488C87.019 30.0369 82.2941 30.0666 77.2931 31.5373C69.4584 33.8474 64.7395 38.4974 63.6408 44.9932C63.0044 48.7799 63.1725 52.3939 64.0911 55.6448H64.0851C64.0851 55.6448 64.6254 57.9787 61.9718 61.0093C60.9392 62.1882 60.1707 63.2718 59.3362 64.3733"/>
</mask>
<path d="M59.1981 64.5459C59.1741 64.5757 59.1561 64.6114 59.1381 64.6412C59.054 64.796 59 64.9687 59 65.1592C59 65.7486 59.2762 66.1237 59.8705 66.1237C60.0326 66.1237 60.1827 66.088 60.3208 66.0225C64.6554 64.4209 68.1676 63.5695 70.0107 64.9746V64.9627C74.0692 68.4577 79.7786 70.5296 86.7428 70.994C86.8269 70.994 86.9049 71 86.989 71C88.7721 71 90.279 69.708 90.4051 68.0111C90.5372 66.2428 89.1203 64.7007 87.2291 64.5757C80.8233 64.153 76.1224 62.212 73.2467 58.8182C69.8006 54.7517 69.8066 49.5956 70.4129 45.9815C72.0699 36.1516 87.7455 36.4612 87.9016 36.4612H88.1777C90.9514 36.3242 93.509 36.5088 95.7903 37.003C97.6335 37.4079 99.4766 36.3302 99.9088 34.6035C100.341 32.8769 99.1944 31.1443 97.3513 30.7394C94.4815 30.1262 91.3176 29.888 87.9436 30.0488C87.019 30.0369 82.2941 30.0666 77.2931 31.5373C69.4584 33.8474 64.7395 38.4974 63.6408 44.9932C63.0044 48.7799 63.1725 52.3939 64.0911 55.6448H64.0851C64.0851 55.6448 64.6254 57.9787 61.9718 61.0093C60.9392 62.1882 60.1707 63.2718 59.3362 64.3733" fill="#F5F5F5"/>
<path d="M94.8358 62.968C94.9315 62.968 95.0158 62.9445 95.0281 62.9414L94.7875 61.9708C94.7809 61.9724 94.7784 61.973 94.7766 61.9734C94.7751 61.9738 94.7768 61.9734 94.7804 61.9727C94.787 61.9715 94.8073 61.968 94.8358 61.968V62.968ZM59.1381 64.6412L58.2825 64.1235L58.2704 64.1435L58.2593 64.164L59.1381 64.6412ZM60.3208 66.0225L59.9742 65.0845L59.9325 65.0999L59.8923 65.119L60.3208 66.0225ZM70.0107 64.9746L69.4044 65.7699L71.0107 66.9944V64.9746H70.0107ZM70.0107 64.9627L70.6632 64.2049L69.0107 62.7819V64.9627H70.0107ZM86.7428 70.994L86.6763 71.9918L86.7095 71.994H86.7428V70.994ZM90.4051 68.0111L89.4079 67.9366L89.4078 67.937L90.4051 68.0111ZM87.2291 64.5757L87.2951 63.5779L87.295 63.5779L87.2291 64.5757ZM73.2467 58.8182L74.0096 58.1718L74.0096 58.1717L73.2467 58.8182ZM70.4129 45.9815L69.4268 45.8153L69.4267 45.8161L70.4129 45.9815ZM88.1777 36.4612V37.4612H88.2024L88.227 37.46L88.1777 36.4612ZM95.7903 37.003L96.0049 36.0263L96.002 36.0257L95.7903 37.003ZM97.3513 30.7394L97.5658 29.7627L97.5603 29.7615L97.3513 30.7394ZM87.9436 30.0488L87.9307 31.0487L87.9609 31.0491L87.9912 31.0477L87.9436 30.0488ZM77.2931 31.5373L77.011 30.5779L77.0103 30.5781L77.2931 31.5373ZM63.6408 44.9932L62.6548 44.8264L62.6546 44.8274L63.6408 44.9932ZM64.0911 55.6448V56.6448H65.4128L65.0534 55.3729L64.0911 55.6448ZM64.0851 55.6448V54.6448H62.8271L63.1109 55.8703L64.0851 55.6448ZM61.9718 61.0093L62.724 61.6682L62.7242 61.6681L61.9718 61.0093ZM58.4198 63.9181C58.3644 63.9867 58.326 64.0494 58.3068 64.0817C58.297 64.0981 58.288 64.1139 58.2846 64.1198C58.2795 64.1286 58.2803 64.1271 58.2825 64.1235L59.9937 65.1588C59.9997 65.149 60.0048 65.1401 60.0089 65.1332C60.0128 65.1264 60.0164 65.1201 60.0188 65.1161C60.0215 65.1113 60.0228 65.1091 60.024 65.1069C60.0251 65.1051 60.0253 65.1048 60.0249 65.1054C60.0243 65.1064 60.0199 65.1139 60.0126 65.1248C60.0052 65.1359 59.9931 65.1531 59.9764 65.1738L58.4198 63.9181ZM58.2593 64.164C58.1112 64.4368 58 64.7723 58 65.1592H60C60 65.159 60 65.159 60 65.1588C60.0001 65.1585 60.0002 65.1573 60.0009 65.1548C60.0023 65.1498 60.0063 65.1378 60.0169 65.1183L58.2593 64.164ZM58 65.1592C58 65.593 58.1 66.1007 58.4527 66.5128C58.828 66.9512 59.3526 67.1237 59.8705 67.1237V65.1237C59.8261 65.1237 59.8287 65.1167 59.8594 65.1291C59.8749 65.1354 59.8945 65.1455 59.9157 65.1607C59.937 65.1759 59.9561 65.1936 59.9721 65.2122C60.0048 65.2504 60.0123 65.2781 60.0108 65.273C60.0087 65.2658 60 65.2309 60 65.1592H58ZM59.8705 67.1237C60.1847 67.1237 60.4808 67.0534 60.7493 66.926L59.8923 65.119C59.8868 65.1216 59.8837 65.1224 59.8823 65.1227C59.8809 65.123 59.8775 65.1237 59.8705 65.1237V67.1237ZM60.6674 66.9605C62.822 66.1644 64.7017 65.5825 66.2425 65.3608C67.8118 65.1351 68.8091 65.316 69.4044 65.7699L70.617 64.1794C69.3692 63.2281 67.6888 63.1322 65.9577 63.3812C64.1979 63.6344 62.1543 64.279 59.9742 65.0845L60.6674 66.9605ZM71.0107 64.9746V64.9627H69.0107V64.9746H71.0107ZM69.3581 65.7205C73.6229 69.3931 79.5589 71.5172 86.6763 71.9918L86.8094 69.9963C79.9984 69.5421 74.5154 67.5222 70.6632 64.2049L69.3581 65.7205ZM86.7428 71.994C86.7636 71.994 86.7861 71.9948 86.8292 71.9963C86.8672 71.9977 86.9257 72 86.989 72V70C86.9682 70 86.9457 69.9993 86.9026 69.9977C86.8647 69.9963 86.8061 69.994 86.7428 69.994V71.994ZM86.989 72C89.2353 72 91.2331 70.3622 91.4023 68.0852L89.4078 67.937C89.3249 69.0537 88.3088 70 86.989 70V72ZM91.4023 68.0856C91.5799 65.7072 89.6829 63.7357 87.2951 63.5779L87.1632 65.5735C88.5576 65.6657 89.4944 66.7784 89.4079 67.9366L91.4023 68.0856ZM87.295 63.5779C81.0399 63.1651 76.6454 61.2824 74.0096 58.1718L72.4837 59.4647C75.5994 63.1416 80.6066 65.1408 87.1633 65.5735L87.295 63.5779ZM74.0096 58.1717C70.8475 54.4404 70.8109 49.6532 71.3991 46.147L69.4267 45.8161C68.8023 49.5379 68.7536 55.063 72.4837 59.4647L74.0096 58.1717ZM71.399 46.1478C72.1252 41.8397 75.9307 39.6254 79.9877 38.4987C83.9903 37.387 87.8278 37.4612 87.9016 37.4612V35.4612C87.9066 35.4612 87.9099 35.4612 87.8942 35.4611C87.8838 35.4609 87.8692 35.4608 87.8507 35.4606C87.8137 35.4603 87.762 35.46 87.6966 35.4601C87.5658 35.4602 87.3809 35.4618 87.1492 35.4674C86.6861 35.4785 86.035 35.5057 85.2543 35.5697C83.6971 35.6976 81.6048 35.9738 79.4525 36.5716C75.2184 37.7475 70.3577 40.2934 69.4268 45.8153L71.399 46.1478ZM88.227 37.46C90.9281 37.3266 93.3964 37.5076 95.5786 37.9803L96.002 36.0257C93.6215 35.51 90.9747 35.3219 88.1284 35.4624L88.227 37.46ZM95.5758 37.9797C97.8983 38.4899 100.303 37.1451 100.879 34.8464L98.9388 34.3607C98.6497 35.5152 97.3686 36.3258 96.0049 36.0263L95.5758 37.9797ZM100.879 34.8464C101.462 32.518 99.9025 30.276 97.5658 29.7627L97.1367 31.7162C98.4863 32.0126 99.2204 33.2358 98.9388 34.3607L100.879 34.8464ZM97.5603 29.7615C94.5964 29.1282 91.3454 28.8856 87.896 29.0499L87.9912 31.0477C91.2898 30.8905 94.3667 31.1242 97.1423 31.7174L97.5603 29.7615ZM87.9565 29.0489C86.99 29.0364 82.1509 29.0664 77.011 30.5779L77.5752 32.4966C82.4374 31.0668 87.048 31.0373 87.9307 31.0487L87.9565 29.0489ZM77.0103 30.5781C68.9151 32.965 63.8338 37.8559 62.6548 44.8264L64.6268 45.1599C65.6452 39.139 70.0016 34.7298 77.5759 32.4964L77.0103 30.5781ZM62.6546 44.8274C61.9963 48.7446 62.166 52.5093 63.1288 55.9167L65.0534 55.3729C64.1791 52.2786 64.0125 48.8151 64.627 45.1589L62.6546 44.8274ZM64.0911 54.6448H64.0851V56.6448H64.0911V54.6448ZM64.0851 55.6448C63.1109 55.8703 63.1107 55.8697 63.1106 55.8691C63.1105 55.8689 63.1104 55.8682 63.1103 55.8678C63.1101 55.867 63.1099 55.8663 63.1098 55.8655C63.1094 55.8641 63.1091 55.8627 63.1089 55.8615C63.1083 55.8592 63.1079 55.8573 63.1077 55.856C63.1071 55.8533 63.107 55.8527 63.1073 55.8542C63.1078 55.8572 63.1098 55.8683 63.1124 55.8872C63.1177 55.9251 63.1253 55.9942 63.1286 56.0913C63.1353 56.2853 63.1251 56.5926 63.0438 56.9904C62.8828 57.7783 62.435 58.9623 61.2195 60.3505L62.7242 61.6681C64.1622 60.0257 64.771 58.5275 65.0033 57.3908C65.1187 56.8262 65.1391 56.3606 65.1275 56.0223C65.1216 55.8533 65.1078 55.7163 65.0938 55.6147C65.0868 55.5639 65.0798 55.522 65.0737 55.4893C65.0707 55.4729 65.0679 55.4589 65.0654 55.4472C65.0642 55.4413 65.0631 55.4361 65.0621 55.4314C65.0616 55.4291 65.0611 55.4269 65.0606 55.4249C65.0604 55.4239 65.0602 55.4229 65.0599 55.4219C65.0598 55.4215 65.0597 55.4208 65.0596 55.4206C65.0595 55.4199 65.0593 55.4192 64.0851 55.6448ZM61.2196 60.3504C60.156 61.5645 59.3527 62.6956 58.5391 63.7694L60.1333 64.9771C60.9888 63.848 61.7223 62.8118 62.724 61.6682L61.2196 60.3504ZM87.9016 37.4612H88.1777V35.4612H87.9016V37.4612Z" fill="white" mask="url(#path-26-outside-1_4244_2172)"/>
<path d="M102.861 55.6996C106.186 48.8015 102.416 38.8904 89.1326 39.553C89.1326 39.553 76.988 39.2245 75.6017 47.5499C74.2153 55.8752 79.1577 63.2944 93.3818 62.0541C93.7932 62.0201 94.1989 61.9635 94.5878 61.8899C94.5878 61.8899 94.6216 61.8899 94.6385 61.8842C94.661 61.8842 94.6836 61.8785 94.7061 61.8729C98.6116 61.0573 101.362 62.6941 102.489 63.8098C103.627 64.9312 103.041 61.8276 102.489 59.5395C102.111 57.965 102.252 57.2401 102.861 55.7053V55.6996Z" fill="#0F69B4"/>
<path d="M61.186 63.8608C61.1634 63.8891 61.1465 63.9231 61.1296 63.9514C61.0507 64.0986 61 64.2629 61 64.4441C61 65.0048 61.2592 65.3616 61.8172 65.3616C61.9693 65.3616 62.1102 65.3276 62.2398 65.2653C66.3087 63.7418 69.6055 62.9319 71.3356 64.2685V64.2572C75.1452 67.5817 80.5046 69.5526 87.0418 69.9943C87.1207 69.9943 87.194 70 87.2729 70C88.9466 70 90.3611 68.771 90.4795 67.1569C90.6035 65.4749 89.2735 64.008 87.4983 63.8891C81.4852 63.487 77.0725 61.6407 74.3731 58.4125C71.1383 54.5443 71.144 49.6397 71.7132 46.2019C73.2686 36.8515 87.9829 37.146 88.1295 37.146H88.3887C90.9923 37.0157 93.3931 37.1913 95.5346 37.6614C97.2647 38.0465 98.9948 37.0214 99.4005 35.379C99.8063 33.7366 98.7299 32.0885 96.9998 31.7034C94.306 31.12 91.3361 30.8935 88.1689 31.0464C87.301 31.0351 82.8659 31.0634 78.1715 32.4623C70.8171 34.6597 66.3876 39.0829 65.3563 45.2618C64.7589 48.8638 64.9167 52.3015 65.7789 55.3938H65.7733C65.7733 55.3938 66.2805 57.6139 63.7896 60.4966C62.8203 61.618 62.0989 62.6488 61.3156 63.6965" fill="#0F69B4"/>
<g clip-path="url(#clip1_4244_2172)">
<path d="M26.9608 123.085C28.9771 123.085 29.654 124.395 29.654 124.395H29.6828C29.6828 124.395 29.654 124.149 29.654 123.835V120H31.3247V131.561H29.7404V130.769C29.7404 130.441 29.7548 130.209 29.7548 130.209H29.726C29.726 130.209 29.0203 131.752 26.86 131.752C24.4981 131.752 23.0146 129.991 23.0146 127.411C23.0146 124.832 24.6565 123.071 26.9752 123.071L26.9608 123.085ZM27.1769 130.373C28.473 130.373 29.6972 129.5 29.6972 127.398C29.6972 125.924 28.8907 124.449 27.2345 124.449C25.8519 124.449 24.7141 125.528 24.7141 127.411C24.7141 129.295 25.7366 130.373 27.1769 130.373Z" fill="#173277"/>
<path d="M37.7193 123.085C40.1965 123.085 41.5071 124.818 41.5071 126.961C41.5071 127.179 41.4494 127.643 41.4494 127.643H35.0693C35.1557 129.459 36.5239 130.373 38.0794 130.373C39.6348 130.373 40.6717 129.404 40.6717 129.404L41.363 130.564C41.363 130.564 40.0668 131.738 37.9785 131.738C35.2277 131.738 33.3555 129.854 33.3555 127.398C33.3555 124.763 35.2421 123.057 37.7193 123.057V123.085ZM39.7932 126.456C39.7356 125.036 38.8139 124.34 37.6905 124.34C36.4087 124.34 35.3718 125.091 35.1413 126.456H39.8076H39.7932Z" fill="#173277"/>
<path d="M48.333 120H50.0325L55.462 127.52C55.9085 128.148 56.4846 129.186 56.4846 129.186H56.5134C56.5134 129.186 56.3982 128.148 56.3982 127.52V120H58.112V131.561H56.4414L50.9974 124.067C50.5509 123.426 49.9748 122.375 49.9748 122.375H49.946C49.946 122.375 50.0613 123.412 50.0613 124.067V131.561H48.3474V120H48.333Z" fill="#173277"/>
<path d="M64.8384 123.085C67.3156 123.085 68.6262 124.818 68.6262 126.961C68.6262 127.179 68.5686 127.643 68.5686 127.643H62.1885C62.2749 129.459 63.6431 130.373 65.1985 130.373C66.7539 130.373 67.7909 129.404 67.7909 129.404L68.4822 130.564C68.4822 130.564 67.186 131.738 65.0977 131.738C62.3469 131.738 60.4746 129.854 60.4746 127.398C60.4746 124.763 62.3613 123.057 64.8384 123.057V123.085ZM66.9123 126.456C66.8547 125.036 65.933 124.34 64.8096 124.34C63.5279 124.34 62.4909 125.091 62.2605 126.456H66.9267H66.9123Z" fill="#173277"/>
<path d="M73.8393 133.621C75.3659 133.621 76.6045 132.98 76.6045 131.301V130.701C76.6045 130.441 76.6189 130.182 76.6189 130.182H76.5901C76.0716 131.001 75.2651 131.479 73.9977 131.479C71.5637 131.479 70.0947 129.622 70.0947 127.234C70.0947 124.845 71.4917 123.098 73.9113 123.098C76.014 123.098 76.6621 124.327 76.6621 124.327H76.6909C76.6909 124.327 76.6765 124.217 76.6765 124.067V123.303H78.2895V131.247C78.2895 133.976 76.1004 135.027 73.8825 135.027C72.8311 135.027 71.7366 134.754 70.9012 134.345L71.4485 133.103C71.4485 133.103 72.5431 133.662 73.8537 133.662L73.8393 133.621ZM76.6477 127.234C76.6477 125.077 75.5387 124.449 74.1849 124.449C72.6583 124.449 71.7942 125.5 71.7942 127.179C71.7942 128.858 72.7591 130.073 74.3289 130.073C75.5387 130.073 76.6477 129.39 76.6477 127.22V127.234Z" fill="#173277"/>
<path d="M84.9868 123.085C87.5936 123.085 89.6963 124.9 89.6963 127.411C89.6963 129.923 87.5936 131.765 84.9868 131.765C82.3801 131.765 80.2773 129.936 80.2773 127.411C80.2773 124.886 82.3801 123.085 84.9868 123.085ZM84.9868 130.373C86.6431 130.373 87.9969 129.131 87.9969 127.398C87.9969 125.664 86.6431 124.449 84.9868 124.449C83.3306 124.449 81.9768 125.678 81.9768 127.398C81.9768 129.117 83.345 130.373 84.9868 130.373Z" fill="#173277"/>
<path d="M95.7591 123.085C97.9482 123.085 99.0427 124.299 99.0427 124.299L98.2506 125.419C98.2506 125.419 97.3145 124.463 95.8311 124.463C94.074 124.463 92.7922 125.705 92.7922 127.411C92.7922 129.117 94.074 130.387 95.8887 130.387C97.5161 130.387 98.5819 129.268 98.5819 129.268L99.2588 130.428C99.2588 130.428 98.049 131.752 95.7735 131.752C93.0227 131.752 91.0928 129.895 91.0928 127.411C91.0928 124.927 93.0227 123.071 95.7735 123.071L95.7591 123.085Z" fill="#173277"/>
<path d="M101.132 120H102.831V121.624H101.132V120ZM101.146 123.276H102.817V131.561H101.146V123.276Z" fill="#173277"/>
<path d="M109.528 123.085C112.135 123.085 114.237 124.9 114.237 127.411C114.237 129.923 112.135 131.765 109.528 131.765C106.921 131.765 104.818 129.936 104.818 127.411C104.818 124.886 106.921 123.085 109.528 123.085ZM109.528 130.373C111.184 130.373 112.538 129.131 112.538 127.398C112.538 125.664 111.184 124.449 109.528 124.449C107.872 124.449 106.518 125.678 106.518 127.398C106.518 129.117 107.886 130.373 109.528 130.373Z" fill="#173277"/>
<path d="M116.34 129.418C116.34 129.418 117.32 130.387 118.846 130.387C119.567 130.387 120.301 130.032 120.301 129.349C120.301 127.821 115.808 128.135 115.808 125.432C115.808 123.931 117.219 123.071 118.962 123.071C120.877 123.071 121.77 123.985 121.77 123.985L121.093 125.187C121.093 125.187 120.315 124.45 118.933 124.45C118.213 124.45 117.493 124.75 117.493 125.46C117.493 126.947 121.986 126.62 121.986 129.336C121.986 130.714 120.747 131.738 118.832 131.738C116.686 131.738 115.52 130.523 115.52 130.523L116.326 129.39L116.34 129.418Z" fill="#173277"/>
</g>
<defs>
<clipPath id="clip0_4244_2172">
<rect width="162" height="12" fill="white" transform="translate(23 102)"/>
</clipPath>
<clipPath id="clip1_4244_2172">
<rect width="99" height="15" fill="white" transform="translate(23 120)"/>
</clipPath>
</defs>
</svg>
