<svg width="240" height="155" viewBox="0 0 240 155" fill="none" xmlns="http://www.w3.org/2000/svg">
<rect y="0.443359" width="240" height="154" rx="20" fill="#EDE7F6"/>
<mask id="mask0_2303_413" style="mask-type:alpha" maskUnits="userSpaceOnUse" x="0" y="0" width="240" height="155">
<rect y="0.443359" width="240" height="154" rx="20" fill="#0F69B4" fill-opacity="0.1"/>
</mask>
<g mask="url(#mask0_2303_413)">
<path d="M55.0303 140.443C52.8044 140.443 51 138.639 51 136.413C51 133.742 53.1653 131.577 55.8364 131.577H224.567C227.015 131.577 229 133.562 229 136.01C229 138.458 227.015 140.443 224.567 140.443H55.0303ZM75.7594 122.71C71.7555 122.71 68.4125 121.343 65.7302 118.609C63.0479 115.875 61.7068 112.468 61.7068 108.387V21.7666C61.7068 17.6855 63.0479 14.2781 65.7302 11.5442C68.4125 8.8103 71.7555 7.44336 75.7594 7.44336H204.241C208.244 7.44336 211.588 8.8103 214.27 11.5442C216.952 14.2781 218.293 17.6855 218.293 21.7666V108.387C218.293 112.468 216.952 115.875 214.27 118.609C211.588 121.343 208.244 122.71 204.241 122.71H75.7594ZM75.7594 113.843H204.241C205.579 113.843 206.806 113.275 207.921 112.138C209.036 111.001 209.594 109.751 209.594 108.387V21.7666C209.594 20.4024 209.036 19.152 207.921 18.0153C206.806 16.8784 205.579 16.31 204.241 16.31H75.7594C74.4211 16.31 73.1943 16.8784 72.0789 18.0153C70.9637 19.152 70.4061 20.4024 70.4061 21.7666V108.387C70.4061 109.751 70.9637 111.001 72.0789 112.138C73.1943 113.275 74.4211 113.843 75.7594 113.843Z" fill="#CBBBE5"/>
</g>
<circle cx="213" cy="120.443" r="12" fill="#4208A0" fill-opacity="0.2"/>
<path d="M214.824 120.443L211 116.11L211.588 115.443L216 120.443L211.588 125.443L211 124.777L214.824 120.443Z" fill="#4208A0"/>
<circle cx="55" cy="49.4434" r="35" fill="#4208A0" fill-opacity="0.2"/>
<path d="M49 73.4434V70.51H108V73.4434H49ZM57.2068 67.5767C55.8796 67.5767 54.7716 67.1245 53.8825 66.22C52.9934 65.3156 52.5489 64.1883 52.5489 62.8382V34.1819C52.5489 32.8317 52.9934 31.7045 53.8825 30.8C54.7716 29.8956 55.8796 29.4434 57.2068 29.4434H99.7932C101.12 29.4434 102.228 29.8956 103.118 30.8C104.007 31.7045 104.451 32.8317 104.451 34.1819V62.8382C104.451 64.1883 104.007 65.3156 103.118 66.22C102.228 67.1245 101.12 67.5767 99.7932 67.5767H57.2068ZM57.2068 64.6433H99.7932C100.237 64.6433 100.643 64.4553 101.013 64.0792C101.383 63.7032 101.568 63.2895 101.568 62.8382V34.1819C101.568 33.7306 101.383 33.3169 101.013 32.9408C100.643 32.5647 100.237 32.3767 99.7932 32.3767H57.2068C56.7632 32.3767 56.3565 32.5647 55.9868 32.9408C55.6172 33.3169 55.4323 33.7306 55.4323 34.1819V62.8382C55.4323 63.2895 55.6172 63.7032 55.9868 64.0792C56.3565 64.4553 56.7632 64.6433 57.2068 64.6433Z" fill="#4208A0" fill-opacity="0.4"/>
<rect x="57" y="32.4434" width="49" height="33" fill="white"/>
<path d="M52.3333 73.4434C51.597 73.4434 51 72.8464 51 72.11C51 71.2264 51.7163 70.51 52.6 70.51H108.533C109.343 70.51 110 71.1667 110 71.9767C110 72.7867 109.343 73.4434 108.533 73.4434H52.3333ZM59.2068 67.5767C57.8796 67.5767 56.7716 67.1245 55.8825 66.22C54.9934 65.3156 54.5489 64.1883 54.5489 62.8382V34.1819C54.5489 32.8317 54.9934 31.7045 55.8825 30.8C56.7716 29.8956 57.8796 29.4434 59.2068 29.4434H101.793C103.12 29.4434 104.228 29.8956 105.118 30.8C106.007 31.7045 106.451 32.8317 106.451 34.1819V62.8382C106.451 64.1883 106.007 65.3156 105.118 66.22C104.228 67.1245 103.12 67.5767 101.793 67.5767H59.2068ZM59.2068 64.6433H101.793C102.237 64.6433 102.643 64.4553 103.013 64.0792C103.383 63.7032 103.568 63.2895 103.568 62.8382V34.1819C103.568 33.7306 103.383 33.3169 103.013 32.9408C102.643 32.5647 102.237 32.3767 101.793 32.3767H59.2068C58.7632 32.3767 58.3565 32.5647 57.9868 32.9408C57.6172 33.3169 57.4323 33.7306 57.4323 34.1819V62.8382C57.4323 63.2895 57.6172 63.7032 57.9868 64.0792C58.3565 64.4553 58.7632 64.6433 59.2068 64.6433Z" fill="#4208A0"/>
<g clip-path="url(#clip0_2303_413)">
<path d="M127.104 51.6393L107.938 47.7645L95.2651 53.3033L114.434 57.178L127.104 51.6393Z" fill="white"/>
<path d="M114.434 57.4434C114.416 57.4434 114.4 57.4434 114.382 57.4381L95.2153 53.5634C95.1024 53.5395 95.0183 53.4466 95.0052 53.3298C94.9921 53.2131 95.0577 53.1042 95.1628 53.0591L107.835 47.5204C107.885 47.4991 107.938 47.4938 107.99 47.5045L127.157 51.3792C127.27 51.4031 127.354 51.496 127.367 51.6127C127.38 51.7295 127.315 51.8383 127.21 51.8834L114.537 57.4195C114.503 57.4328 114.469 57.4408 114.432 57.4408L114.434 57.4434ZM96.1422 53.2104L114.403 56.902L126.227 51.7348L107.967 48.0432L96.1422 53.2104Z" fill="#4208A0" fill-opacity="0.8"/>
<path d="M127.104 45.5378L107.938 41.6631L95.2651 47.2018L114.434 51.0739L127.104 45.5378Z" fill="#CBBBE5"/>
<path d="M114.434 51.3393C114.416 51.3393 114.4 51.3394 114.382 51.334L95.2153 47.462C95.1024 47.4381 95.0183 47.3452 95.0052 47.2284C94.9921 47.1116 95.0577 47.0028 95.1628 46.9577L107.835 41.4216C107.885 41.4004 107.938 41.3951 107.99 41.4057L127.157 45.2804C127.27 45.3043 127.354 45.3972 127.367 45.514C127.38 45.6308 127.315 45.7396 127.21 45.7847L114.537 51.3234C114.503 51.3367 114.469 51.3447 114.432 51.3447L114.434 51.3393ZM96.1422 47.1063L114.403 50.7979L126.227 45.6308L107.967 41.9391L96.1422 47.1063Z" fill="#4208A0" fill-opacity="0.8"/>
<path d="M127.104 45.5378C127.104 45.5378 128.517 47.9423 127.104 51.6206L114.432 57.1753C115.845 53.4943 114.432 51.0739 114.432 51.0739L127.104 45.5352V45.5378Z" fill="#A88ED3"/>
<path d="M114.434 57.4434C114.369 57.4434 114.303 57.4168 114.253 57.3691C114.177 57.2947 114.153 57.1806 114.19 57.0824C115.535 53.5792 114.222 51.2332 114.209 51.2119C114.172 51.1456 114.161 51.0686 114.185 50.9943C114.209 50.9227 114.261 50.8643 114.329 50.8324L127.002 45.2937C127.123 45.2406 127.265 45.2857 127.333 45.4025C127.393 45.506 128.796 47.9609 127.351 51.7188C127.325 51.7852 127.275 51.8383 127.21 51.8675L114.537 57.4221C114.503 57.4381 114.469 57.4434 114.432 57.4434H114.434ZM114.792 51.2066C115.101 51.902 115.774 53.8951 114.881 56.6896L126.897 51.4216C127.955 48.5713 127.259 46.5171 126.978 45.8802L114.789 51.2066H114.792Z" fill="#4208A0" fill-opacity="0.8"/>
<path d="M96.1842 53.489V47.3876L114.434 51.0765C114.434 51.0765 115.776 53.5712 114.434 57.1779L96.1842 53.489Z" fill="white"/>
<path d="M114.434 57.4433C114.416 57.4433 114.4 57.4433 114.382 57.438L96.1317 53.7491C96.0083 53.7252 95.9216 53.6164 95.9216 53.489V47.3876C95.9216 47.308 95.9558 47.2337 96.0188 47.1832C96.0792 47.1328 96.1606 47.1116 96.2367 47.1275L114.487 50.8165C114.563 50.8324 114.629 50.8802 114.665 50.9492C114.723 51.0553 116.049 53.5925 114.681 57.2708C114.642 57.377 114.542 57.4433 114.434 57.4433ZM96.4468 53.2714L114.264 56.8727C115.275 53.9508 114.471 51.8037 114.253 51.3101L96.4468 47.7087V53.2687V53.2714Z" fill="#4208A0" fill-opacity="0.8"/>
<path d="M95.8954 42.6849L115.062 38.8102L127.735 44.3489L108.568 48.221L95.8954 42.6849Z" fill="white"/>
<path d="M108.568 48.4864C108.531 48.4864 108.497 48.4785 108.463 48.4652L95.7904 42.9291C95.6854 42.884 95.6223 42.7725 95.6329 42.6584C95.646 42.5416 95.73 42.4487 95.8429 42.4248L115.01 38.5501C115.062 38.5395 115.117 38.5448 115.164 38.566L127.837 44.1048C127.942 44.1499 128.005 44.2614 127.995 44.3755C127.984 44.4896 127.898 44.5851 127.785 44.609L108.618 48.4838C108.602 48.4864 108.584 48.4891 108.566 48.4891L108.568 48.4864ZM96.7699 42.7778L108.597 47.945L126.858 44.2534L115.033 39.0862L96.7699 42.7778Z" fill="#4208A0" fill-opacity="0.8"/>
<path d="M95.8954 36.5835L115.062 32.7087L127.735 38.2475L108.568 42.1196L95.8954 36.5835Z" fill="#CBBBE5"/>
<path d="M108.568 42.385C108.531 42.385 108.497 42.377 108.463 42.3637L95.7904 36.8276C95.6854 36.7825 95.6223 36.6711 95.6329 36.5569C95.646 36.4402 95.73 36.3473 95.8429 36.3234L115.01 32.4487C115.062 32.4381 115.117 32.4434 115.164 32.4646L127.837 38.0033C127.942 38.0485 128.005 38.1599 127.995 38.274C127.984 38.3882 127.898 38.4837 127.785 38.5076L108.618 42.3823C108.602 42.385 108.584 42.3876 108.566 42.3876L108.568 42.385ZM96.7699 36.6764L108.597 41.8436L126.858 38.152L115.033 32.9848L96.7699 36.6764Z" fill="#4208A0" fill-opacity="0.8"/>
<path d="M95.8955 36.5835C95.8955 36.5835 94.4827 38.988 95.8955 42.6663L108.568 48.221C107.155 44.54 108.568 42.1196 108.568 42.1196L95.8955 36.5835Z" fill="#A88ED3"/>
<path d="M108.568 48.4864C108.534 48.4864 108.497 48.4784 108.463 48.4651L95.7905 42.9105C95.7248 42.8813 95.6749 42.8282 95.6513 42.7619C94.2097 39.0039 95.6093 36.549 95.6697 36.4455C95.7379 36.3314 95.8771 36.2836 96.0005 36.3367L108.673 41.8754C108.742 41.9046 108.794 41.9657 108.818 42.0373C108.841 42.109 108.833 42.1886 108.794 42.255C108.781 42.2788 107.468 44.6223 108.812 48.1254C108.852 48.2263 108.826 48.3378 108.749 48.4121C108.7 48.4598 108.634 48.4864 108.568 48.4864ZM96.1003 42.4673L108.117 47.7353C107.224 44.9407 107.896 42.9476 108.208 42.2523L96.0189 36.9259C95.7379 37.5628 95.0421 39.6169 96.1003 42.4673Z" fill="#4208A0" fill-opacity="0.8"/>
<path d="M126.816 44.5346V38.4332L108.566 42.1222C108.566 42.1222 107.224 44.6169 108.566 48.2236L126.816 44.5346Z" fill="white"/>
<path d="M108.568 48.4863C108.461 48.4863 108.361 48.42 108.321 48.3138C106.953 44.6355 108.279 42.0983 108.337 41.9921C108.374 41.9231 108.44 41.8754 108.516 41.8594L126.766 38.1705C126.845 38.1546 126.923 38.1758 126.984 38.2262C127.044 38.2766 127.081 38.3509 127.081 38.4306V44.5319C127.081 44.6593 126.992 44.7681 126.871 44.792L108.621 48.481C108.602 48.4836 108.587 48.4863 108.568 48.4863ZM108.747 42.3557C108.529 42.8494 107.725 44.9937 108.736 47.9184L126.553 44.317V38.757L108.747 42.3557Z" fill="#4208A0" fill-opacity="0.8"/>
</g>
<path d="M19.536 128.443V117.147H23.664C25.728 117.147 27.216 118.539 27.216 120.683C27.216 122.827 25.728 124.267 23.664 124.267H21.12V128.443H19.536ZM21.12 122.891H23.408C24.768 122.891 25.6 122.043 25.6 120.683C25.6 119.323 24.768 118.523 23.424 118.523H21.12V122.891ZM28.3428 124.379C28.3428 121.931 30.2948 120.155 32.7108 120.155C35.1268 120.155 37.0788 121.931 37.0788 124.379C37.0788 126.843 35.1268 128.635 32.7108 128.635C30.2948 128.635 28.3428 126.843 28.3428 124.379ZM29.9268 124.379C29.9268 126.075 31.1908 127.291 32.7108 127.291C34.2468 127.291 35.4948 126.075 35.4948 124.379C35.4948 122.699 34.2468 121.499 32.7108 121.499C31.1908 121.499 29.9268 122.699 29.9268 124.379ZM38.9191 128.443V120.347H40.4231V121.755C40.4231 122.091 40.3911 122.363 40.3911 122.363H40.4231C40.7911 121.179 41.7351 120.251 42.9831 120.251C43.1911 120.251 43.3831 120.283 43.3831 120.283V121.819C43.3831 121.819 43.1751 121.771 42.9351 121.771C41.9431 121.771 41.0311 122.475 40.6631 123.675C40.5191 124.139 40.4711 124.635 40.4711 125.131V128.443H38.9191ZM45.2551 125.483V121.707H44.1991V120.459H45.3031V118.123H46.8071V120.459H48.7591V121.707H46.8071V125.307C46.8071 126.923 47.9431 127.131 48.5351 127.131C48.7591 127.131 48.9031 127.099 48.9031 127.099V128.475C48.9031 128.475 48.6791 128.507 48.3591 128.507C47.3191 128.507 45.2551 128.187 45.2551 125.483ZM49.9975 126.171C49.9975 123.499 53.5175 123.387 54.8775 123.387H55.2295V123.243C55.2295 121.915 54.4775 121.467 53.4535 121.467C52.2055 121.467 51.1975 122.251 51.1975 122.251L50.5575 121.115C50.5575 121.115 51.7255 120.155 53.5815 120.155C55.6295 120.155 56.7815 121.275 56.7815 123.323V128.443H55.3415V127.675C55.3415 127.307 55.3735 127.035 55.3735 127.035H55.3415C55.3415 127.035 54.6855 128.635 52.7495 128.635C51.3575 128.635 49.9975 127.787 49.9975 126.171ZM51.5655 126.091C51.5655 126.747 52.0775 127.387 53.0855 127.387C54.3975 127.387 55.2455 126.011 55.2455 124.811V124.555H54.8455C53.6775 124.555 51.5655 124.635 51.5655 126.091ZM59.0106 126.235V117.147H60.5626V125.963C60.5626 126.939 60.9466 127.115 61.4266 127.115C61.5706 127.115 61.6986 127.099 61.6986 127.099V128.475C61.6986 128.475 61.4586 128.507 61.1866 128.507C60.3066 128.507 59.0106 128.267 59.0106 126.235ZM66.9224 124.395C66.9224 121.819 68.4424 120.155 70.5864 120.155C72.4584 120.155 73.0824 121.435 73.0824 121.435H73.1144C73.1144 121.435 73.0824 121.195 73.0824 120.891V117.147H74.6344V128.443H73.1624V127.675C73.1624 127.355 73.1784 127.131 73.1784 127.131H73.1464C73.1464 127.131 72.4904 128.635 70.4904 128.635C68.2984 128.635 66.9224 126.907 66.9224 124.395ZM68.5064 124.395C68.5064 126.155 69.4504 127.291 70.7944 127.291C71.9944 127.291 73.1304 126.443 73.1304 124.379C73.1304 122.939 72.3784 121.499 70.8424 121.499C69.5624 121.499 68.5064 122.555 68.5064 124.395ZM76.4998 124.395C76.4998 121.819 78.2438 120.155 80.5477 120.155C82.8358 120.155 84.0518 121.851 84.0518 123.947C84.0518 124.155 84.0038 124.619 84.0038 124.619H78.0998C78.1798 126.395 79.4438 127.291 80.8838 127.291C82.2758 127.291 83.2838 126.347 83.2838 126.347L83.9237 127.483C83.9237 127.483 82.7238 128.635 80.7878 128.635C78.2438 128.635 76.4998 126.795 76.4998 124.395ZM78.1478 123.451H82.4678C82.4198 122.059 81.5558 121.387 80.5158 121.387C79.3318 121.387 78.3718 122.123 78.1478 123.451ZM89.5961 122.731C89.5961 119.451 92.0601 116.955 95.3401 116.955C98.0601 116.955 99.4521 118.443 99.4521 118.443L98.6681 119.627C98.6681 119.627 97.3561 118.395 95.4041 118.395C92.8761 118.395 91.2281 120.315 91.2281 122.715C91.2281 125.131 92.9081 127.179 95.4201 127.179C97.5481 127.179 98.9081 125.707 98.9081 125.707L99.7561 126.843C99.7561 126.843 98.2041 128.635 95.3721 128.635C91.9801 128.635 89.5961 126.043 89.5961 122.731ZM100.935 126.171C100.935 123.499 104.455 123.387 105.815 123.387H106.167V123.243C106.167 121.915 105.415 121.467 104.391 121.467C103.143 121.467 102.135 122.251 102.135 122.251L101.495 121.115C101.495 121.115 102.663 120.155 104.519 120.155C106.567 120.155 107.719 121.275 107.719 123.323V128.443H106.279V127.675C106.279 127.307 106.311 127.035 106.311 127.035H106.279C106.279 127.035 105.623 128.635 103.687 128.635C102.295 128.635 100.935 127.787 100.935 126.171ZM102.503 126.091C102.503 126.747 103.015 127.387 104.023 127.387C105.335 127.387 106.183 126.011 106.183 124.811V124.555H105.783C104.615 124.555 102.503 124.635 102.503 126.091ZM110.044 131.643V120.347H111.468V121.035C111.468 121.355 111.436 121.627 111.436 121.627H111.468C111.468 121.627 112.156 120.155 114.188 120.155C116.364 120.155 117.74 121.883 117.74 124.395C117.74 126.971 116.188 128.635 114.076 128.635C112.3 128.635 111.596 127.307 111.596 127.307H111.564C111.564 127.307 111.596 127.595 111.596 128.011V131.643H110.044ZM111.548 124.427C111.548 125.867 112.348 127.307 113.836 127.307C115.116 127.307 116.172 126.251 116.172 124.411C116.172 122.651 115.228 121.515 113.884 121.515C112.668 121.515 111.548 122.363 111.548 124.427ZM118.982 126.171C118.982 123.499 122.502 123.387 123.862 123.387H124.214V123.243C124.214 121.915 123.462 121.467 122.438 121.467C121.19 121.467 120.182 122.251 120.182 122.251L119.542 121.115C119.542 121.115 120.71 120.155 122.566 120.155C124.614 120.155 125.766 121.275 125.766 123.323V128.443H124.326V127.675C124.326 127.307 124.358 127.035 124.358 127.035H124.326C124.326 127.035 123.67 128.635 121.734 128.635C120.342 128.635 118.982 127.787 118.982 126.171ZM120.55 126.091C120.55 126.747 121.062 127.387 122.07 127.387C123.382 127.387 124.23 126.011 124.23 124.811V124.555H123.83C122.662 124.555 120.55 124.635 120.55 126.091ZM127.515 124.395C127.515 121.995 129.307 120.155 131.851 120.155C133.883 120.155 134.891 121.339 134.891 121.339L134.155 122.427C134.155 122.427 133.291 121.499 131.915 121.499C130.283 121.499 129.099 122.715 129.099 124.379C129.099 126.027 130.283 127.291 131.963 127.291C133.467 127.291 134.459 126.203 134.459 126.203L135.083 127.339C135.083 127.339 133.963 128.635 131.851 128.635C129.307 128.635 127.515 126.827 127.515 124.395ZM136.825 118.731V117.147H138.393V118.731H136.825ZM136.841 128.443V120.347H138.393V128.443H136.841ZM141.161 125.483V121.707H140.105V120.459H141.209V118.123H142.713V120.459H144.665V121.707H142.713V125.307C142.713 126.923 143.849 127.131 144.441 127.131C144.665 127.131 144.809 127.099 144.809 127.099V128.475C144.809 128.475 144.585 128.507 144.265 128.507C143.225 128.507 141.161 128.187 141.161 125.483ZM145.904 126.171C145.904 123.499 149.424 123.387 150.784 123.387H151.136V123.243C151.136 121.915 150.384 121.467 149.36 121.467C148.112 121.467 147.104 122.251 147.104 122.251L146.464 121.115C146.464 121.115 147.632 120.155 149.488 120.155C151.536 120.155 152.688 121.275 152.688 123.323V128.443H151.248V127.675C151.248 127.307 151.28 127.035 151.28 127.035H151.248C151.248 127.035 150.592 128.635 148.656 128.635C147.264 128.635 145.904 127.787 145.904 126.171ZM147.472 126.091C147.472 126.747 147.984 127.387 148.992 127.387C150.304 127.387 151.152 126.011 151.152 124.811V124.555H150.752C149.584 124.555 147.472 124.635 147.472 126.091ZM154.437 124.395C154.437 121.995 156.229 120.155 158.773 120.155C160.805 120.155 161.813 121.339 161.813 121.339L161.077 122.427C161.077 122.427 160.213 121.499 158.837 121.499C157.205 121.499 156.021 122.715 156.021 124.379C156.021 126.027 157.205 127.291 158.885 127.291C160.389 127.291 161.381 126.203 161.381 126.203L162.005 127.339C162.005 127.339 160.885 128.635 158.773 128.635C156.229 128.635 154.437 126.827 154.437 124.395ZM163.747 118.731V117.147H165.315V118.731H163.747ZM163.763 128.443V120.347H165.315V128.443H163.763ZM167.155 124.379C167.155 121.931 169.107 120.155 171.523 120.155C173.939 120.155 175.891 121.931 175.891 124.379C175.891 126.843 173.939 128.635 171.523 128.635C169.107 128.635 167.155 126.843 167.155 124.379ZM168.739 124.379C168.739 126.075 170.003 127.291 171.523 127.291C173.059 127.291 174.307 126.075 174.307 124.379C174.307 122.699 173.059 121.499 171.523 121.499C170.003 121.499 168.739 122.699 168.739 124.379ZM170.835 119.179L172.003 117.147H173.667L172.131 119.179H170.835ZM177.732 128.443V120.347H179.236V121.419C179.236 121.739 179.204 122.011 179.204 122.011H179.236C179.556 121.307 180.516 120.155 182.276 120.155C184.18 120.155 185.06 121.195 185.06 123.259V128.443H183.508V123.611C183.508 122.475 183.268 121.579 181.972 121.579C180.74 121.579 179.748 122.395 179.412 123.563C179.316 123.883 179.284 124.251 179.284 124.651V128.443H177.732Z" fill="#4208A0" fill-opacity="0.9"/>
<defs>
<clipPath id="clip0_2303_413">
<rect width="33" height="25" fill="white" transform="translate(95 32.4434)"/>
</clipPath>
</defs>
</svg>
