<?xml version="1.0" encoding="UTF-8"?>
<svg id="Capa_1" data-name="Capa 1" xmlns="http://www.w3.org/2000/svg" version="1.1" xmlns:xlink="http://www.w3.org/1999/xlink" viewBox="0 0 240 155.2">
  <defs>
    <style>
      .cls-1 {
        opacity: .5;
      }

      .cls-2 {
        fill: #f7de7a;
        fill-opacity: .7;
      }

      .cls-2, .cls-3, .cls-4, .cls-5, .cls-6, .cls-7, .cls-8, .cls-9 {
        stroke-width: 0px;
      }

      .cls-3, .cls-10 {
        fill: #ffa018;
      }

      .cls-4 {
        fill: none;
      }

      .cls-5 {
        fill: #f9df7d;
      }

      .cls-11 {
        clip-path: url(#clippath-1);
      }

      .cls-12 {
        clip-path: url(#clippath);
      }

      .cls-6 {
        fill-opacity: .1;
      }

      .cls-6, .cls-8 {
        fill: #ffc805;
      }

      .cls-7 {
        fill: #fff;
      }

      .cls-13 {
        mask: url(#mask);
      }

      .cls-10 {
        stroke: #ffa018;
        stroke-miterlimit: 10;
      }

      .cls-8 {
        fill-opacity: .1;
      }

      .cls-9 {
        fill: #d27200;
      }
    </style>
    <clipPath id="clippath">
      <polygon class="cls-4" points="78 58 192.5 -16.6 273.7 93.7 159.2 168.3 78 58"/>
    </clipPath>
    <mask id="mask" x="0" y="-16.6" width="273.7" height="184.9" maskUnits="userSpaceOnUse">
      <g id="mask0_4253_2154" data-name="mask0 4253 2154">
        <g class="cls-12">
          <g class="cls-1">
            <path class="cls-3" d="M168.3,9.3c-8.2,1.1-16.1,3.5-23.4,7.2-34.4,17.4-47.2,58-28.6,90.6,5.6,9.7,13.7,18.1,23.5,24.2.9.6,2,.6,3,.1.4-.2.8-.5,1-.9.4-.6.6-1.3.4-2-.2-.7-.6-1.3-1.2-1.7-9-5.6-16.4-13.3-21.5-22.2-17.1-29.9-5.4-67.2,26.3-83.2,6.7-3.4,14-5.6,21.5-6.6,1.5-.2,2.7-1.6,2.4-3.1-.1-.7-.5-1.4-1.1-1.8-.6-.4-1.4-.6-2.1-.5Z"/>
            <path class="cls-3" d="M143.8,132.3c-.1,0-.3.2-.4.2-1.4.7-3,.6-4.4-.2-9.9-6.2-18.2-14.7-23.9-24.7-19-33.2-5.9-74.6,29.1-92.3,7.5-3.8,15.5-6.3,23.9-7.4,1.1-.1,2.2.1,3.2.8.9.6,1.5,1.6,1.7,2.6.3,2.2-1.3,4.2-3.6,4.5-7.4,1-14.5,3.2-21.1,6.5-15,7.6-25.9,20.2-30.7,35.6s-3.1,31.7,5,45.8c5,8.8,12.3,16.3,21.1,21.7.9.6,1.6,1.5,1.8,2.5.2,1.1,0,2.1-.6,3-.3.4-.7.8-1.1,1.1h0ZM138.9,21.5c-28.7,18.7-38.4,55.3-21.3,85,5.5,9.6,13.4,17.8,23,23.7.5.3,1.1.3,1.6,0,.2-.1.4-.3.6-.5.2-.3.3-.7.2-1.1,0-.4-.3-.7-.7-.9-9.1-5.7-16.8-13.5-22-22.7-8.5-14.8-10.3-31.7-5.3-47.8,5.1-16.1,16.5-29.2,32.1-37.1,6.9-3.5,14.3-5.8,22-6.8.8-.1,1.4-.9,1.3-1.6,0-.4-.3-.7-.6-1-.3-.2-.7-.3-1.1-.3-8,1.1-15.8,3.5-23,7.1-2.3,1.2-4.6,2.5-6.7,3.8h0Z"/>
            <path class="cls-3" d="M199.5,134c-11.1,3.4-23,4-34.5,1.6-1.5-.3-3.1.7-3.4,2.1-.2.7,0,1.4.4,2.1.4.6,1.1,1,1.8,1.2,12.5,2.6,25.5,2,37.6-1.7.2,0,.3-.1.5-.2,1.2-.6,1.8-2,1.4-3.3-.5-1.4-2.2-2.2-3.7-1.7Z"/>
            <path class="cls-3" d="M202.9,139.9c-.1,0-.3.2-.4.2-.2.1-.4.2-.7.3-12.3,3.8-25.5,4.4-38.3,1.7-1.1-.2-2.1-.9-2.7-1.8-.6-.9-.8-2-.6-3,.2-1,.9-1.9,1.9-2.5,1-.6,2.1-.8,3.2-.5,11.3,2.4,22.9,1.8,33.8-1.5,2.2-.7,4.6.5,5.4,2.6.6,1.7,0,3.6-1.6,4.6h0ZM163.5,137.1c-.3.2-.6.5-.6.8,0,.4,0,.8.2,1.1.2.3.6.5,1,.6,12.3,2.6,25,2,36.9-1.7,0,0,.2,0,.2,0,.7-.3,1-1.1.7-1.7-.3-.8-1.1-1.2-1.9-.9-11.3,3.5-23.5,4.1-35.2,1.6-.4,0-.8,0-1.1.2,0,0,0,0,0,0h0Z"/>
            <path class="cls-3" d="M217.3,19.6c-8.2-5-17.2-8.4-26.9-10-1.5-.3-3.1.8-3.3,2.2-.1.7,0,1.4.5,2,.4.6,1.1,1,1.9,1.1,8.9,1.5,17.2,4.5,24.7,9.2.9.5,2,.6,2.9.1.4-.2.8-.5,1.1-.9.9-1.3.5-3-.9-3.8h0Z"/>
            <path class="cls-3" d="M218.1,25.2c-.1,0-.3.2-.4.2-1.4.7-3,.6-4.3-.2-7.4-4.5-15.5-7.5-24.2-9-1.1-.2-2.1-.8-2.8-1.6-.7-.9-.9-1.9-.7-3,.2-1,.8-2,1.7-2.6,0,0,0,0,0,0,.9-.6,2.1-.8,3.1-.7,9.8,1.6,19,5,27.4,10.2,2,1.2,2.5,3.7,1.3,5.5-.3.4-.7.8-1.1,1.1h0ZM189.1,11.2s0,0,0,0c-.3.2-.6.6-.6.9,0,.4,0,.8.3,1.1.2.3.6.5,1,.6,9,1.5,17.5,4.6,25.2,9.4.5.3,1.1.3,1.6,0,.2-.1.4-.3.6-.5.5-.7.2-1.6-.5-2-8-4.9-16.9-8.2-26.4-9.8-.4,0-.8,0-1.1.3h0Z"/>
            <path class="cls-3" d="M180.8,127.9c-.4.2-.9.3-1.4.3-18.6,0-35.9-8.7-46.2-23.3-1-1.4-1.9-2.8-2.7-4.2-.8-1.3-.2-3,1.2-3.7,1.4-.7,3.2-.2,4,1.1.7,1.3,1.5,2.5,2.4,3.8,9.2,13,24.6,20.8,41.3,20.8,1.6,0,2.9,1.2,2.9,2.8,0,1.1-.6,2-1.5,2.4ZM213.8,41c-1,.5-2.3.4-3.3-.3-7-5.5-15.4-9-24.4-10.3-10.6-1.5-21.2.2-30.6,4.9-17.2,8.7-27.3,26.2-25.6,44.7.1,1.5-1.1,2.8-2.7,3-1.6.1-3-1-3.2-2.5-1.8-20.6,9.4-40.2,28.7-50,10.5-5.3,22.4-7.2,34.2-5.5,10,1.5,19.5,5.4,27.2,11.6,1.2,1,1.4,2.7.4,3.9-.2.3-.5.5-.9.7Z"/>
            <path class="cls-3" d="M181.9,128.8c-.1,0-.3.2-.4.2-.6.3-1.3.5-2,.5-19.1,0-36.7-9-47.3-23.9-1-1.4-1.9-2.8-2.8-4.3-.5-.9-.7-2-.3-3.1.3-1,1.1-1.9,2.1-2.4,2.1-1,4.7-.3,5.8,1.7.7,1.2,1.5,2.5,2.3,3.7,9,12.7,24,20.2,40.1,20.3,2.4,0,4.3,1.8,4.3,4,0,1.3-.7,2.6-1.8,3.3h0ZM132.3,98.2c-.3.2-.5.5-.6.8-.1.4,0,.8.1,1.1.8,1.4,1.7,2.8,2.6,4.1,10,14.2,26.9,22.7,45,22.7.3,0,.5,0,.7-.2.5-.3.8-.8.8-1.3,0-.8-.7-1.5-1.6-1.5-17.1,0-32.9-8-42.4-21.4-.9-1.3-1.7-2.6-2.5-3.9-.4-.7-1.4-1-2.1-.6,0,0-.1,0-.2,0h0ZM214.9,41.9c-.1,0-.3.2-.4.2-1.5.8-3.4.6-4.8-.5-6.8-5.3-15-8.8-23.7-10.1-10.3-1.5-20.6.2-29.8,4.8-16.7,8.5-26.5,25.5-24.9,43.5.2,2.2-1.6,4.2-3.9,4.3-2.3.2-4.4-1.5-4.6-3.7-1.9-21.1,9.6-41.2,29.4-51.2,10.8-5.4,22.9-7.4,35.1-5.6,10.3,1.5,19.9,5.6,27.9,11.9,1.8,1.4,2.1,4,.6,5.7-.2.3-.5.5-.9.7h0ZM213.2,39.8c.2,0,.3-.2.5-.4.5-.6.5-1.6-.2-2.1-7.6-6-16.8-9.9-26.6-11.3-11.6-1.7-23.1.2-33.4,5.4-18.8,9.5-29.8,28.6-28,48.7,0,.8.8,1.4,1.7,1.4.9,0,1.5-.8,1.4-1.6-1.7-19,8.6-37,26.3-45.9,9.7-4.9,20.6-6.6,31.4-5.1,9.2,1.3,17.9,5,25,10.6.5.4,1.2.5,1.7.2h0Z"/>
            <path class="cls-3" d="M195.6,105.8c-17.5,8.8-39.5,2.6-49-14-9.5-16.6-3-37.2,14.5-46.1,8.6-4.3,18.5-5.2,27.8-2.4,1.6.5,2.4,2,2,3.5-.5,1.5-2.1,2.3-3.7,1.8-7.8-2.3-16.1-1.6-23.3,2-14.7,7.4-20.1,24.7-12.2,38.5,7.9,13.9,26.3,19.1,41,11.7,1.4-.7,3.2-.2,4,1.1.8,1.4.2,3-1.2,3.8Z"/>
            <path class="cls-3" d="M196.6,106.7c-.1,0-.3.2-.4.2-18.2,9.2-41,2.7-50.8-14.5-4.8-8.3-5.8-17.9-3-26.9,2.9-9,9.3-16.5,18.1-20.9,8.9-4.5,19.2-5.4,28.9-2.5,1.1.3,2,1,2.5,2s.7,2.1.3,3.1c-.3,1-1.1,1.9-2.1,2.4-1,.5-2.2.6-3.3.3-7.5-2.2-15.4-1.5-22.2,1.9-14,7.1-19.2,23.6-11.6,36.8,7.6,13.2,25.1,18.3,39.1,11.2,2.1-1.1,4.7-.3,5.8,1.7.5,1,.7,2.1.3,3.1-.3.9-.9,1.6-1.7,2.2h0ZM158.4,48.8c-6.4,4.2-11.1,10.3-13.4,17.5-2.6,8.4-1.7,17.3,2.7,25,9.1,15.9,30.3,22,47.1,13.5.4-.2.6-.5.8-.9.1-.4,0-.8-.1-1.1-.4-.7-1.4-1-2.2-.6-15.3,7.7-34.5,2.2-42.8-12.2-8.3-14.5-2.6-32.5,12.7-40.3,7.5-3.8,16.1-4.5,24.3-2.1.4.1.8,0,1.2-.1.4-.2.7-.5.8-.9.1-.4,0-.8-.1-1.1-.2-.4-.5-.6-.9-.7-9-2.7-18.5-1.8-26.8,2.3-1.2.6-2.3,1.2-3.4,1.9h0Z"/>
            <path class="cls-3" d="M193.6,123.5c.7,1.3.2,2.9-1.1,3.6-1.4.7-3.1.2-3.8-1.1-.7-1.3-.2-2.9,1.1-3.6,1.4-.7,3.1-.2,3.8,1.1h0Z"/>
            <path class="cls-3" d="M193.5,128c-.1,0-.3.2-.4.2-1,.5-2.1.6-3.2.3-1.1-.3-2-1-2.5-1.9-.5-.9-.7-2-.3-3,.3-1,1-1.8,2-2.3,2-1,4.6-.3,5.7,1.6.5.9.7,2,.3,3-.3.9-.8,1.6-1.6,2.1h0ZM190.2,123.6c-.3.2-.5.4-.6.7-.1.4,0,.7.1,1.1.2.3.5.6.9.7.4.1.8,0,1.1-.1.3-.2.6-.5.7-.8.1-.4,0-.7-.1-1.1-.4-.7-1.3-.9-2-.6,0,0,0,0-.1,0h0Z"/>
            <path class="cls-3" d="M183.8,9.2c.7,1.3.2,2.8-1.1,3.5-1.3.7-3,.2-3.7-1.1-.7-1.3-.2-2.8,1.1-3.5,1.3-.7,3-.2,3.7,1.1h0Z"/>
            <path class="cls-3" d="M183.8,13.6c-.1,0-.3.2-.4.2-2,1-4.5.3-5.5-1.6-1.1-1.9-.3-4.2,1.6-5.2,2-1,4.5-.3,5.5,1.6,1,1.7.4,3.9-1.3,5ZM180.6,9.4c-.6.4-.8,1.1-.4,1.7.4.6,1.2.9,1.9.5.7-.3.9-1.1.6-1.7s-1.2-.9-1.9-.5c0,0,0,0-.1,0h0Z"/>
            <path class="cls-3" d="M156.8,134.5c.7,1.3.2,2.8-1.1,3.5-1.3.7-3,.2-3.7-1.1-.7-1.3-.2-2.8,1.1-3.5,1.3-.7,3-.2,3.7,1.1Z"/>
            <path class="cls-3" d="M156.7,138.9c-.1,0-.3.2-.4.2-1,.5-2.1.6-3.1.3-1-.3-1.9-1-2.4-1.9-1.1-1.9-.3-4.2,1.6-5.2,2-1,4.5-.3,5.5,1.6.5.9.6,1.9.3,2.9-.3.8-.8,1.6-1.6,2h0ZM153.6,134.6c-.6.4-.8,1.1-.4,1.7.2.3.5.5.8.6.3.1.7,0,1,0,.3-.2.6-.4.7-.8s0-.7-.1-1c-.4-.6-1.2-.9-1.9-.5,0,0,0,0-.1,0h0Z"/>
            <path class="cls-7" d="M183.9,82.4c3.7-2.4,4.6-7.3,2-10.8-2.6-3.5-7.7-4.4-11.5-2-3.7,2.4-4.6,7.3-2,10.8,2.6,3.5,7.7,4.4,11.5,2Z"/>
            <path class="cls-7" d="M201.2,66.8l-38.5-6.6,17.2,35.6,6.6-9,13,7.5,6.5-7.6-11.9-10.2,7.1-9.7Z"/>
            <path class="cls-10" d="M197.5,68.5l-38.5-6.6,17.2,35.6,6.6-9,13,7.5,6.5-7.6-11.9-10.2,7.1-9.7Z"/>
          </g>
        </g>
      </g>
    </mask>
    <clipPath id="clippath-1">
      <rect class="cls-4" x="69.3" y="30.7" width="47.2" height="48.4" transform="translate(-12.4 31.3) rotate(-17.9)"/>
    </clipPath>
  </defs>
  <rect class="cls-6" x="0" y=".6" width="240" height="154" rx="20" ry="20"/>
  <g class="cls-13">
    <rect class="cls-8" y="1.6" width="241" height="153" rx="20" ry="20"/>
  </g>
  <circle class="cls-5" cx="139" cy="119.6" r="12"/>
  <path class="cls-9" d="M140.8,119.6l-3.8-4.3.6-.7,4.4,5-4.4,5-.6-.7,3.8-4.3Z"/>
  <circle class="cls-2" cx="61" cy="51.6" r="35"/>
  <path class="cls-9" d="M28,113.6h3.5c1.2,0,1.7,0,2.2.3,1.2.4,2,1.6,2,3.1s-.8,2.7-2.1,3.1h0s.1.2.3.5l2.5,4.5h-1.8l-2.4-4.6h-2.5v4.6h-1.6v-11.5ZM32,119.1c1.3,0,2.1-.8,2.1-2.1s-.3-1.5-.9-1.8c-.3-.2-.7-.3-1.6-.3h-1.9v4.1h2.3Z"/>
  <path class="cls-9" d="M38.1,116.8h1.6v4.9c0,1.1.2,2.1,1.6,2.1s2.7-1.5,2.7-3.1v-3.9h1.6v8.3h-1.5v-1.1c0-.3,0-.6,0-.6h0c-.3.8-1.4,1.9-3,1.9s-2.8-1-2.8-3.2v-5.3Z"/>
  <path class="cls-9" d="M47.3,118.2v-1.3h1.1v-2.4h1.5v2.4h2v1.3h-2v3.7c0,1.7,1.2,1.9,1.8,1.9s.4,0,.4,0v1.4s-.2,0-.6,0c-1.1,0-3.2-.3-3.2-3.1v-3.9h-1.1Z"/>
  <path class="cls-9" d="M58.2,119.9h.4v-.2c0-1.4-.8-1.8-1.8-1.8s-2.3.8-2.3.8l-.7-1.2s1.2-1,3.1-1,3.3,1.1,3.3,3.2v5.2h-1.5v-.8c0-.4,0-.7,0-.7h0s-.7,1.6-2.7,1.6-2.8-.9-2.8-2.5c0-2.7,3.6-2.9,5-2.9h0ZM56.4,124c1.3,0,2.2-1.4,2.2-2.6v-.3h-.4c-1.2,0-3.4,0-3.4,1.6s.5,1.3,1.6,1.3Z"/>
  <path class="cls-9" d="M67.1,113.6h3.8c3.5,0,5.9,2.1,5.9,5.8s-2.3,5.8-5.9,5.8h-3.8v-11.6ZM70.8,123.7c2.6,0,4.3-1.5,4.3-4.4s-1.7-4.4-4.3-4.4h-2.1v8.7h2.1Z"/>
  <path class="cls-9" d="M78.9,113.6h1.6v1.6h-1.6v-1.6ZM78.9,116.8h1.6v8.3h-1.6v-8.3Z"/>
  <path class="cls-9" d="M86,127.2c1.4,0,2.6-.6,2.6-2.3v-.6c0-.3,0-.5,0-.5h0c-.5.8-1.3,1.3-2.5,1.3-2.3,0-3.7-1.9-3.7-4.2s1.3-4.1,3.6-4.1,2.6,1.2,2.6,1.2h0s0-.1,0-.3v-.8h1.5v7.9c0,2.7-2.1,3.8-4.2,3.8s-2-.3-2.8-.7l.5-1.2s1,.6,2.3.6h0ZM88.7,120.8c0-2.2-1.1-2.8-2.3-2.8s-2.3,1.1-2.3,2.7.9,2.9,2.4,2.9,2.2-.7,2.2-2.9h0Z"/>
  <path class="cls-9" d="M92.7,113.6h1.6v1.6h-1.6v-1.6ZM92.7,116.8h1.6v8.3h-1.6v-8.3Z"/>
  <path class="cls-9" d="M96.1,118.2v-1.3h1.1v-2.4h1.5v2.4h2v1.3h-2v3.7c0,1.7,1.2,1.9,1.8,1.9s.4,0,.4,0v1.4s-.2,0-.6,0c-1.1,0-3.2-.3-3.2-3.1v-3.9h-1.1Z"/>
  <path class="cls-9" d="M107,119.9h.4v-.2c0-1.4-.8-1.8-1.8-1.8s-2.3.8-2.3.8l-.7-1.2s1.2-1,3.1-1,3.3,1.1,3.3,3.2v5.2h-1.5v-.8c0-.4,0-.7,0-.7h0s-.7,1.6-2.7,1.6-2.8-.9-2.8-2.5c0-2.7,3.6-2.9,5-2.9h0ZM105.2,124c1.3,0,2.2-1.4,2.2-2.6v-.3h-.4c-1.2,0-3.4,0-3.4,1.6s.5,1.3,1.6,1.3Z"/>
  <path class="cls-9" d="M111.2,113.6h1.6v9c0,1,.4,1.2.9,1.2s.3,0,.3,0v1.4s-.2,0-.5,0c-.9,0-2.2-.2-2.2-2.3v-9.3Z"/>
  <g class="cls-11">
    <g>
      <path class="cls-3" d="M97.4,31.1c-2.8-.4-5.6-.4-8.4.2-13,2.6-21.4,15.4-18.7,28.5.8,3.9,2.6,7.6,5.1,10.6.2.3.6.4.9.3.2,0,.3-.1.4-.2.2-.2.3-.4.3-.7,0-.3,0-.5-.2-.7-2.3-2.8-3.9-6.2-4.7-9.8-2.5-12,5.3-23.7,17.2-26.1,2.5-.5,5.1-.6,7.7-.2.5,0,1-.3,1.1-.8,0-.3,0-.5-.2-.7-.2-.2-.4-.4-.6-.4Z"/>
      <path class="cls-3" d="M76.6,71.2c0,0-.1,0-.2,0-.5.1-1.1,0-1.4-.5-2.6-3.1-4.4-6.9-5.2-10.8-2.7-13.3,5.8-26.3,19.1-29,2.8-.6,5.7-.6,8.5-.2.4,0,.7.3.9.6.2.3.3.7.3,1.1-.1.8-.9,1.3-1.6,1.2-2.5-.4-5-.3-7.5.2-5.6,1.1-10.5,4.4-13.7,9.3-3.2,4.8-4.3,10.6-3.1,16.3.7,3.5,2.3,6.8,4.6,9.6.2.3.4.7.3,1.1,0,.4-.2.7-.5,1-.1.1-.3.2-.5.3h0ZM86.6,32.4c-11.2,3.6-18.2,15.3-15.8,27.2.8,3.8,2.5,7.4,5,10.4.1.1.3.2.5.2,0,0,.2,0,.2-.1.1,0,.2-.2.2-.4,0-.1,0-.3-.1-.4-2.4-2.9-4-6.3-4.8-10-1.2-5.9,0-12,3.3-17,3.3-5,8.4-8.5,14.3-9.7,2.6-.5,5.2-.6,7.8-.2.3,0,.5-.2.6-.4,0-.1,0-.3,0-.4,0-.1-.2-.2-.3-.2-2.7-.4-5.5-.4-8.2.2-.9.2-1.7.4-2.6.7h0Z"/>
      <path class="cls-3" d="M94.5,77.2c-4,.1-7.9-.9-11.4-2.8-.5-.3-1.1,0-1.3.4-.1.2-.2.5,0,.7,0,.3.2.5.5.6,3.8,2.1,8.1,3.2,12.4,3.1,0,0,.1,0,.2,0,.5,0,.8-.5.8-1,0-.5-.5-1-1-1Z"/>
      <path class="cls-3" d="M95,79.6c0,0-.1,0-.2,0,0,0-.2,0-.2,0-4.4.1-8.8-1-12.6-3.1-.3-.2-.6-.5-.7-.9-.1-.4,0-.8.1-1.1.2-.3.5-.6.9-.7.4-.1.8,0,1.1.1,3.4,1.9,7.3,2.9,11.1,2.8.8,0,1.5.6,1.5,1.4,0,.6-.4,1.2-1,1.4h0ZM82.5,74.7c-.1,0-.2.1-.3.2,0,.1,0,.3,0,.4,0,.1.1.2.2.3,3.7,2.1,7.9,3.1,12.1,3,0,0,0,0,0,0,.2,0,.4-.3.4-.5,0-.3-.2-.5-.5-.5-4,.1-8-.9-11.6-2.9-.1,0-.3,0-.4,0,0,0,0,0,0,0h0Z"/>
      <path class="cls-3" d="M112.2,39.5c-2.1-2.5-4.7-4.6-7.7-6.1-.5-.2-1.1,0-1.3.4-.1.2-.1.5,0,.8,0,.2.3.5.5.6,2.7,1.4,5.1,3.2,7.1,5.6.2.3.6.4.9.3.2,0,.3-.1.4-.2.4-.4.5-1,.1-1.4h0Z"/>
      <path class="cls-3" d="M111.9,41.5c0,0-.1,0-.2,0-.5.1-1,0-1.4-.5-1.9-2.3-4.2-4.1-6.9-5.5-.3-.2-.6-.5-.7-.8-.1-.4,0-.8,0-1.1.2-.3.5-.6.8-.7,0,0,0,0,0,0,.4-.1.8,0,1.1,0,3,1.5,5.7,3.6,7.8,6.2.5.6.4,1.5-.2,2-.1.1-.3.2-.5.3h0ZM103.9,33.8s0,0,0,0c-.1,0-.2.1-.3.3,0,.1,0,.3,0,.4,0,.1.1.2.3.3,2.8,1.4,5.2,3.3,7.2,5.7.1.1.3.2.5.2,0,0,.2,0,.2-.1.2-.2.2-.5,0-.7-2.1-2.5-4.6-4.5-7.5-6-.1,0-.3,0-.4,0h0Z"/>
      <path class="cls-3" d="M89.1,73.3c-.2,0-.3,0-.5,0-6-1.8-10.7-6.5-12.6-12.6-.2-.6-.3-1.1-.4-1.7-.1-.5.2-1.1.8-1.2.5-.1,1.1.2,1.2.8.1.5.2,1,.4,1.5,1.6,5.4,5.8,9.6,11.2,11.2.5.2.8.7.7,1.2-.1.4-.4.6-.7.7ZM108.9,46.5c-.4,0-.8,0-1-.4-1.7-2.6-4.1-4.6-6.8-6-3.3-1.6-6.9-2-10.4-1.3-6.5,1.3-11.6,6.4-13,12.9-.1.5-.6.9-1.2.8-.5-.1-.9-.6-.8-1.2,1.5-7.3,7.2-13,14.5-14.4,4-.8,8-.3,11.7,1.4,3.1,1.5,5.8,3.8,7.6,6.7.3.5.2,1.1-.3,1.4-.1,0-.2.1-.3.1Z"/>
      <path class="cls-3" d="M89.4,73.7c0,0-.1,0-.2,0-.2,0-.5,0-.7,0-6.2-1.9-11-6.7-12.9-12.9-.2-.6-.3-1.2-.4-1.8,0-.4,0-.8.2-1.1.2-.3.5-.5.9-.6.8-.2,1.5.4,1.7,1.1.1.5.2,1,.4,1.5,1.6,5.2,5.7,9.3,10.9,10.9.8.2,1.2,1,1,1.8-.1.5-.5.8-.9,1h0ZM76.4,58.3c-.1,0-.2.1-.3.2,0,.1-.1.3,0,.4.1.6.3,1.1.4,1.7,1.8,5.9,6.4,10.5,12.2,12.3,0,0,.2,0,.3,0,.2,0,.3-.2.4-.4,0-.3,0-.6-.4-.7-5.5-1.7-9.9-6-11.5-11.5-.2-.5-.3-1.1-.4-1.6,0-.3-.3-.5-.6-.4,0,0,0,0,0,0h0ZM109.1,46.9c0,0-.1,0-.2,0-.6.1-1.2-.1-1.5-.6-1.6-2.5-3.9-4.5-6.6-5.8-3.2-1.5-6.7-2-10.2-1.3-6.3,1.3-11.3,6.2-12.6,12.6-.2.8-.9,1.3-1.7,1.1-.8-.2-1.3-.9-1.1-1.7,1.6-7.5,7.4-13.3,14.9-14.8,4.1-.8,8.2-.3,12,1.5,3.2,1.5,5.9,3.9,7.8,6.8.4.7.3,1.6-.4,2-.1,0-.2.1-.4.2h0ZM108.8,46c0,0,.1,0,.2,0,.2-.2.3-.5.1-.7-1.8-2.8-4.4-5-7.5-6.5-3.6-1.7-7.5-2.2-11.4-1.4-7.1,1.4-12.6,7-14.1,14.1,0,.3.1.6.4.6.3,0,.6-.1.6-.4,1.4-6.7,6.7-11.9,13.3-13.3,3.7-.7,7.4-.3,10.7,1.3,2.9,1.4,5.3,3.5,7,6.1.1.2.3.3.5.2h0Z"/>
      <path class="cls-3" d="M96.2,67.1c-6.6,1.3-13.1-3-14.4-9.6-1.4-6.6,2.9-13.1,9.5-14.5,3.2-.7,6.5,0,9.3,1.9.5.3.6.9.3,1.4-.3.5-.9.6-1.4.3-2.3-1.6-5.1-2.1-7.8-1.6-5.5,1.1-9.1,6.6-8,12.1,1.1,5.6,6.6,9.2,12.1,8.1.5-.1,1.1.2,1.2.8.1.5-.2,1.1-.8,1.2Z"/>
      <path class="cls-3" d="M96.4,67.5c0,0-.1,0-.2,0-6.9,1.4-13.6-3.1-15-10-.7-3.3,0-6.7,1.8-9.6,1.9-2.8,4.7-4.8,8-5.4,3.4-.7,6.8,0,9.6,2,.3.2.5.6.6.9,0,.4,0,.8-.2,1.1-.2.3-.5.5-.9.6-.4,0-.8,0-1.1-.2-2.2-1.5-4.8-2-7.4-1.5-5.3,1.1-8.7,6.3-7.6,11.6,1.1,5.3,6.3,8.8,11.5,7.7.8-.2,1.6.4,1.7,1.1,0,.4,0,.8-.2,1.1-.2.3-.5.5-.8.6h0ZM90.1,43.8c-2.5.8-4.7,2.5-6.2,4.7-1.7,2.6-2.3,5.8-1.7,8.9,1.3,6.4,7.5,10.6,13.9,9.3.1,0,.3-.1.3-.2,0-.1.1-.3,0-.4,0-.3-.3-.5-.6-.4-5.8,1.2-11.4-2.6-12.6-8.4-1.2-5.8,2.5-11.5,8.3-12.7,2.8-.6,5.7,0,8.1,1.6.1,0,.3.1.4,0,.1,0,.3-.1.3-.2,0-.1.1-.3,0-.4,0-.1-.1-.3-.2-.3-2.6-1.8-5.8-2.4-8.9-1.8-.4,0-.9.2-1.3.3h0Z"/>
      <path class="cls-3" d="M93.7,73c.1.5-.2,1-.7,1.1-.5.1-1-.2-1.1-.8-.1-.5.2-1,.7-1.1.5-.1,1,.2,1.1.8h0Z"/>
      <path class="cls-3" d="M93.2,74.5c0,0-.1,0-.2,0-.4,0-.8,0-1.1-.2-.3-.2-.5-.5-.6-.9,0-.4,0-.8.2-1.1.2-.3.5-.5.9-.6.8-.2,1.5.3,1.7,1.1,0,.4,0,.8-.2,1.1-.2.3-.4.5-.7.6h0ZM92.6,72.7c-.1,0-.2.1-.3.2,0,.1,0,.2,0,.4,0,.1.1.2.2.3.1,0,.2.1.4,0s.2-.1.3-.2c0-.1,0-.2,0-.4,0-.3-.3-.4-.6-.4,0,0,0,0,0,0h0Z"/>
      <path class="cls-3" d="M102.4,32.6c.1.5-.2,1-.7,1.1-.5.1-1-.2-1.1-.7-.1-.5.2-1,.7-1.1.5-.1,1,.2,1.1.7h0Z"/>
      <path class="cls-3" d="M102,34.1s0,0-.2,0c-.7.2-1.5-.3-1.6-1.1-.2-.8.3-1.5,1.1-1.6.7-.2,1.5.3,1.6,1.1.1.7-.3,1.4-.9,1.6ZM101.4,32.4c-.2,0-.4.3-.3.5,0,.3.3.4.5.4.2,0,.4-.3.4-.5,0-.3-.3-.4-.5-.4,0,0,0,0,0,0h0Z"/>
      <path class="cls-3" d="M80.6,73.2c.1.5-.2,1-.7,1.1-.5.1-1-.2-1.1-.7-.1-.5.2-1,.7-1.1.5-.1,1,.2,1.1.7Z"/>
      <path class="cls-3" d="M80.1,74.7s-.1,0-.2,0c-.4,0-.7,0-1-.2-.3-.2-.5-.5-.6-.9-.2-.8.3-1.5,1.1-1.6.7-.2,1.5.3,1.6,1.1,0,.4,0,.7-.2,1-.2.3-.4.5-.7.6h0ZM79.6,72.9c-.2,0-.4.3-.3.5,0,.1,0,.2.2.3.1,0,.2,0,.3,0,.1,0,.2,0,.3-.2,0-.1,0-.2,0-.3,0-.3-.3-.4-.5-.4,0,0,0,0,0,0h0Z"/>
      <path class="cls-7" d="M94.8,57.9c1.5-.5,2.3-2.1,1.8-3.5-.5-1.5-2-2.3-3.5-1.8-1.5.5-2.3,2.1-1.8,3.5.5,1.5,2,2.3,3.5,1.8Z"/>
      <path class="cls-7" d="M102.1,54.2l-11.8-6.1,1.9,14,3.1-2.5,3.4,3.9,2.9-2-2.8-4.7,3.3-2.6Z"/>
      <path class="cls-10" d="M100.7,54.4l-11.8-6.1,1.9,14,3.1-2.5,3.4,3.9,2.9-2-2.8-4.7,3.3-2.6Z"/>
    </g>
  </g>
</svg>