<svg width="140" height="154" viewBox="0 0 140 154" fill="none" xmlns="http://www.w3.org/2000/svg">
<rect width="140" height="154" rx="16" fill="#FFC805" fill-opacity="0.1"/>
<mask id="mask0_3803_5043" style="mask-type:alpha" maskUnits="userSpaceOnUse" x="7" y="10" width="115" height="144">
<rect x="7" y="10" width="115" height="144" fill="#D9D9D9"/>
</mask>
<g mask="url(#mask0_3803_5043)">
<circle cx="61" cy="51" r="35" fill="#F7DE7A" fill-opacity="0.7"/>
</g>
<g clip-path="url(#clip0_3803_5043)">
<path d="M114.062 74.5216C106.014 74.5216 97.9623 74.5216 89.9142 74.5216C82.0074 74.5216 74.0971 74.5216 66.1903 74.5216C65.2109 74.5216 64.7212 74.0509 64.7212 73.1097C64.7212 57.4137 64.7212 41.7177 64.7212 26.0217C64.7178 25.5423 64.9162 25.0033 64.0018 25C63.1143 24.9967 63.2521 25.4894 63.2521 26.0019C63.2521 27.427 63.2521 28.8488 63.2521 30.2739C63.2521 31.699 63.2521 31.6329 61.8973 31.656C61.4838 31.6626 61.0535 31.5403 61.0804 32.238C61.1006 32.7868 61.1947 33.0216 61.8301 33.0216C63.2521 33.0183 63.2521 33.0547 63.2521 34.4566C63.2521 35.3593 63.2521 36.262 63.2521 37.1647C63.2521 38.0596 62.796 38.517 61.8839 38.5369C61.1812 38.5501 60.8047 39.0659 61.1207 39.6445C61.3796 40.1141 61.8906 39.8892 62.2604 39.8628C63.0302 39.8032 63.3193 40.0083 63.2723 40.825C63.1949 42.1409 63.1748 43.4702 63.2756 44.7795C63.3563 45.8277 63.0504 46.1881 61.9746 46.0592C61.2014 45.9633 60.7677 46.5651 61.1241 47.1569C61.4132 47.6364 61.9645 47.3851 62.378 47.3652C63.0672 47.3355 63.3059 47.5372 63.2655 48.2381C63.205 49.3128 63.2487 50.3907 63.2487 51.4653C63.2487 52.8838 63.2487 52.9334 61.857 52.897C61.1342 52.8772 61.0703 53.1648 61.0838 53.7435C61.1006 54.5734 61.7259 54.2824 62.0688 54.2395C63.0638 54.1237 63.3395 54.4974 63.2689 55.4397C63.1849 56.5441 63.2487 57.6617 63.2487 58.7727C63.2487 59.7073 62.7814 60.1879 61.8469 60.2143C61.2014 60.2309 60.8115 60.8293 61.1174 61.3584C61.3224 61.7155 61.7057 61.5898 61.978 61.5435C63.0975 61.3551 63.3664 61.8345 63.2723 62.8496C63.1815 63.8151 63.1781 64.8004 63.2723 65.7626C63.3765 66.8141 63.0739 67.3101 61.9444 67.0885C60.9526 66.8935 60.9795 67.5812 61.1342 68.1367C61.3023 68.7418 61.9208 68.4244 62.3108 68.4111C63.0235 68.3847 63.3059 68.5599 63.2689 69.3204C63.205 70.7059 63.2118 72.0979 63.2689 73.4866C63.2992 74.2571 63.1445 74.6803 62.2536 74.5315C61.7931 74.4554 61.4569 74.515 61.4872 75.1564C61.5141 75.6822 61.6284 75.9599 62.1931 75.8376C63.2521 75.6094 63.3429 76.2046 63.2555 76.9915C63.2084 77.4313 63.2151 77.7752 63.8707 77.7983C64.5833 77.8248 64.8422 77.59 64.7111 76.9287C64.5228 75.9797 64.9464 75.7615 65.8507 75.8177C67.0811 75.8971 68.3284 75.9136 69.5554 75.8144C70.611 75.7284 71.0245 76.026 70.8497 77.0874C70.7925 77.4346 70.6312 77.9273 71.3775 77.9339C72.0095 77.9339 72.3289 77.7983 72.1977 77.137C71.9792 76.0194 72.4869 75.7185 73.5559 75.821C74.5005 75.9103 75.4687 75.9169 76.4134 75.821C77.5228 75.7053 78.0808 75.9764 77.8253 77.1668C77.6741 77.8744 78.0741 77.9471 78.6624 77.924C79.5903 77.8909 79.1868 77.2098 79.1633 76.8494C79.1163 76.0459 79.3516 75.7681 80.2055 75.8177C81.5434 75.8938 82.8949 75.9136 84.2261 75.8144C85.2515 75.7384 85.6246 76.026 85.4666 77.0378C85.4061 77.4214 85.2414 77.9306 86.0516 77.9372C86.771 77.9438 86.9256 77.6528 86.8147 77.0808C86.5995 75.983 87.1004 75.7251 88.1291 75.8177C89.1108 75.907 90.1126 75.9103 91.0909 75.8177C92.1498 75.7152 92.6205 75.983 92.4658 77.1172C92.3683 77.8314 92.9196 78.1951 93.5449 77.8909C94.0929 77.6264 93.8038 77.0841 93.7903 76.6906C93.7668 76.0227 93.9517 75.788 94.6711 75.821C95.9755 75.8839 97.2899 75.9169 98.5876 75.8144C99.6566 75.7284 100.047 76.0426 99.8785 77.0907C99.8213 77.4412 99.6667 77.9273 100.413 77.9339C101.052 77.9339 101.358 77.7884 101.23 77.1337C101.011 76.0095 101.529 75.7218 102.595 75.821C103.573 75.9103 104.575 75.907 105.557 75.821C106.562 75.7351 107.096 75.9632 106.858 77.0643C106.686 77.8645 107.133 78.0199 107.806 77.9074C108.545 77.7851 108.229 77.1932 108.202 76.846C108.138 76.0326 108.401 75.7814 109.244 75.8177C110.935 75.8872 112.633 75.8177 114.327 75.8508C114.835 75.8607 114.956 75.7152 114.993 75.2159C115.057 74.4025 114.546 74.5216 114.058 74.5216H114.062Z" fill="#D27200"/>
<path d="M68.7489 32.3801C68.1102 32.2412 67.3975 32.2247 66.7621 32.3636C66.3318 32.4595 66.5369 33.0315 66.5369 33.3886C66.5268 46.4063 66.5436 59.424 66.5033 72.4418C66.5033 73.4668 66.8697 73.6057 67.7673 73.6156C68.6548 73.6222 68.9607 73.4502 68.954 72.4847C68.9036 65.961 68.9271 59.434 68.9271 52.9069C68.9271 46.3799 68.9271 39.8528 68.9204 33.3291C68.9204 32.9984 69.0918 32.4529 68.7489 32.3801Z" fill="#FFA018"/>
<path d="M88.5563 73.5561C89.3598 74.0355 90.3582 73.4536 90.3582 72.5212C90.3582 57.9692 90.3548 43.4206 90.3717 28.8687C90.3717 28.128 90.291 27.7544 89.3732 27.7775C88.5294 27.7973 88.3243 28.0354 88.3277 28.8422C88.358 36.1 88.3479 43.3578 88.3479 50.6155V51.138C88.3479 58.2933 88.3479 65.4452 88.3546 72.6005C88.3546 72.9212 88.1764 73.3279 88.5597 73.5561H88.5563Z" fill="#EA982D"/>
<path d="M71.3709 37.2771C70.6044 37.2903 70.1002 37.2539 70.1035 38.3252C70.1472 49.7459 70.1439 61.1633 70.1069 72.5839C70.1069 73.566 70.5238 73.6255 71.297 73.6057C72.0534 73.5825 72.5711 73.642 72.5576 72.5509C72.487 66.8604 72.524 61.1666 72.524 55.4728C72.524 49.7459 72.4971 44.019 72.5509 38.2922C72.561 37.3068 72.1374 37.2605 71.3676 37.2738L71.3709 37.2771Z" fill="#FFA018"/>
<path d="M92.9132 34.5194C92.187 34.5459 91.6996 34.4863 91.7096 35.5114C91.7634 41.6582 91.7365 47.805 91.7365 53.9551C91.7365 60.1052 91.7634 66.3908 91.7096 72.6071C91.6996 73.6056 92.1467 73.6056 92.8997 73.6155C93.6662 73.6255 93.9856 73.4998 93.9822 72.6203C93.9486 60.254 93.9486 47.8909 93.9822 35.5279C93.9822 34.6649 93.7032 34.493 92.9132 34.5227V34.5194Z" fill="#EA982D"/>
<path d="M86.0249 73.6222C86.8788 73.6619 86.9864 73.3279 86.9796 72.6038C86.9527 67.4986 86.9662 62.3966 86.9662 57.2914C86.9662 52.1861 86.9427 47.0114 86.9864 41.8731C86.9931 41.0399 86.7006 40.9175 85.9577 40.9175C85.2046 40.9175 84.929 41.0696 84.929 41.8897C84.9592 52.1332 84.9626 62.3768 84.929 72.6203C84.929 73.5131 85.2719 73.5891 86.0249 73.6222Z" fill="#EA982D"/>
<path d="M113.454 44.1678C112.643 44.1711 112.29 44.2803 112.294 45.2193C112.334 54.2461 112.317 63.2728 112.321 72.3029C112.321 72.5773 112.354 72.8551 112.371 73.1295C113.07 73.1229 113.77 73.1163 114.472 73.1064C114.482 63.8019 114.479 54.4974 114.519 45.1928C114.523 44.3464 114.264 44.1645 113.457 44.1678H113.454Z" fill="#FFA018"/>
<path d="M75.0185 73.6123C75.7951 73.6123 76.1178 73.4767 76.1145 72.5972C76.0775 64.2317 76.0775 55.8696 76.1145 47.5041C76.1178 46.6312 75.8018 46.4791 75.0152 46.4725C74.2151 46.4659 73.9159 46.6411 73.926 47.5041C73.973 51.7034 73.9461 55.9026 73.9461 60.1019C73.9461 64.3012 73.973 68.431 73.9226 72.5939C73.9125 73.4701 74.242 73.609 75.0185 73.609V73.6123Z" fill="#FFA018"/>
<path d="M96.4127 44.7332C95.6765 44.7729 95.3 44.8126 95.3101 45.7219C95.3639 50.1658 95.3336 54.6098 95.3336 59.057C95.3336 63.5043 95.3571 68.0871 95.3101 72.6005C95.3 73.4602 95.5925 73.609 96.3858 73.6222C97.1994 73.6354 97.3675 73.3841 97.3641 72.6236C97.3372 63.6663 97.3406 54.7057 97.3641 45.7483C97.3641 45.0308 97.2767 44.687 96.4127 44.7332Z" fill="#EA982D"/>
<path d="M82.4885 73.6056C83.1642 73.6056 83.6617 73.6718 83.6449 72.6798C83.5777 68.8641 83.618 65.0484 83.618 61.2327C83.618 57.3475 83.5811 53.4591 83.6449 49.5772C83.6617 48.5886 83.1642 48.6448 82.4851 48.6448C81.8027 48.6448 81.322 48.5985 81.3287 49.5806C81.3757 57.2814 81.3757 64.9856 81.3287 72.6831C81.322 73.6784 81.8195 73.6023 82.4885 73.6056Z" fill="#EA982D"/>
<path d="M99.9225 73.5991C100.642 73.652 100.988 73.5263 100.971 72.6699C100.914 69.4428 100.948 66.2156 100.948 62.9885C100.948 59.7613 100.914 56.4647 100.971 53.2045C100.985 52.3614 100.669 52.2027 99.936 52.2721C99.3376 52.3283 98.7089 52.0803 98.7156 53.1384C98.7627 59.6621 98.7627 66.1859 98.7156 72.7096C98.7089 73.7578 99.3073 73.5528 99.9259 73.6024L99.9225 73.5991Z" fill="#FAE69A"/>
<path d="M78.7903 73.5991C79.5703 73.6619 79.9098 73.48 79.8896 72.6005C79.8291 69.7569 79.8661 66.9133 79.8661 64.0697C79.8661 61.2261 79.8224 58.1742 79.8896 55.2281C79.9098 54.2527 79.4123 54.2626 78.7197 54.2824C78.081 54.3023 77.5095 54.1601 77.5162 55.1884C77.5667 61.0145 77.57 66.8406 77.5162 72.6633C77.5061 73.7644 78.1415 73.5462 78.787 73.5991H78.7903Z" fill="#FFA018"/>
<path d="M110.267 53.3236C109.645 53.3401 109.073 53.1582 109.083 54.2064C109.141 60.3069 109.141 66.4107 109.083 72.5112C109.073 73.5693 109.675 73.3544 110.284 73.3908C110.959 73.4337 111.363 73.3908 111.342 72.4947C111.275 69.4792 111.316 66.4636 111.319 63.4448C111.319 60.3598 111.275 57.2715 111.346 54.1899C111.366 53.2541 110.899 53.307 110.267 53.3236Z" fill="#FFA018"/>
<path d="M103.392 73.609C104.111 73.6255 104.367 73.4436 104.353 72.6931C104.306 70.1272 104.337 67.5614 104.337 64.9955C104.337 62.4297 104.3 59.8638 104.357 57.298C104.377 56.468 103.997 56.4317 103.352 56.4416C102.73 56.4515 102.316 56.4383 102.323 57.2847C102.363 62.4164 102.367 67.5481 102.323 72.6798C102.316 73.5594 102.706 73.5891 103.395 73.609H103.392Z" fill="#FAE69A"/>
<path d="M106.888 73.5891C107.46 73.609 107.984 73.6982 107.95 72.7956C107.883 70.8579 107.93 68.917 107.93 66.9761C107.93 65.0352 107.883 63.0943 107.95 61.1567C107.981 60.2804 107.46 60.3862 106.945 60.4325C106.441 60.4755 105.705 60.0886 105.715 61.1533C105.752 65.0352 105.758 68.917 105.711 72.7956C105.698 73.8007 106.327 73.5726 106.888 73.5957V73.5891Z" fill="#FAE69A"/>
<path d="M112.371 73.1262C112.348 74.1513 113.144 73.6619 113.595 73.7346C114.039 73.8041 114.58 73.8437 114.472 73.1031C113.776 73.5858 113.077 73.5627 112.371 73.1262Z" fill="#FFA018"/>
<path d="M114.472 73.1064C113.773 73.113 113.074 73.1196 112.371 73.1295C113.077 73.566 113.776 73.5891 114.472 73.1064Z" fill="#FFA018"/>
</g>
<path d="M37.6088 111V101.822H42.9388V102.94H38.8958V105.813H42.1848V106.931H38.8958V109.882H43.1598V111H37.6088ZM47.128 108.439H47.102C47.102 108.439 46.998 108.647 46.907 108.803L45.529 111H44.099L46.335 107.62L44.216 104.422H45.659L46.881 106.424C46.985 106.593 47.102 106.814 47.102 106.814H47.128C47.128 106.814 47.245 106.593 47.349 106.424L48.571 104.422H50.014L47.895 107.62L50.131 111H48.701L47.323 108.803C47.232 108.647 47.128 108.439 47.128 108.439ZM51.4026 113.6V104.422H52.5596V104.981C52.5596 105.241 52.5336 105.462 52.5336 105.462H52.5596C52.5596 105.462 53.1186 104.266 54.7696 104.266C56.5376 104.266 57.6556 105.67 57.6556 107.711C57.6556 109.804 56.3946 111.156 54.6786 111.156C53.2356 111.156 52.6636 110.077 52.6636 110.077H52.6376C52.6376 110.077 52.6636 110.311 52.6636 110.649V113.6H51.4026ZM52.6246 107.737C52.6246 108.907 53.2746 110.077 54.4836 110.077C55.5236 110.077 56.3816 109.219 56.3816 107.724C56.3816 106.294 55.6146 105.371 54.5226 105.371C53.5346 105.371 52.6246 106.06 52.6246 107.737ZM59.1195 109.206V101.822H60.3805V108.985C60.3805 109.778 60.6925 109.921 61.0825 109.921C61.1995 109.921 61.3035 109.908 61.3035 109.908V111.026C61.3035 111.026 61.1085 111.052 60.8875 111.052C60.1725 111.052 59.1195 110.857 59.1195 109.206ZM62.1569 107.698C62.1569 105.709 63.7429 104.266 65.7059 104.266C67.6689 104.266 69.2549 105.709 69.2549 107.698C69.2549 109.7 67.6689 111.156 65.7059 111.156C63.7429 111.156 62.1569 109.7 62.1569 107.698ZM63.4439 107.698C63.4439 109.076 64.4709 110.064 65.7059 110.064C66.9539 110.064 67.9679 109.076 67.9679 107.698C67.9679 106.333 66.9539 105.358 65.7059 105.358C64.4709 105.358 63.4439 106.333 63.4439 107.698ZM70.7502 111V104.422H71.9722V105.566C71.9722 105.839 71.9462 106.06 71.9462 106.06H71.9722C72.2712 105.098 73.0382 104.344 74.0522 104.344C74.2212 104.344 74.3772 104.37 74.3772 104.37V105.618C74.3772 105.618 74.2082 105.579 74.0132 105.579C73.2072 105.579 72.4662 106.151 72.1672 107.126C72.0502 107.503 72.0112 107.906 72.0112 108.309V111H70.7502ZM75.0922 109.154C75.0922 106.983 77.9522 106.892 79.0572 106.892H79.3432V106.775C79.3432 105.696 78.7322 105.332 77.9002 105.332C76.8862 105.332 76.0672 105.969 76.0672 105.969L75.5472 105.046C75.5472 105.046 76.4962 104.266 78.0042 104.266C79.6682 104.266 80.6042 105.176 80.6042 106.84V111H79.4342V110.376C79.4342 110.077 79.4602 109.856 79.4602 109.856H79.4342C79.4342 109.856 78.9012 111.156 77.3282 111.156C76.1972 111.156 75.0922 110.467 75.0922 109.154ZM76.3662 109.089C76.3662 109.622 76.7822 110.142 77.6012 110.142C78.6672 110.142 79.3562 109.024 79.3562 108.049V107.841H79.0312C78.0822 107.841 76.3662 107.906 76.3662 109.089ZM82.0644 107.711C82.0644 105.618 83.2994 104.266 85.0414 104.266C86.5624 104.266 87.0694 105.306 87.0694 105.306H87.0954C87.0954 105.306 87.0694 105.111 87.0694 104.864V101.822H88.3304V111H87.1344V110.376C87.1344 110.116 87.1474 109.934 87.1474 109.934H87.1214C87.1214 109.934 86.5884 111.156 84.9634 111.156C83.1824 111.156 82.0644 109.752 82.0644 107.711ZM83.3514 107.711C83.3514 109.141 84.1184 110.064 85.2104 110.064C86.1854 110.064 87.1084 109.375 87.1084 107.698C87.1084 106.528 86.4974 105.358 85.2494 105.358C84.2094 105.358 83.3514 106.216 83.3514 107.711ZM89.82 107.698C89.82 105.709 91.406 104.266 93.369 104.266C95.332 104.266 96.918 105.709 96.918 107.698C96.918 109.7 95.332 111.156 93.369 111.156C91.406 111.156 89.82 109.7 89.82 107.698ZM91.107 107.698C91.107 109.076 92.134 110.064 93.369 110.064C94.617 110.064 95.631 109.076 95.631 107.698C95.631 106.333 94.617 105.358 93.369 105.358C92.134 105.358 91.107 106.333 91.107 107.698ZM98.4133 111V104.422H99.6353V105.566C99.6353 105.839 99.6093 106.06 99.6093 106.06H99.6353C99.9343 105.098 100.701 104.344 101.715 104.344C101.884 104.344 102.04 104.37 102.04 104.37V105.618C102.04 105.618 101.871 105.579 101.676 105.579C100.87 105.579 100.129 106.151 99.8303 107.126C99.7133 107.503 99.6743 107.906 99.6743 108.309V111H98.4133ZM45.2276 127V118.94H42.0816V117.822H49.6606V118.94H46.5146V127H45.2276ZM49.1258 123.711C49.1258 121.618 50.5428 120.266 52.4148 120.266C54.2738 120.266 55.2618 121.644 55.2618 123.347C55.2618 123.516 55.2228 123.893 55.2228 123.893H50.4258C50.4908 125.336 51.5178 126.064 52.6878 126.064C53.8188 126.064 54.6378 125.297 54.6378 125.297L55.1578 126.22C55.1578 126.22 54.1828 127.156 52.6098 127.156C50.5428 127.156 49.1258 125.661 49.1258 123.711ZM50.4648 122.944H53.9748C53.9358 121.813 53.2338 121.267 52.3888 121.267C51.4268 121.267 50.6468 121.865 50.4648 122.944ZM56.7917 127V120.422H58.0137V121.566C58.0137 121.839 57.9877 122.06 57.9877 122.06H58.0137C58.3127 121.098 59.0797 120.344 60.0937 120.344C60.2627 120.344 60.4187 120.37 60.4187 120.37V121.618C60.4187 121.618 60.2497 121.579 60.0547 121.579C59.2487 121.579 58.5077 122.151 58.2087 123.126C58.0917 123.503 58.0527 123.906 58.0527 124.309V127H56.7917ZM61.6667 127V120.422H62.8887V121.566C62.8887 121.839 62.8627 122.06 62.8627 122.06H62.8887C63.1877 121.098 63.9547 120.344 64.9687 120.344C65.1377 120.344 65.2937 120.37 65.2937 120.37V121.618C65.2937 121.618 65.1247 121.579 64.9297 121.579C64.1237 121.579 63.3827 122.151 63.0837 123.126C62.9667 123.503 62.9277 123.906 62.9277 124.309V127H61.6667ZM66.5287 119.109V117.822H67.8027V119.109H66.5287ZM66.5417 127V120.422H67.8027V127H66.5417ZM70.052 124.595V121.527H69.194V120.513H70.091V118.615H71.313V120.513H72.899V121.527H71.313V124.452C71.313 125.765 72.236 125.934 72.717 125.934C72.899 125.934 73.016 125.908 73.016 125.908V127.026C73.016 127.026 72.834 127.052 72.574 127.052C71.729 127.052 70.052 126.792 70.052 124.595ZM73.9572 123.698C73.9572 121.709 75.5432 120.266 77.5062 120.266C79.4692 120.266 81.0552 121.709 81.0552 123.698C81.0552 125.7 79.4692 127.156 77.5062 127.156C75.5432 127.156 73.9572 125.7 73.9572 123.698ZM75.2442 123.698C75.2442 125.076 76.2712 126.064 77.5062 126.064C78.7542 126.064 79.7682 125.076 79.7682 123.698C79.7682 122.333 78.7542 121.358 77.5062 121.358C76.2712 121.358 75.2442 122.333 75.2442 123.698ZM82.5505 127V120.422H83.7725V121.566C83.7725 121.839 83.7465 122.06 83.7465 122.06H83.7725C84.0715 121.098 84.8385 120.344 85.8525 120.344C86.0215 120.344 86.1775 120.37 86.1775 120.37V121.618C86.1775 121.618 86.0085 121.579 85.8135 121.579C85.0075 121.579 84.2665 122.151 83.9675 123.126C83.8505 123.503 83.8115 123.906 83.8115 124.309V127H82.5505ZM87.4125 119.109V117.822H88.6865V119.109H87.4125ZM87.4255 127V120.422H88.6865V127H87.4255ZM90.1298 125.154C90.1298 122.983 92.9898 122.892 94.0948 122.892H94.3808V122.775C94.3808 121.696 93.7698 121.332 92.9378 121.332C91.9238 121.332 91.1048 121.969 91.1048 121.969L90.5848 121.046C90.5848 121.046 91.5338 120.266 93.0418 120.266C94.7058 120.266 95.6418 121.176 95.6418 122.84V127H94.4718V126.376C94.4718 126.077 94.4978 125.856 94.4978 125.856H94.4718C94.4718 125.856 93.9388 127.156 92.3658 127.156C91.2348 127.156 90.1298 126.467 90.1298 125.154ZM91.4038 125.089C91.4038 125.622 91.8198 126.142 92.6388 126.142C93.7048 126.142 94.3938 125.024 94.3938 124.049V123.841H94.0688C93.1198 123.841 91.4038 123.906 91.4038 125.089ZM97.453 125.206V117.822H98.714V124.985C98.714 125.778 99.026 125.921 99.416 125.921C99.533 125.921 99.637 125.908 99.637 125.908V127.026C99.637 127.026 99.442 127.052 99.221 127.052C98.506 127.052 97.453 126.857 97.453 125.206Z" fill="#D27200"/>
<defs>
<clipPath id="clip0_3803_5043">
<rect width="54" height="53" fill="white" transform="translate(61 25)"/>
</clipPath>
</defs>
</svg>
