<svg width="240" height="154" viewBox="0 0 240 154" fill="none" xmlns="http://www.w3.org/2000/svg">
<rect width="240" height="154" rx="20" fill="#4208A0" fill-opacity="0.1"/>
<mask id="mask0_4251_2719" style="mask-type:alpha" maskUnits="userSpaceOnUse" x="0" y="0" width="240" height="154">
<rect width="240" height="154" rx="20" fill="#4208A0" fill-opacity="0.1"/>
<rect x="0.5" y="0.5" width="239" height="153" rx="19.5" stroke="#4208A0" stroke-opacity="0.15"/>
</mask>
<g mask="url(#mask0_4251_2719)">
<path d="M216.319 61.7971C218.608 57.3573 219.801 52.2643 219.547 46.8939C218.806 30.7527 205.316 18.2786 189.423 19.0342C179.266 19.5209 170.582 25.2969 165.84 33.6129C163.166 32.8232 160.328 32.4475 157.396 32.5926C143.085 33.2714 132.04 45.6004 132.708 60.1364C132.835 62.9241 133.394 65.5922 134.303 68.0726C130.961 72.7429 129.1 78.553 129.387 84.7687C130.056 99.2962 142.197 110.524 156.499 109.841C161.914 109.589 166.851 107.659 170.869 104.581L171.906 171.742C179.617 171.588 187.266 172.361 194.703 174L185.493 103.877C189.779 106.558 194.872 108.005 200.291 107.753C214.593 107.07 225.643 94.7412 224.97 80.2137C224.632 72.8496 221.345 66.3393 216.319 61.7928" fill="#BEB4CD"/>
<path d="M110.999 99.9921C109.704 97.4776 109.027 94.6003 109.167 91.5565C109.586 82.4208 117.226 75.3598 126.219 75.7867C131.972 76.0599 136.883 79.3343 139.57 84.0387C141.08 83.5905 142.692 83.3813 144.35 83.4624C152.451 83.8509 158.703 90.8222 158.322 99.0529C158.25 100.632 157.933 102.139 157.417 103.548C159.312 106.195 160.366 109.478 160.205 113C159.828 121.226 152.95 127.574 144.853 127.19C141.795 127.049 138.994 125.952 136.718 124.215L136.135 162.226C131.773 162.141 127.437 162.58 123.228 163.507L128.44 123.813C126.016 125.333 123.131 126.153 120.068 126.012C111.967 125.623 105.715 118.643 106.1 110.421C106.29 106.255 108.152 102.571 110.994 99.9964" fill="#BEB4CD"/>
<path d="M66.9109 95.8426C65.6164 93.3281 64.9396 90.4465 65.0792 87.407C65.498 78.267 73.1378 71.2103 82.1356 71.6329C87.8845 71.9061 92.8 75.1762 95.4862 79.885C96.9964 79.441 98.6082 79.2275 100.266 79.3086C108.367 79.6971 114.62 86.6727 114.239 94.8991C114.167 96.4744 113.85 97.9899 113.334 99.3944C115.229 102.041 116.282 105.324 116.121 108.842C115.741 117.068 108.867 123.421 100.774 123.032C97.7114 122.891 94.9152 121.794 92.6393 120.057L92.0513 158.072C87.6899 157.983 83.3581 158.422 79.1448 159.349L84.3565 119.66C81.9325 121.179 79.0475 121.999 75.9848 121.854C67.8881 121.47 61.6358 114.494 62.0165 106.272C62.2069 102.101 64.0682 98.4168 66.9109 95.8426Z" fill="#BEB4CD"/>
</g>
<circle cx="60.5" cy="53.5" r="40.5" fill="#4208A0" fill-opacity="0.2"/>
<circle cx="194.5" cy="118.5" r="12.5" fill="#4208A0" fill-opacity="0.2"/>
<path d="M197.588 118.5L193 113.733L193.706 113L199 118.5L193.706 124L193 123.267L197.588 118.5Z" fill="#4208A0"/>
<path d="M21 116.192H25.0511C27.0082 116.192 28.4179 117.273 28.4179 119.147C28.4179 120.283 27.8568 121.186 26.9672 121.637V121.665C28.1852 122.021 28.8695 123.17 28.8695 124.47C28.8695 126.659 27.1724 127.767 25.1469 127.767H21V116.192ZM25.0511 121.076C26.1049 121.076 26.7619 120.338 26.7619 119.325C26.7619 118.312 26.1323 117.615 25.0237 117.615H22.6286V121.076H25.0511ZM25.229 126.372C26.4745 126.372 27.2135 125.578 27.2135 124.401C27.2135 123.225 26.4197 122.417 25.2153 122.417H22.615V126.372H25.229Z" fill="#521EA9"/>
<path d="M35.4115 122.595H35.7673V122.445C35.7673 121.076 35.0009 120.625 33.9471 120.625C32.6606 120.625 31.6341 121.432 31.6341 121.432L30.9772 120.269C30.9772 120.269 32.1816 119.284 34.0839 119.284C36.1916 119.284 37.3686 120.433 37.3686 122.527V127.781H35.8905V126.987C35.8905 126.604 35.9179 126.331 35.9179 126.331H35.8905C35.8905 126.331 35.2199 127.973 33.2354 127.973C31.812 127.973 30.4161 127.097 30.4161 125.441C30.4161 122.705 34.0292 122.582 35.4252 122.582L35.4115 122.595ZM33.5776 126.7C34.9188 126.7 35.7947 125.291 35.7947 124.059V123.799H35.3841C34.1797 123.799 32.0173 123.881 32.0173 125.373C32.0173 126.043 32.5374 126.7 33.5776 126.7Z" fill="#521EA9"/>
<path d="M39.75 119.475H41.2965V120.926C41.2965 121.268 41.2692 121.555 41.2692 121.555H41.2965C41.6797 120.338 42.6378 119.393 43.9243 119.393C44.1432 119.393 44.3349 119.421 44.3349 119.421V120.994C44.3349 120.994 44.1159 120.94 43.8695 120.94C42.8568 120.94 41.9124 121.665 41.5429 122.896C41.3923 123.375 41.3513 123.881 41.3513 124.388V127.781H39.7637V119.475H39.75Z" fill="#521EA9"/>
<path d="M45.9088 119.475H47.4553V120.926C47.4553 121.268 47.4279 121.555 47.4279 121.555H47.4553C47.8385 120.338 48.7965 119.393 50.083 119.393C50.302 119.393 50.4936 119.421 50.4936 119.421V120.994C50.4936 120.994 50.2746 120.94 50.0283 120.94C49.0155 120.94 48.0712 121.665 47.7016 122.896C47.5511 123.375 47.51 123.881 47.51 124.388V127.781H45.9224V119.475H45.9088Z" fill="#521EA9"/>
<path d="M52.0538 116.192H53.6688V117.82H52.0538V116.192ZM52.0675 119.475H53.6551V127.781H52.0675V119.475Z" fill="#521EA9"/>
<path d="M60.0328 119.284C62.51 119.284 64.5082 121.104 64.5082 123.621C64.5082 126.139 62.51 127.986 60.0328 127.986C57.5557 127.986 55.5575 126.153 55.5575 123.621C55.5575 121.09 57.5557 119.284 60.0328 119.284ZM60.0328 126.604C61.6068 126.604 62.8932 125.359 62.8932 123.621C62.8932 121.884 61.6068 120.666 60.0328 120.666C58.4589 120.666 57.1724 121.897 57.1724 123.621C57.1724 125.345 58.4726 126.604 60.0328 126.604Z" fill="#521EA9"/>
<path d="M66.5064 125.633C66.5064 125.633 67.437 126.604 68.8878 126.604C69.5721 126.604 70.2701 126.249 70.2701 125.564C70.2701 124.032 66 124.347 66 121.637C66 120.132 67.3412 119.27 68.9973 119.27C70.8175 119.27 71.6661 120.187 71.6661 120.187L71.0228 121.391C71.0228 121.391 70.2838 120.652 68.9699 120.652C68.2856 120.652 67.6013 120.953 67.6013 121.665C67.6013 123.156 71.8713 122.828 71.8713 125.551C71.8713 126.933 70.6943 127.959 68.8741 127.959C66.8349 127.959 65.7263 126.741 65.7263 126.741L66.4927 125.605L66.5064 125.633Z" fill="#521EA9"/>
<path d="M83.4224 116C86.2144 116 87.6378 117.532 87.6378 117.532L86.8303 118.75C86.8303 118.75 85.4891 117.491 83.4772 117.491C80.8768 117.491 79.1934 119.462 79.1934 121.925C79.1934 124.388 80.9179 126.509 83.4909 126.509C85.6807 126.509 87.063 125.003 87.063 125.003L87.9389 126.166C87.9389 126.166 86.3513 128 83.4361 128C79.9599 128 77.51 125.345 77.51 121.938C77.51 118.531 80.042 116.014 83.4088 116.014L83.4224 116Z" fill="#521EA9"/>
<path d="M93.7144 119.284C96.1916 119.284 98.1898 121.104 98.1898 123.621C98.1898 126.139 96.1916 127.986 93.7144 127.986C91.2372 127.986 89.2391 126.153 89.2391 123.621C89.2391 121.09 91.2372 119.284 93.7144 119.284ZM93.7144 126.604C95.2883 126.604 96.5748 125.359 96.5748 123.621C96.5748 121.884 95.2883 120.666 93.7144 120.666C92.1405 120.666 90.854 121.897 90.854 123.621C90.854 125.345 92.1542 126.604 93.7144 126.604Z" fill="#521EA9"/>
<path d="M100.092 119.475H101.639V120.57C101.639 120.899 101.611 121.172 101.611 121.172H101.639C102.036 120.201 103.199 119.27 104.499 119.27C105.895 119.27 106.716 119.913 106.99 121.158H107.017C107.483 120.16 108.632 119.27 109.974 119.27C111.849 119.27 112.711 120.338 112.711 122.458V127.781H111.123V122.814C111.123 121.651 110.891 120.734 109.645 120.734C108.482 120.734 107.606 121.719 107.318 122.855C107.236 123.197 107.209 123.58 107.209 124.005V127.795H105.621V122.828C105.621 121.747 105.457 120.748 104.171 120.748C102.953 120.748 102.104 121.747 101.789 122.937C101.707 123.266 101.693 123.649 101.693 124.018V127.808H100.106V119.475H100.092Z" fill="#521EA9"/>
<path d="M118.678 119.284C121.032 119.284 122.277 121.022 122.277 123.17C122.277 123.389 122.223 123.854 122.223 123.854H116.16C116.242 125.674 117.542 126.591 119.02 126.591C120.498 126.591 121.484 125.619 121.484 125.619L122.141 126.782C122.141 126.782 120.909 127.959 118.924 127.959C116.31 127.959 114.531 126.071 114.531 123.608C114.531 120.967 116.324 119.257 118.678 119.257V119.284ZM120.649 122.664C120.594 121.241 119.718 120.543 118.651 120.543C117.432 120.543 116.447 121.295 116.228 122.664H120.662H120.649Z" fill="#521EA9"/>
<path d="M124.221 119.475H125.767V120.926C125.767 121.268 125.74 121.555 125.74 121.555H125.767C126.151 120.338 127.109 119.393 128.395 119.393C128.614 119.393 128.806 119.421 128.806 119.421V120.994C128.806 120.994 128.587 120.94 128.34 120.94C127.328 120.94 126.383 121.665 126.014 122.896C125.863 123.375 125.822 123.881 125.822 124.388V127.781H124.234V119.475H124.221Z" fill="#521EA9"/>
<path d="M134.184 119.284C136.265 119.284 137.305 120.502 137.305 120.502L136.552 121.624C136.552 121.624 135.662 120.666 134.253 120.666C132.583 120.666 131.365 121.911 131.365 123.621C131.365 125.332 132.583 126.604 134.307 126.604C135.854 126.604 136.867 125.482 136.867 125.482L137.51 126.645C137.51 126.645 136.36 127.973 134.198 127.973C131.584 127.973 129.75 126.112 129.75 123.621C129.75 121.131 131.584 119.27 134.198 119.27L134.184 119.284Z" fill="#521EA9"/>
<path d="M139.289 116.192H140.904V117.82H139.289V116.192ZM139.317 119.475H140.904V127.781H139.317V119.475Z" fill="#521EA9"/>
<path d="M147.734 122.595H148.089V122.445C148.089 121.076 147.323 120.625 146.269 120.625C144.983 120.625 143.956 121.432 143.956 121.432L143.299 120.269C143.299 120.269 144.504 119.284 146.406 119.284C148.514 119.284 149.691 120.433 149.691 122.527V127.781H148.213V126.987C148.213 126.604 148.24 126.331 148.24 126.331H148.213C148.213 126.331 147.542 127.973 145.557 127.973C144.134 127.973 142.738 127.097 142.738 125.441C142.738 122.705 146.351 122.582 147.747 122.582L147.734 122.595ZM145.9 126.7C147.241 126.7 148.117 125.291 148.117 124.059V123.799H147.706C146.502 123.799 144.339 123.881 144.339 125.373C144.339 126.043 144.859 126.7 145.9 126.7Z" fill="#521EA9"/>
<path d="M151.976 116.192H153.564V125.236C153.564 126.235 153.961 126.413 154.453 126.413C154.604 126.413 154.727 126.399 154.727 126.399V127.808C154.727 127.808 154.481 127.836 154.207 127.836C153.304 127.836 151.976 127.59 151.976 125.51V116.192Z" fill="#521EA9"/>
<path d="M159.996 119.284C162.35 119.284 163.596 121.022 163.596 123.17C163.596 123.389 163.541 123.854 163.541 123.854H157.478C157.56 125.674 158.86 126.591 160.339 126.591C161.817 126.591 162.802 125.619 162.802 125.619L163.459 126.782C163.459 126.782 162.227 127.959 160.243 127.959C157.629 127.959 155.849 126.071 155.849 123.608C155.849 120.967 157.642 119.257 159.996 119.257V119.284ZM161.967 122.664C161.912 121.241 161.036 120.543 159.969 120.543C158.751 120.543 157.766 121.295 157.547 122.664H161.981H161.967Z" fill="#521EA9"/>
<path d="M165.635 125.633C165.635 125.633 166.566 126.604 168.016 126.604C168.701 126.604 169.399 126.249 169.399 125.564C169.399 124.032 165.129 124.347 165.129 121.637C165.129 120.132 166.47 119.27 168.126 119.27C169.946 119.27 170.795 120.187 170.795 120.187L170.151 121.391C170.151 121.391 169.412 120.652 168.099 120.652C167.414 120.652 166.73 120.953 166.73 121.665C166.73 123.156 171 122.828 171 125.551C171 126.933 169.823 127.959 168.003 127.959C165.964 127.959 164.855 126.741 164.855 126.741L165.621 125.605L165.635 125.633Z" fill="#521EA9"/>
<g clip-path="url(#clip0_4251_2719)">
<path d="M106.284 34.9694C106.771 34.038 107.026 32.9706 106.972 31.8469C106.814 28.4631 103.938 25.8479 100.553 26.0071C98.3883 26.1082 96.5389 27.3197 95.5277 29.0617C94.9581 28.8961 94.3527 28.8183 93.7284 28.8478C90.6797 28.991 88.3252 31.5749 88.4685 34.6204C88.4944 35.2047 88.6144 35.7638 88.8079 36.2837C88.0959 37.2625 87.6991 38.4802 87.76 39.7828C87.9024 42.8275 90.4899 45.1806 93.5377 45.0365C94.6903 44.9837 95.7436 44.5793 96.5998 43.9351L96.8192 58.0105C98.4636 57.9783 100.093 58.1403 101.677 58.4838L99.7148 43.7875C100.627 44.3494 101.714 44.6527 102.867 44.5999C105.915 44.4567 108.27 41.872 108.126 38.8282C108.054 37.2848 107.353 35.9204 106.283 34.9676" fill="white"/>
<path d="M124.062 58.4141L124.367 57.5597L126.38 58.1045L126.075 58.9581L124.061 58.4141H124.062ZM104.446 61.2056L104.283 53.572L107.588 53.6856L108.362 61.3058L104.446 61.2056ZM94.0137 52.2299L100.194 53.3089L100.651 74.3818H119.07L120.945 56.6372L123.463 57.3172L123.157 58.1716L122.532 58.0025L121.428 61.0901L126.552 62.4716L127.655 59.3848L126.98 59.2014L127.286 58.347L129.999 59.078L111.363 41.124L94.0137 52.2281V52.2299Z" fill="white"/>
<path d="M71.384 42.3685C71.1082 41.8416 70.9631 41.2376 70.9935 40.6006C71.0831 38.686 72.7113 37.207 74.627 37.2956C75.8532 37.3528 76.9001 38.0382 77.4724 39.025C77.794 38.9311 78.137 38.8873 78.4907 38.9043C80.2166 38.9857 81.5493 40.4476 81.4678 42.1717C81.4526 42.5027 81.3845 42.8186 81.2752 43.1138C81.6783 43.6685 81.904 44.3566 81.869 45.0938C81.7884 46.817 80.3232 48.1492 78.5982 48.0669C77.9462 48.0382 77.3497 47.8083 76.8652 47.4442L76.7407 55.4106C75.8111 55.3927 74.8877 55.4839 73.9903 55.679L75.1008 47.3601C74.585 47.6786 73.9706 47.8495 73.3177 47.8199C71.5927 47.7394 70.2591 46.2757 70.3415 44.5534C70.3818 43.6802 70.7786 42.9071 71.384 42.3685Z" fill="white"/>
<path d="M61.9893 39.2684C61.7135 38.7423 61.5684 38.1384 61.5988 37.5004C61.6875 35.5858 63.3157 34.1069 65.2324 34.1954C66.4585 34.2527 67.5054 34.938 68.0777 35.9249C68.3993 35.8318 68.7423 35.7871 69.0961 35.8041C70.8219 35.8855 72.1546 37.3475 72.0731 39.0715C72.0579 39.4026 71.9907 39.7184 71.8805 40.0137C72.2845 40.5684 72.5093 41.2564 72.4743 41.9945C72.3937 43.7177 70.9285 45.0499 69.2035 44.9676C68.5515 44.9381 67.955 44.709 67.4705 44.344L67.346 52.3113C66.4164 52.2925 65.493 52.3847 64.5965 52.5788L65.707 44.2599C65.1903 44.5784 64.5759 44.7502 63.923 44.7198C62.1971 44.6393 60.8644 43.1764 60.9459 41.4532C60.9862 40.58 61.383 39.8079 61.9893 39.2684Z" fill="white"/>
<path d="M54.1164 50.4047C53.5889 50.6803 52.9844 50.8243 52.3476 50.7939C50.4301 50.7044 48.9496 49.077 49.0401 47.1632C49.0983 45.9384 49.7843 44.8934 50.7722 44.3217C50.679 44.0005 50.6343 43.6578 50.6513 43.3044C50.7328 41.5803 52.1971 40.249 53.9239 40.3313C54.2553 40.3465 54.5723 40.4145 54.867 40.5245C55.4222 40.1219 56.111 39.8974 56.849 39.9323C58.5739 40.0137 59.9066 41.4783 59.8242 43.2006C59.7947 43.8519 59.5645 44.4478 59.1991 44.9318L67.1746 45.0607C67.1557 45.9894 67.248 46.9118 67.4415 47.8074L59.1149 46.6944C59.4328 47.2106 59.6048 47.8244 59.5743 48.4757C59.4919 50.1998 58.0276 51.5302 56.3026 51.4479C55.4285 51.4077 54.6556 51.0113 54.1155 50.4047" fill="white"/>
<path d="M49.0027 48.4623C48.7268 47.9353 48.5826 47.3323 48.6122 46.6944C48.7018 44.7797 50.33 43.2999 52.2457 43.3894C53.4709 43.4466 54.5179 44.132 55.0911 45.1188C55.4126 45.0249 55.7557 44.981 56.1094 44.998C57.8353 45.0794 59.168 46.5414 59.0865 48.2655C59.0721 48.5965 59.0041 48.9132 58.8939 49.2076C59.2978 49.7623 59.5226 50.4503 59.4877 51.1884C59.4071 52.9116 57.9419 54.243 56.2169 54.1615C55.5649 54.132 54.9684 53.903 54.4839 53.5379" fill="white"/>
<path d="M40.6728 55.9778C42.4918 61.6287 45.6005 71.2808 46.6018 74.3872L54.3623 74.3854L53.6243 60.8003L63.5075 60.1391L63.1716 74.3818L72.7682 74.38C76.3354 66.2928 74.4448 56.5576 74.4448 56.5576L74.949 51.4972L67.2556 39.5404L38.8466 52.0063C38.8466 52.0063 36.7732 52.8186 33 54.404" fill="white"/>
<path d="M82.5847 74.3836C83.1158 74.3827 83.784 74.3871 84.2497 74.3871L83.5144 70.361L82.3528 67.8245L81.9999 71.0723L80.5723 74.3871C81.2708 74.3871 81.8817 74.3854 82.5847 74.3845" fill="white"/>
<path d="M86.6854 61.8318L86.2421 62.9431L84.5332 62.6398L83.9144 62.0555L83.4424 64.5723L85.1817 68.9393L85.9841 74.3863C86.3531 74.3827 86.7051 74.389 87.0759 74.3863L88.7292 69.0387L87.7082 68.866L88.3154 65.9922L86.2725 65.6844L86.7365 63.0146L87.1413 61.9786" fill="white"/>
<path d="M78.6573 65.9259C78.6152 65.8526 78.5615 65.7881 78.497 65.7345C78.2543 65.8633 77.9578 65.8195 77.7294 65.6047C77.6927 65.6191 77.6551 65.6369 77.6211 65.6575C77.5216 65.7157 77.4366 65.7971 77.3721 65.8955L77.3748 65.9528C77.3792 66.0181 77.3864 66.0807 77.3954 66.1407L78.7406 66.4878C78.7898 66.2892 78.754 66.0897 78.6573 65.9259Z" fill="white"/>
<path d="M89.9655 58.4678C89.0663 58.5214 88.2943 57.8361 88.2405 56.9387C88.1859 56.0386 88.8719 55.2683 89.772 55.2155C90.6712 55.1609 91.4433 55.8472 91.4961 56.7446C91.5507 57.6428 90.8656 58.4159 89.9646 58.4686M82.5023 56.2453C81.6013 56.2972 80.8293 55.6128 80.7773 54.7145C80.7227 53.8144 81.4087 53.0432 82.3079 52.9904C83.208 52.9385 83.981 53.6212 84.0338 54.5203C84.0875 55.4186 83.4024 56.1907 82.5023 56.2453ZM95.2102 65.0626C95.229 65.127 95.2344 65.1852 95.2299 65.2353C95.4753 65.2505 95.6992 65.3498 95.8739 65.5046H95.8748C96.079 65.6844 96.2142 65.9421 96.2348 66.2337L96.7964 66.2015L97.0669 70.7377L93.7952 70.9327L93.5256 66.3948L94.0889 66.3626C94.0737 66.07 94.1776 65.7989 94.3576 65.5949V65.5931L94.3827 65.5681C94.3352 65.5556 94.2994 65.5395 94.2779 65.5207L92.2126 64.1661L91.5382 62.6514L91.3017 63.9102L93.3214 68.4159L92.7159 68.6852L94.4364 74.0659C94.4552 74.1921 94.4955 74.2744 94.4704 74.3818C94.62 74.3862 94.7391 74.3818 94.8869 74.3818H101.181V53.6265L80.6699 38.2207L63.5967 52.5404L68.2414 74.3818H78.644L80.1253 70.4156L79.8692 65.3686L80.1432 60.1793L78.7291 61.898L78.8428 64.4569C78.918 64.9552 78.8294 65.3167 78.6655 65.5439C78.7407 65.6146 78.807 65.696 78.8589 65.7855C78.9968 66.019 79.047 66.3062 78.9754 66.5889L79.5217 66.7294L79.116 71.0419C77.4743 71.1644 75.9347 70.8629 74.5949 69.7141L76.3494 65.9117L76.893 66.0548C76.971 65.7712 77.1519 65.5439 77.3856 65.407C77.4107 65.3918 77.4367 65.3793 77.4618 65.3659C77.3982 65.2451 77.3489 65.1002 77.322 64.9311L77.3023 64.8693C77.3238 64.7915 77.2558 64.7494 77.2979 64.6859L77.1483 61.5249L79.2602 58.4454C80.8615 56.3992 82.8704 55.7729 84.0562 58.5876L85.113 61.3227L87.1362 61.9803L87.9297 59.6013C88.6812 58.024 91.1916 59.0439 91.8418 60.6115L92.9542 62.9574" fill="white"/>
<path d="M91.1849 69.1254L90.3708 69.1746L88.5518 74.3862C90.0985 74.3844 91.6631 74.3576 93.2054 74.3934C93.1902 74.3683 93.1758 74.3442 93.1615 74.3173L91.1858 69.1245L91.1849 69.1254Z" fill="white"/>
</g>
<g clip-path="url(#clip1_4251_2719)">
<path d="M107.284 35.9694C107.771 35.038 108.026 33.9706 107.972 32.8469C107.814 29.4631 104.938 26.8479 101.553 27.0071C99.3883 27.1082 97.5389 28.3197 96.5277 30.0617C95.9581 29.8961 95.3527 29.8183 94.7284 29.8478C91.6797 29.991 89.3252 32.5749 89.4685 35.6204C89.4944 36.2047 89.6144 36.7638 89.8079 37.2837C89.0959 38.2625 88.6991 39.4802 88.76 40.7828C88.9024 43.8275 91.4899 46.1806 94.5377 46.0365C95.6903 45.9837 96.7436 45.5793 97.5998 44.9351L97.8192 59.0105C99.4636 58.9783 101.093 59.1403 102.677 59.4838L100.715 44.7875C101.627 45.3494 102.714 45.6527 103.867 45.5999C106.915 45.4567 109.27 42.872 109.126 39.8282C109.054 38.2848 108.353 36.9204 107.283 35.9676" fill="#553996"/>
<path d="M125.062 59.4141L125.367 58.5597L127.38 59.1045L127.075 59.9581L125.061 59.4141H125.062ZM105.446 62.2056L105.283 54.572L108.588 54.6856L109.362 62.3058L105.446 62.2056ZM95.0137 53.2299L101.194 54.3089L101.651 75.3818H120.07L121.945 57.6372L124.463 58.3172L124.157 59.1716L123.532 59.0025L122.428 62.0901L127.552 63.4716L128.655 60.3848L127.98 60.2014L128.286 59.347L130.999 60.078L112.363 42.124L95.0137 53.2281V53.2299Z" fill="#553996"/>
<path d="M72.384 43.3685C72.1082 42.8416 71.9631 42.2376 71.9935 41.6006C72.0831 39.686 73.7113 38.207 75.627 38.2956C76.8532 38.3528 77.9001 39.0382 78.4724 40.025C78.794 39.9311 79.137 39.8873 79.4907 39.9043C81.2166 39.9857 82.5493 41.4476 82.4678 43.1717C82.4526 43.5027 82.3845 43.8186 82.2752 44.1138C82.6783 44.6685 82.904 45.3566 82.869 46.0938C82.7884 47.817 81.3232 49.1492 79.5982 49.0669C78.9462 49.0382 78.3497 48.8083 77.8652 48.4442L77.7407 56.4106C76.8111 56.3927 75.8877 56.4839 74.9903 56.679L76.1008 48.3601C75.585 48.6786 74.9706 48.8495 74.3177 48.8199C72.5927 48.7394 71.2591 47.2757 71.3415 45.5534C71.3818 44.6802 71.7786 43.9071 72.384 43.3685Z" fill="#553996"/>
<path d="M62.9893 40.2684C62.7135 39.7423 62.5684 39.1384 62.5988 38.5004C62.6875 36.5858 64.3157 35.1069 66.2324 35.1954C67.4585 35.2527 68.5054 35.938 69.0777 36.9249C69.3993 36.8318 69.7423 36.7871 70.0961 36.8041C71.8219 36.8855 73.1546 38.3475 73.0731 40.0715C73.0579 40.4026 72.9907 40.7184 72.8805 41.0137C73.2845 41.5684 73.5093 42.2564 73.4743 42.9945C73.3937 44.7177 71.9285 46.0499 70.2035 45.9676C69.5515 45.9381 68.955 45.709 68.4705 45.344L68.346 53.3113C67.4164 53.2925 66.493 53.3847 65.5965 53.5788L66.707 45.2599C66.1903 45.5784 65.5759 45.7502 64.923 45.7198C63.1971 45.6393 61.8644 44.1764 61.9459 42.4532C61.9862 41.58 62.383 40.8079 62.9893 40.2684Z" fill="#553996"/>
<path d="M55.1164 51.4047C54.5889 51.6803 53.9844 51.8243 53.3476 51.7939C51.4301 51.7044 49.9496 50.077 50.0401 48.1632C50.0983 46.9384 50.7843 45.8934 51.7722 45.3217C51.679 45.0005 51.6343 44.6578 51.6513 44.3044C51.7328 42.5803 53.1971 41.249 54.9239 41.3313C55.2553 41.3465 55.5723 41.4145 55.867 41.5245C56.4222 41.1219 57.111 40.8974 57.849 40.9323C59.5739 41.0137 60.9066 42.4783 60.8242 44.2006C60.7947 44.8519 60.5645 45.4478 60.1991 45.9318L68.1746 46.0607C68.1557 46.9894 68.248 47.9118 68.4415 48.8074L60.1149 47.6944C60.4328 48.2106 60.6048 48.8244 60.5743 49.4757C60.4919 51.1998 59.0276 52.5302 57.3026 52.4479C56.4285 52.4077 55.6556 52.0113 55.1155 51.4047" fill="#553996"/>
<path d="M50.0027 49.4623C49.7268 48.9353 49.5826 48.3323 49.6122 47.6944C49.7018 45.7797 51.33 44.2999 53.2457 44.3894C54.4709 44.4466 55.5179 45.132 56.0911 46.1188C56.4126 46.0249 56.7557 45.981 57.1094 45.998C58.8353 46.0794 60.168 47.5414 60.0865 49.2655C60.0721 49.5965 60.0041 49.9132 59.8939 50.2076C60.2978 50.7623 60.5226 51.4503 60.4877 52.1884C60.4071 53.9116 58.9419 55.243 57.2169 55.1615C56.5649 55.132 55.9684 54.903 55.4839 54.5379" fill="#553996"/>
<path d="M41.6728 56.9778C43.4918 62.6287 46.6005 72.2808 47.6018 75.3872L55.3623 75.3854L54.6243 61.8003L64.5075 61.1391L64.1716 75.3818L73.7682 75.38C77.3354 67.2928 75.4448 57.5576 75.4448 57.5576L75.949 52.4972L68.2556 40.5404L39.8466 53.0063C39.8466 53.0063 37.7732 53.8186 34 55.404" fill="#553996"/>
<path d="M83.5847 75.3836C84.1158 75.3827 84.784 75.3871 85.2497 75.3871L84.5144 71.361L83.3528 68.8245L82.9999 72.0723L81.5723 75.3871C82.2708 75.3871 82.8817 75.3854 83.5847 75.3845" fill="#553996"/>
<path d="M87.6854 62.8318L87.2421 63.9431L85.5332 63.6398L84.9144 63.0555L84.4424 65.5723L86.1817 69.9393L86.9841 75.3863C87.3531 75.3827 87.7051 75.389 88.0759 75.3863L89.7292 70.0387L88.7082 69.866L89.3154 66.9922L87.2725 66.6844L87.7365 64.0146L88.1413 62.9786" fill="#553996"/>
<path d="M79.6573 66.9259C79.6152 66.8526 79.5615 66.7881 79.497 66.7345C79.2543 66.8633 78.9578 66.8195 78.7294 66.6047C78.6927 66.6191 78.6551 66.6369 78.6211 66.6575C78.5216 66.7157 78.4366 66.7971 78.3721 66.8955L78.3748 66.9528C78.3792 67.0181 78.3864 67.0807 78.3954 67.1407L79.7406 67.4878C79.7898 67.2892 79.754 67.0897 79.6573 66.9259Z" fill="#553996"/>
<path d="M90.9655 59.4678C90.0663 59.5214 89.2943 58.8361 89.2405 57.9387C89.1859 57.0386 89.8719 56.2683 90.772 56.2155C91.6712 56.1609 92.4433 56.8472 92.4961 57.7446C92.5507 58.6428 91.8656 59.4159 90.9646 59.4686M83.5023 57.2453C82.6013 57.2972 81.8293 56.6128 81.7773 55.7145C81.7227 54.8144 82.4087 54.0432 83.3079 53.9904C84.208 53.9385 84.981 54.6212 85.0338 55.5203C85.0875 56.4186 84.4024 57.1907 83.5023 57.2453ZM96.2102 66.0626C96.229 66.127 96.2344 66.1852 96.2299 66.2353C96.4753 66.2505 96.6992 66.3498 96.8739 66.5046H96.8748C97.079 66.6844 97.2142 66.9421 97.2348 67.2337L97.7964 67.2015L98.0669 71.7377L94.7952 71.9327L94.5256 67.3948L95.0889 67.3626C95.0737 67.07 95.1776 66.7989 95.3576 66.5949V66.5931L95.3827 66.5681C95.3352 66.5556 95.2994 66.5395 95.2779 66.5207L93.2126 65.1661L92.5382 63.6514L92.3017 64.9102L94.3214 69.4159L93.7159 69.6852L95.4364 75.0659C95.4552 75.1921 95.4955 75.2744 95.4704 75.3818C95.62 75.3862 95.7391 75.3818 95.8869 75.3818H102.181V54.6265L81.6699 39.2207L64.5967 53.5404L69.2414 75.3818H79.644L81.1253 71.4156L80.8692 66.3686L81.1432 61.1793L79.7291 62.898L79.8428 65.4569C79.918 65.9552 79.8294 66.3167 79.6655 66.5439C79.7407 66.6146 79.807 66.696 79.8589 66.7855C79.9968 67.019 80.047 67.3062 79.9754 67.5889L80.5217 67.7294L80.116 72.0419C78.4743 72.1644 76.9347 71.8629 75.5949 70.7141L77.3494 66.9117L77.893 67.0548C77.971 66.7712 78.1519 66.5439 78.3856 66.407C78.4107 66.3918 78.4367 66.3793 78.4618 66.3659C78.3982 66.2451 78.3489 66.1002 78.322 65.9311L78.3023 65.8693C78.3238 65.7915 78.2558 65.7494 78.2979 65.6859L78.1483 62.5249L80.2602 59.4454C81.8615 57.3992 83.8704 56.7729 85.0562 59.5876L86.113 62.3227L88.1362 62.9803L88.9297 60.6013C89.6812 59.024 92.1916 60.0439 92.8418 61.6115L93.9542 63.9574" fill="#553996"/>
<path d="M92.1849 70.1254L91.3708 70.1746L89.5518 75.3862C91.0985 75.3844 92.6631 75.3576 94.2054 75.3934C94.1902 75.3683 94.1758 75.3442 94.1615 75.3173L92.1858 70.1245L92.1849 70.1254Z" fill="#553996"/>
</g>
<defs>
<clipPath id="clip0_4251_2719">
<rect width="97" height="111" fill="white" transform="translate(34 26)"/>
</clipPath>
<clipPath id="clip1_4251_2719">
<rect width="97" height="111" fill="white" transform="translate(34 27)"/>
</clipPath>
</defs>
</svg>
