<svg width="199" height="157" viewBox="0 0 199 157" fill="none" xmlns="http://www.w3.org/2000/svg">
<path d="M108 103.5L124 70L128 67.5L142 70L149.5 73.5L145 109.5L140.5 111L125.5 112L117 109.5L108 103.5Z" fill="#FBE7D0"/>
<path d="M170.932 106.749C165.376 99.1635 152.419 97.6975 145.094 103.821C144.943 97.6621 140.596 91.7667 134.502 89.4693C128.408 87.1679 120.923 88.5944 116.266 92.9411C117.316 89.4929 113.456 86.1314 109.642 85.9462C105.825 85.761 102.301 87.6841 99.0249 89.5363C95.749 91.3884 92.2 93.2879 88.3865 93.0435C84.2579 92.7834 80.8266 90.0801 76.9668 88.6811C67.5253 85.2566 55.5765 91.3332 53.4849 100.626C43.0354 96.669 29.6292 103.148 27 113.429L180 115.104C178.967 111.021 175.292 107.64 170.924 106.746L170.932 106.749Z" fill="#B4D9EC"/>
<path d="M128.853 74.2888C125.084 74.8265 122.2 78.8644 122.905 82.6091C123.184 84.0856 123.933 85.544 123.632 87.0179C123.171 89.2772 120.572 90.3439 119.274 92.253C117.758 94.4881 118.478 97.9279 120.767 99.3597C121.797 100.005 123.157 100.373 123.632 101.493C124.24 102.921 122.963 104.583 123.397 106.075C123.791 107.423 125.504 108.014 126.849 107.621C128.193 107.228 129.209 106.132 130.044 105.003C130.878 103.874 131.622 102.647 132.726 101.78C133.941 100.826 135.474 100.399 136.822 99.6503C140.064 97.8452 142.013 94.2242 142.556 90.545C143.098 86.8701 142.408 83.1209 141.423 79.5376" fill="#FFC441"/>
<path d="M128.853 74.2888C125.084 74.8265 122.2 78.8644 122.905 82.6091C123.184 84.0856 123.933 85.544 123.632 87.0179C123.171 89.2772 120.572 90.3439 119.274 92.253C117.758 94.4881 118.478 97.9279 120.767 99.3597C121.797 100.005 123.157 100.373 123.632 101.493C124.24 102.921 122.963 104.583 123.397 106.075C123.791 107.423 125.504 108.014 126.849 107.621C128.193 107.228 129.209 106.132 130.044 105.003C130.878 103.874 131.622 102.647 132.726 101.78C133.941 100.826 135.474 100.399 136.822 99.6503C140.064 97.8452 142.013 94.2242 142.556 90.545C143.098 86.8701 142.408 83.1209 141.423 79.5376" fill="white"/>
<path d="M131.156 77.0393C127.995 77.4004 125.574 80.8836 126.333 83.9741C126.797 85.8647 128.211 87.878 127.196 89.5419C126.507 90.6694 124.967 91.0107 124.217 92.0955C123.219 93.5395 124.2 95.7088 125.801 96.429C127.399 97.1478 129.29 96.7612 130.89 96.0447C136.448 93.5682 139.858 86.3572 138.748 80.3693" fill="#FFC441"/>
<path d="M153.118 57.0238C153.118 57.0238 164.439 70.9363 157.778 86.8115L146.5 76.8171L153.123 57.0251L153.118 57.0238Z" fill="#FFC441"/>
<path d="M123.29 69.2263L124.856 75.6188L141.675 80.8644L146.5 76.803L123.29 69.2263Z" fill="#263238"/>
<path d="M151.017 18.2527C144.229 16.6238 137.355 20.6329 135.413 27.3539L123.194 69.5343L146.496 76.8016L160.353 35.1041C162.773 27.8238 158.458 20.0385 151.013 18.2514L151.017 18.2527Z" fill="#FFC441"/>
<path d="M151.017 18.2527C144.229 16.6238 137.355 20.6329 135.413 27.3539L123.194 69.5343L146.496 76.8016L160.353 35.1041C162.773 27.8238 158.458 20.0385 151.013 18.2514L151.017 18.2527Z" fill="#E8E8E8"/>
<path d="M128.993 49.4995C128.993 49.4995 111.775 54.5115 108.23 71.3583L123.19 69.5471L128.993 49.4995Z" fill="#FFC441"/>
<path d="M135.979 26.005C142.253 23.2165 157.694 28.1356 160.752 32.9523C164.536 17.0528 154.495 7.53796 154.495 7.53796C139.742 12.1688 135.975 26.0037 135.975 26.0037L135.979 26.005Z" fill="#FFC441"/>
<path d="M154.495 7.53796C154.495 7.53796 154.528 7.59538 154.597 7.70593C154.664 7.82076 154.756 7.99034 154.88 8.20746C155.003 8.42885 155.157 8.70204 155.337 9.02572C155.426 9.18969 155.523 9.36061 155.628 9.54835C155.718 9.74065 155.818 9.9455 155.918 10.1645C156.12 10.5983 156.354 11.0795 156.595 11.6145C156.809 12.16 157.04 12.7532 157.291 13.39C157.402 13.7108 157.506 14.053 157.617 14.4022C157.723 14.7543 157.857 15.1058 157.944 15.4851C158.127 16.2367 158.347 17.0328 158.476 17.8803C158.78 19.5758 158.945 21.4668 158.837 23.4937C158.792 24.5076 158.669 25.5487 158.478 26.6109C158.388 27.1412 158.266 27.6806 158.173 28.2195C158.074 28.7613 157.888 29.3134 157.726 29.8494C156.379 34.1978 154.826 38.9515 153.208 43.943C149.962 53.9319 146.992 62.9603 144.836 69.4971C143.753 72.7593 142.882 75.4022 142.274 77.2309C141.971 78.1409 141.733 78.8456 141.572 79.3306C141.489 79.5674 141.427 79.75 141.387 79.8784C141.349 80.0024 141.32 80.0639 141.32 80.0639C141.32 80.0639 141.34 79.9997 141.379 79.8757C141.419 79.7474 141.476 79.5635 141.551 79.3239C141.707 78.8376 141.937 78.1302 142.231 77.2175C142.826 75.3849 143.689 72.7393 144.756 69.4676C146.89 62.9241 149.837 53.8834 153.095 43.9028C154.712 38.9112 156.266 34.1534 157.62 29.8118C157.787 29.263 157.962 28.7451 158.067 28.2004C158.16 27.6473 158.283 27.1178 158.373 26.5875C158.563 25.5295 158.69 24.4898 158.738 23.4815C158.847 21.4645 158.69 19.5804 158.393 17.8919C158.265 17.0401 158.052 16.2509 157.87 15.4994C157.782 15.12 157.652 14.7698 157.547 14.4177C157.436 14.0686 157.334 13.732 157.229 13.4082C156.983 12.7728 156.755 12.1809 156.547 11.6325C156.311 11.0988 156.082 10.6146 155.881 10.1809C155.78 9.96184 155.684 9.75833 155.595 9.56602C155.494 9.37961 155.398 9.20442 155.313 9.04178C155.139 8.71516 154.989 8.44329 154.872 8.21896C154.753 7.9989 154.665 7.83064 154.6 7.71154C154.537 7.59804 154.51 7.5334 154.51 7.5334L154.495 7.53796Z" fill="#263238"/>
<path d="M147.753 33.3427C150.625 34.9894 151.516 38.8296 149.748 41.9298C147.978 45.0244 144.215 46.2024 141.346 44.5613C138.474 42.9146 137.583 39.0744 139.351 35.9742C141.121 32.8796 144.884 31.7016 147.753 33.3427Z" fill="#FAFAFA"/>
<path d="M147.753 33.3427C147.753 33.3427 147.719 33.332 147.657 33.3035C147.592 33.2737 147.502 33.2316 147.392 33.1785C147.331 33.15 147.266 33.1159 147.197 33.0847C147.12 33.0607 147.037 33.0255 146.949 32.9933C146.859 32.9654 146.764 32.9262 146.663 32.89C146.56 32.858 146.445 32.8363 146.324 32.8033C146.09 32.7301 145.816 32.7058 145.52 32.665C145.221 32.6469 144.895 32.6251 144.547 32.6619C143.852 32.7127 143.065 32.8943 142.274 33.2814C141.488 33.6699 140.69 34.247 140.048 35.0605C139.89 35.2648 139.724 35.4665 139.59 35.7016C139.522 35.8163 139.445 35.9284 139.38 36.0444C139.319 36.1661 139.258 36.2878 139.196 36.4094L139.101 36.5955L139.027 36.7883C138.977 36.9182 138.923 37.0468 138.871 37.1811C138.829 37.3179 138.792 37.4519 138.753 37.5901L138.689 37.7954L138.651 38.0087C138.414 39.1412 138.465 40.4055 138.921 41.5851C139.347 42.7737 140.231 43.8285 141.383 44.5024C142.548 45.152 143.904 45.3826 145.143 45.1494C146.387 44.9459 147.505 44.3467 148.362 43.5672L148.523 43.4251L148.67 43.2691C148.769 43.1637 148.866 43.0626 148.964 42.9572C149.051 42.8435 149.137 42.7341 149.222 42.6247L149.349 42.4578L149.461 42.2813C149.535 42.1636 149.608 42.0502 149.68 41.9368C149.749 41.8221 149.806 41.6991 149.867 41.5774C150 41.3466 150.088 41.0969 150.186 40.8555C150.558 39.8874 150.653 38.9079 150.589 38.0335C150.52 37.1579 150.283 36.3848 149.973 35.7577C149.829 35.4404 149.641 35.1707 149.475 34.9219C149.291 34.6861 149.126 34.4656 148.945 34.2964C148.86 34.2088 148.779 34.1226 148.698 34.0505C148.612 33.9814 148.534 33.915 148.464 33.8555C148.389 33.7946 148.323 33.7364 148.263 33.6895C148.197 33.6455 148.135 33.6028 148.081 33.567C147.976 33.4969 147.895 33.4433 147.837 33.4019C147.783 33.3662 147.757 33.344 147.759 33.3398C147.759 33.3398 147.791 33.3547 147.846 33.3904C147.909 33.4288 147.992 33.4782 148.098 33.544C148.152 33.5798 148.215 33.6182 148.282 33.6579C148.345 33.7105 148.413 33.7644 148.489 33.821C148.563 33.8818 148.642 33.944 148.729 34.0131C148.809 34.0851 148.89 34.1714 148.981 34.256C149.168 34.4222 149.333 34.6428 149.521 34.8798C149.691 35.13 149.883 35.401 150.032 35.7197C150.351 36.3494 150.603 37.1321 150.673 38.0177C150.744 38.9032 150.652 39.9025 150.28 40.8848C150.186 41.1276 150.093 41.3802 149.959 41.6153C149.897 41.7369 149.84 41.8599 149.77 41.9789C149.696 42.0966 149.622 42.2143 149.548 42.332L149.437 42.5085L149.305 42.674C149.218 42.7877 149.131 42.9014 149.044 43.0151C148.946 43.1205 148.848 43.2259 148.749 43.3313L148.601 43.4916L148.438 43.638C147.572 44.4332 146.431 45.0442 145.161 45.2582C143.896 45.4975 142.503 45.2648 141.316 44.5987C140.14 43.9083 139.237 42.8241 138.8 41.613C138.338 40.408 138.287 39.1155 138.532 37.9671L138.577 37.7509L138.642 37.5413C138.682 37.3988 138.72 37.2606 138.763 37.1237C138.818 36.9908 138.869 36.8566 138.919 36.7267L138.999 36.531L139.095 36.3449C139.157 36.2189 139.223 36.0986 139.286 35.9726C139.351 35.8523 139.433 35.7416 139.503 35.6226C139.641 35.3888 139.808 35.1829 139.971 34.9756C140.63 34.1533 141.444 33.5716 142.24 33.1815C143.045 32.7941 143.844 32.6165 144.548 32.5684C144.899 32.5372 145.228 32.5646 145.531 32.584C145.83 32.6304 146.105 32.6646 146.34 32.7378C146.46 32.775 146.575 32.7968 146.677 32.8288C146.777 32.8693 146.874 32.9042 146.966 32.9377C147.054 32.9699 147.137 33.0051 147.213 33.0334C147.285 33.0701 147.35 33.1043 147.405 33.1357C147.518 33.1944 147.603 33.2395 147.667 33.2736C147.727 33.3064 147.754 33.3243 147.754 33.3243L147.753 33.3427Z" fill="#263238"/>
<path d="M138.942 36.1893C138.919 36.262 137.615 35.8178 135.943 35.6106C134.273 35.3948 132.9 35.5017 132.896 35.4253C132.892 35.3914 133.232 35.3236 133.79 35.2912C134.349 35.2544 135.124 35.2615 135.972 35.3663C136.818 35.4754 137.574 35.6642 138.105 35.8391C138.636 36.0141 138.95 36.1636 138.94 36.1935L138.942 36.1893Z" fill="#263238"/>
<path d="M157.786 42.0572C157.767 42.0887 157.386 41.9136 156.771 41.6327C156.157 41.3518 155.3 40.9765 154.341 40.5977C153.381 40.2231 152.497 39.9193 151.851 39.7084C151.21 39.4946 150.806 39.3638 150.817 39.3296C150.826 39.2997 151.24 39.3679 151.9 39.536C152.559 39.7041 153.459 39.9849 154.428 40.3621C155.397 40.7394 156.248 41.1502 156.85 41.4696C157.452 41.7933 157.806 42.0256 157.788 42.0529L157.786 42.0572Z" fill="#263238"/>
<path d="M150.433 66.0847C150.433 66.0847 150.345 66.0667 150.185 66.0075C150.002 65.9361 149.772 65.8458 149.497 65.7366C148.869 65.4843 148.014 65.1472 146.968 64.7319C144.831 63.8964 141.852 62.803 138.509 61.7651C135.162 60.7259 132.092 59.9375 129.852 59.4172C128.759 59.17 127.863 58.9656 127.202 58.8159C126.914 58.7495 126.674 58.6934 126.482 58.6476C126.317 58.6056 126.23 58.5833 126.234 58.5704C126.237 58.5619 126.323 58.5701 126.494 58.595C126.689 58.6279 126.931 58.6655 127.224 58.7149C127.86 58.8239 128.77 58.9997 129.893 59.2421C132.141 59.7226 135.228 60.4837 138.584 61.5256C141.934 62.5704 144.909 63.6908 147.033 64.5691C148.095 65.0082 148.949 65.3778 149.534 65.6494C149.804 65.7758 150.023 65.8819 150.203 65.9661C150.353 66.041 150.433 66.0847 150.43 66.0933L150.433 66.0847Z" fill="#263238"/>
<path d="M137.688 42.3877C137.677 42.4219 137.528 42.3895 137.378 42.5257C137.307 42.5881 137.237 42.6929 137.24 42.8019C137.239 42.9096 137.319 43.0143 137.447 43.0684C137.577 43.1182 137.709 43.0985 137.781 43.0177C137.856 42.9426 137.881 42.8188 137.874 42.7226C137.857 42.5203 137.724 42.4366 137.743 42.405C137.74 42.3711 137.958 42.4064 138.044 42.6866C138.079 42.8148 138.081 43.0032 137.95 43.1688C137.817 43.3387 137.555 43.3836 137.353 43.297C137.147 43.2189 136.985 43.004 137.009 42.791C137.028 42.5809 137.158 42.4479 137.274 42.3762C137.531 42.2308 137.711 42.3575 137.685 42.3821L137.688 42.3877Z" fill="#263238"/>
<path d="M141.91 46.7177C141.899 46.7519 141.75 46.7195 141.6 46.8557C141.529 46.9181 141.459 47.0229 141.462 47.1319C141.461 47.2396 141.541 47.3443 141.669 47.3984C141.799 47.4482 141.932 47.4285 142.004 47.3478C142.079 47.2726 142.103 47.1488 142.096 47.0526C142.079 46.8503 141.946 46.7666 141.965 46.735C141.962 46.7011 142.18 46.7364 142.266 47.0166C142.301 47.1448 142.303 47.3332 142.172 47.4988C142.039 47.6687 141.777 47.7136 141.575 47.627C141.369 47.5489 141.207 47.334 141.231 47.121C141.25 46.9109 141.381 46.778 141.497 46.7062C141.753 46.5608 141.933 46.6875 141.907 46.7121L141.91 46.7177Z" fill="#263238"/>
<path d="M148.247 46.127C148.237 46.1612 148.087 46.1288 147.937 46.265C147.866 46.3273 147.796 46.4321 147.8 46.5412C147.799 46.6489 147.878 46.7535 148.007 46.8076C148.136 46.8574 148.269 46.8378 148.341 46.757C148.416 46.6818 148.441 46.558 148.433 46.4618C148.417 46.2596 148.283 46.1758 148.303 46.1443C148.299 46.1103 148.518 46.1456 148.604 46.4258C148.638 46.5541 148.641 46.7425 148.509 46.908C148.377 47.0779 148.115 47.1228 147.912 47.0362C147.707 46.9582 147.545 46.7433 147.569 46.5302C147.588 46.3202 147.718 46.1872 147.834 46.1154C148.09 45.97 148.271 46.0967 148.244 46.1213L148.247 46.127Z" fill="#263238"/>
<path d="M151.374 42.4978C151.363 42.5321 151.214 42.4996 151.064 42.6358C150.993 42.6982 150.923 42.803 150.926 42.9121C150.925 43.0198 151.005 43.1244 151.134 43.1785C151.263 43.2283 151.396 43.2087 151.468 43.1279C151.543 43.0527 151.567 42.9289 151.56 42.8327C151.543 42.6305 151.41 42.5467 151.429 42.5151C151.426 42.4812 151.644 42.5165 151.73 42.7967C151.765 42.9249 151.767 43.1133 151.636 43.2789C151.503 43.4488 151.241 43.4937 151.039 43.4071C150.834 43.3291 150.671 43.1141 150.696 42.9011C150.714 42.6911 150.845 42.5581 150.961 42.4863C151.217 42.3409 151.397 42.4676 151.375 42.4936L151.374 42.4978Z" fill="#263238"/>
<path d="M137.144 37.6139C137.133 37.6481 136.984 37.6157 136.834 37.7519C136.763 37.8143 136.693 37.9191 136.697 38.0282C136.696 38.1359 136.775 38.2405 136.904 38.2946C137.033 38.3444 137.166 38.3248 137.238 38.244C137.313 38.1688 137.337 38.045 137.33 37.9488C137.314 37.7465 137.18 37.6628 137.2 37.6312C137.196 37.5973 137.415 37.6326 137.5 37.9128C137.535 38.041 137.538 38.2294 137.406 38.395C137.274 38.5649 137.011 38.6098 136.809 38.5232C136.604 38.4452 136.442 38.2302 136.466 38.0172C136.484 37.8071 136.615 37.6742 136.731 37.6024C136.987 37.457 137.168 37.5837 137.145 37.6097L137.144 37.6139Z" fill="#263238"/>
<path d="M151.465 35.7631C151.476 35.7289 151.625 35.7613 151.775 35.6251C151.846 35.5628 151.917 35.4579 151.913 35.3489C151.914 35.2412 151.834 35.1365 151.706 35.0824C151.576 35.0326 151.444 35.0523 151.372 35.1331C151.297 35.2083 151.272 35.332 151.28 35.4282C151.296 35.6305 151.429 35.7143 151.41 35.7458C151.413 35.7797 151.195 35.7445 151.109 35.4642C151.074 35.336 151.072 35.1476 151.203 34.982C151.336 34.8122 151.598 34.7672 151.801 34.8538C152.006 34.9319 152.168 35.1468 152.144 35.3598C152.125 35.5699 151.995 35.7029 151.879 35.7746C151.623 35.9201 151.442 35.7933 151.468 35.7687L151.465 35.7631Z" fill="#263238"/>
<path d="M146.638 31.526C146.649 31.4918 146.798 31.5242 146.948 31.388C147.019 31.3257 147.089 31.2208 147.086 31.1118C147.087 31.0041 147.007 30.8995 146.879 30.8454C146.749 30.7955 146.617 30.8152 146.545 30.896C146.47 30.9712 146.445 31.095 146.452 31.1911C146.469 31.3934 146.602 31.4772 146.583 31.5087C146.586 31.5427 146.368 31.5074 146.282 31.2272C146.247 31.0989 146.245 30.9105 146.376 30.745C146.509 30.5751 146.771 30.5302 146.973 30.6168C147.179 30.6948 147.341 30.9097 147.317 31.1228C147.298 31.3328 147.168 31.4658 147.052 31.5376C146.795 31.683 146.615 31.5563 146.641 31.5316L146.638 31.526Z" fill="#263238"/>
<path d="M140.323 32.2878C140.333 32.2536 140.482 32.286 140.632 32.1498C140.703 32.0875 140.774 31.9826 140.77 31.8736C140.771 31.7659 140.691 31.6612 140.563 31.6071C140.433 31.5573 140.301 31.577 140.229 31.6578C140.154 31.733 140.129 31.8567 140.137 31.9529C140.153 32.1552 140.286 32.2389 140.267 32.2705C140.27 32.3044 140.052 32.2692 139.966 31.9889C139.931 31.8607 139.929 31.6723 140.06 31.5067C140.193 31.3369 140.455 31.2919 140.658 31.3785C140.863 31.4566 141.025 31.6715 141.001 31.8845C140.982 32.0946 140.852 32.2276 140.736 32.2993C140.48 32.4448 140.299 32.318 140.321 32.2921L140.323 32.2878Z" fill="#263238"/>
<path d="M138.721 54.4201L131.415 79.6029C131.201 80.334 131.619 81.0935 132.347 81.3113C133.064 81.5207 133.815 81.1259 134.045 80.4185C135.502 75.9261 140.4 60.7919 142.102 55.4417C142.429 54.4079 141.761 53.336 140.693 53.1719C139.818 53.035 138.975 53.5748 138.728 54.4271L138.721 54.4201Z" fill="#FFC441"/>
<path d="M138.721 54.4201L131.415 79.6029C131.201 80.334 131.619 81.0935 132.347 81.3113C133.064 81.5207 133.815 81.1259 134.045 80.4185C135.502 75.9261 140.4 60.7919 142.102 55.4417C142.429 54.4079 141.761 53.336 140.693 53.1719C139.818 53.035 138.975 53.5748 138.728 54.4271L138.721 54.4201Z" fill="black"/>
<path d="M153.772 8.88009C153.822 8.9896 152.739 9.5342 151.095 10.5704C150.27 11.0829 149.319 11.7438 148.3 12.5195C147.291 13.3077 146.215 14.2206 145.158 15.2521C144.108 16.2905 143.174 17.3507 142.366 18.3474C141.571 19.3523 140.894 20.2911 140.367 21.1079C139.303 22.7332 138.734 23.8087 138.624 23.7557C138.545 23.7218 138.945 22.5605 139.915 20.8308C140.396 19.9668 141.042 18.9762 141.824 17.9247C142.617 16.8815 143.559 15.7858 144.636 14.7185C145.719 13.6624 146.835 12.7431 147.891 11.9695C148.957 11.2085 149.958 10.5819 150.833 10.118C152.577 9.18325 153.743 8.80557 153.78 8.88275L153.772 8.88009Z" fill="white"/>
<path d="M127.675 51.8199C127.71 51.9481 126.287 52.3494 124.168 53.364C123.903 53.4925 123.626 53.6313 123.343 53.773C123.054 53.9177 122.775 54.0933 122.469 54.261C121.858 54.5864 121.25 55.0024 120.599 55.4236C119.324 56.3121 117.99 57.3789 116.718 58.6343C115.455 59.9065 114.384 61.2387 113.487 62.5078C113.063 63.1596 112.64 63.7646 112.314 64.3761C112.146 64.6756 111.967 64.9626 111.823 65.246C111.681 65.5351 111.539 65.81 111.41 66.0747C110.383 68.1951 109.973 69.616 109.848 69.5817C109.796 69.5657 109.857 69.2046 110.015 68.5497C110.057 68.3844 110.1 68.2008 110.152 68.0057C110.209 67.8076 110.283 67.6006 110.358 67.3753C110.516 66.9272 110.675 66.404 110.929 65.8591C111.048 65.5818 111.176 65.293 111.307 64.9914C111.443 64.6912 111.61 64.3959 111.774 64.0809C112.086 63.4413 112.499 62.8053 112.917 62.1282C113.803 60.804 114.891 59.4163 116.189 58.1079C117.501 56.8135 118.892 55.7314 120.219 54.8546C120.897 54.4371 121.535 54.0304 122.175 53.7186C122.492 53.5592 122.788 53.3889 123.087 53.2568C123.39 53.126 123.676 53.004 123.953 52.8837C124.5 52.6319 125.021 52.4754 125.472 52.3204C125.697 52.2451 125.908 52.17 126.102 52.1179C126.299 52.0714 126.477 52.0282 126.644 51.9866C127.296 51.8332 127.661 51.7734 127.673 51.8242L127.675 51.8199Z" fill="white"/>
<rect x="0.5" y="112.5" width="198" height="44" rx="22" fill="#E8385F"/>
<rect x="0.5" y="112.5" width="198" height="44" rx="22" stroke="#E8385F"/>
<path d="M38.0186 141H35.2852L35.3027 139.251H38.0186C38.8096 139.251 39.4717 139.078 40.0049 138.732C40.5439 138.387 40.9482 137.892 41.2178 137.247C41.4932 136.603 41.6309 135.835 41.6309 134.944V134.25C41.6309 133.559 41.5518 132.946 41.3936 132.413C41.2412 131.88 41.0127 131.432 40.708 131.068C40.4092 130.705 40.04 130.43 39.6006 130.242C39.167 130.055 38.666 129.961 38.0977 129.961H35.2324V128.203H38.0977C38.9473 128.203 39.7236 128.347 40.4268 128.634C41.1299 128.915 41.7363 129.322 42.2461 129.855C42.7617 130.389 43.1572 131.027 43.4326 131.771C43.708 132.516 43.8457 133.348 43.8457 134.268V134.944C43.8457 135.864 43.708 136.696 43.4326 137.44C43.1572 138.185 42.7617 138.823 42.2461 139.356C41.7305 139.884 41.1152 140.291 40.4004 140.578C39.6914 140.859 38.8975 141 38.0186 141ZM36.5068 128.203V141H34.3008V128.203H36.5068ZM50.042 141.176C49.3389 141.176 48.7031 141.062 48.1348 140.833C47.5723 140.599 47.0918 140.273 46.6934 139.857C46.3008 139.441 45.999 138.952 45.7881 138.39C45.5771 137.827 45.4717 137.221 45.4717 136.57V136.219C45.4717 135.475 45.5801 134.801 45.7969 134.197C46.0137 133.594 46.3154 133.078 46.7021 132.65C47.0889 132.217 47.5459 131.886 48.0732 131.657C48.6006 131.429 49.1719 131.314 49.7871 131.314C50.4668 131.314 51.0615 131.429 51.5713 131.657C52.0811 131.886 52.5029 132.208 52.8369 132.624C53.1768 133.034 53.4287 133.523 53.5928 134.092C53.7627 134.66 53.8477 135.287 53.8477 135.973V136.878H46.5V135.357H51.7559V135.19C51.7441 134.81 51.668 134.452 51.5273 134.118C51.3926 133.784 51.1846 133.515 50.9033 133.31C50.6221 133.104 50.2471 133.002 49.7783 133.002C49.4268 133.002 49.1133 133.078 48.8379 133.23C48.5684 133.377 48.3428 133.591 48.1611 133.872C47.9795 134.153 47.8389 134.493 47.7393 134.892C47.6455 135.284 47.5986 135.727 47.5986 136.219V136.57C47.5986 136.986 47.6543 137.373 47.7656 137.73C47.8828 138.082 48.0527 138.39 48.2754 138.653C48.498 138.917 48.7676 139.125 49.084 139.277C49.4004 139.424 49.7607 139.497 50.165 139.497C50.6748 139.497 51.1289 139.395 51.5273 139.189C51.9258 138.984 52.2715 138.694 52.5645 138.319L53.6807 139.4C53.4756 139.699 53.209 139.986 52.8809 140.262C52.5527 140.531 52.1514 140.751 51.6768 140.921C51.208 141.091 50.6631 141.176 50.042 141.176ZM60.835 138.425C60.835 138.214 60.7822 138.023 60.6768 137.854C60.5713 137.678 60.3691 137.52 60.0703 137.379C59.7773 137.238 59.3438 137.109 58.7695 136.992C58.2656 136.881 57.8027 136.749 57.3809 136.597C56.9648 136.438 56.6074 136.248 56.3086 136.025C56.0098 135.803 55.7783 135.539 55.6143 135.234C55.4502 134.93 55.3682 134.578 55.3682 134.18C55.3682 133.793 55.4531 133.427 55.623 133.081C55.793 132.735 56.0361 132.431 56.3525 132.167C56.6689 131.903 57.0527 131.695 57.5039 131.543C57.9609 131.391 58.4707 131.314 59.0332 131.314C59.8301 131.314 60.5127 131.449 61.0811 131.719C61.6553 131.982 62.0947 132.343 62.3994 132.8C62.7041 133.251 62.8564 133.761 62.8564 134.329H60.7383C60.7383 134.077 60.6738 133.843 60.5449 133.626C60.4219 133.403 60.2344 133.225 59.9824 133.09C59.7305 132.949 59.4141 132.879 59.0332 132.879C58.6699 132.879 58.3682 132.938 58.1279 133.055C57.8936 133.166 57.7178 133.312 57.6006 133.494C57.4893 133.676 57.4336 133.875 57.4336 134.092C57.4336 134.25 57.4629 134.394 57.5215 134.522C57.5859 134.646 57.6914 134.76 57.8379 134.865C57.9844 134.965 58.1836 135.059 58.4355 135.146C58.6934 135.234 59.0156 135.319 59.4023 135.401C60.1289 135.554 60.7529 135.75 61.2744 135.99C61.8018 136.225 62.2061 136.529 62.4873 136.904C62.7686 137.273 62.9092 137.742 62.9092 138.311C62.9092 138.732 62.8184 139.119 62.6367 139.471C62.4609 139.816 62.2031 140.118 61.8633 140.376C61.5234 140.628 61.1162 140.824 60.6416 140.965C60.1729 141.105 59.6455 141.176 59.0596 141.176C58.1982 141.176 57.4688 141.023 56.8711 140.719C56.2734 140.408 55.8193 140.013 55.5088 139.532C55.2041 139.046 55.0518 138.542 55.0518 138.021H57.0996C57.123 138.413 57.2314 138.727 57.4248 138.961C57.624 139.189 57.8701 139.356 58.1631 139.462C58.4619 139.562 58.7695 139.611 59.0859 139.611C59.4668 139.611 59.7861 139.562 60.0439 139.462C60.3018 139.356 60.498 139.216 60.6328 139.04C60.7676 138.858 60.835 138.653 60.835 138.425ZM68.6484 139.488C68.9941 139.488 69.3047 139.421 69.5801 139.286C69.8613 139.146 70.0869 138.952 70.2568 138.706C70.4326 138.46 70.5293 138.176 70.5469 137.854H72.542C72.5303 138.469 72.3486 139.028 71.9971 139.532C71.6455 140.036 71.1797 140.438 70.5996 140.736C70.0195 141.029 69.3779 141.176 68.6748 141.176C67.9482 141.176 67.3154 141.053 66.7764 140.807C66.2373 140.555 65.7891 140.209 65.4316 139.77C65.0742 139.33 64.8047 138.823 64.623 138.249C64.4473 137.675 64.3594 137.06 64.3594 136.403V136.096C64.3594 135.439 64.4473 134.824 64.623 134.25C64.8047 133.67 65.0742 133.16 65.4316 132.721C65.7891 132.281 66.2373 131.938 66.7764 131.692C67.3154 131.44 67.9453 131.314 68.666 131.314C69.4277 131.314 70.0957 131.467 70.6699 131.771C71.2441 132.07 71.6953 132.489 72.0234 133.028C72.3574 133.562 72.5303 134.183 72.542 134.892H70.5469C70.5293 134.54 70.4414 134.224 70.2832 133.942C70.1309 133.655 69.9141 133.427 69.6328 133.257C69.3574 133.087 69.0264 133.002 68.6396 133.002C68.2119 133.002 67.8574 133.09 67.5762 133.266C67.2949 133.436 67.0752 133.67 66.917 133.969C66.7588 134.262 66.6445 134.593 66.5742 134.962C66.5098 135.325 66.4775 135.703 66.4775 136.096V136.403C66.4775 136.796 66.5098 137.177 66.5742 137.546C66.6387 137.915 66.75 138.246 66.9082 138.539C67.0723 138.826 67.2949 139.058 67.5762 139.233C67.8574 139.403 68.2148 139.488 68.6484 139.488ZM79.8896 138.759V131.49H82.0166V141H80.0127L79.8896 138.759ZM80.1885 136.781L80.9004 136.764C80.9004 137.402 80.8301 137.991 80.6895 138.53C80.5488 139.063 80.332 139.529 80.0391 139.928C79.7461 140.32 79.3711 140.628 78.9141 140.851C78.457 141.067 77.9092 141.176 77.2705 141.176C76.8076 141.176 76.3828 141.108 75.9961 140.974C75.6094 140.839 75.2754 140.631 74.9941 140.35C74.7188 140.068 74.5049 139.702 74.3525 139.251C74.2002 138.8 74.124 138.261 74.124 137.634V131.49H76.2422V137.651C76.2422 137.997 76.2832 138.287 76.3652 138.521C76.4473 138.75 76.5586 138.935 76.6992 139.075C76.8398 139.216 77.0039 139.315 77.1914 139.374C77.3789 139.433 77.5781 139.462 77.7891 139.462C78.3926 139.462 78.8672 139.345 79.2129 139.11C79.5645 138.87 79.8135 138.548 79.96 138.144C80.1123 137.739 80.1885 137.285 80.1885 136.781ZM77.0244 130.146L78.7383 127.5H81.1289L78.7383 130.146H77.0244ZM84.1963 127.5H86.3145V138.97L86.1123 141H84.1963V127.5ZM92.5195 136.157V136.342C92.5195 137.045 92.4404 137.692 92.2822 138.284C92.1299 138.87 91.8955 139.38 91.5791 139.813C91.2686 140.247 90.8818 140.584 90.4189 140.824C89.9619 141.059 89.4316 141.176 88.8281 141.176C88.2363 141.176 87.7207 141.064 87.2812 140.842C86.8418 140.619 86.4727 140.303 86.1738 139.893C85.8809 139.482 85.6436 138.993 85.4619 138.425C85.2803 137.856 85.1514 137.229 85.0752 136.544V135.955C85.1514 135.264 85.2803 134.637 85.4619 134.074C85.6436 133.506 85.8809 133.017 86.1738 132.606C86.4727 132.19 86.8389 131.871 87.2725 131.648C87.7119 131.426 88.2246 131.314 88.8105 131.314C89.4199 131.314 89.9561 131.432 90.4189 131.666C90.8877 131.9 91.2773 132.234 91.5879 132.668C91.8984 133.096 92.1299 133.605 92.2822 134.197C92.4404 134.789 92.5195 135.442 92.5195 136.157ZM90.4014 136.342V136.157C90.4014 135.729 90.3662 135.328 90.2959 134.953C90.2256 134.572 90.1084 134.238 89.9443 133.951C89.7861 133.664 89.5693 133.438 89.2939 133.274C89.0244 133.104 88.6875 133.02 88.2832 133.02C87.9082 133.02 87.5859 133.084 87.3164 133.213C87.0469 133.342 86.8213 133.518 86.6396 133.74C86.458 133.963 86.3145 134.221 86.209 134.514C86.1094 134.807 86.042 135.123 86.0068 135.463V137.054C86.0596 137.493 86.1709 137.897 86.3408 138.267C86.5166 138.63 86.7627 138.923 87.0791 139.146C87.3955 139.362 87.8027 139.471 88.3008 139.471C88.6934 139.471 89.0244 139.392 89.2939 139.233C89.5635 139.075 89.7773 138.855 89.9355 138.574C90.0996 138.287 90.2168 137.953 90.2871 137.572C90.3633 137.191 90.4014 136.781 90.4014 136.342ZM96.4395 133.301V141H94.3213V131.49H96.3428L96.4395 133.301ZM99.3486 131.429L99.3311 133.397C99.2021 133.374 99.0615 133.356 98.9092 133.345C98.7627 133.333 98.6162 133.327 98.4697 133.327C98.1064 133.327 97.7871 133.38 97.5117 133.485C97.2363 133.585 97.0049 133.731 96.8174 133.925C96.6357 134.112 96.4951 134.341 96.3955 134.61C96.2959 134.88 96.2373 135.182 96.2197 135.516L95.7363 135.551C95.7363 134.953 95.7949 134.399 95.9121 133.89C96.0293 133.38 96.2051 132.932 96.4395 132.545C96.6797 132.158 96.9785 131.856 97.3359 131.64C97.6992 131.423 98.1182 131.314 98.5928 131.314C98.7217 131.314 98.8594 131.326 99.0059 131.35C99.1582 131.373 99.2725 131.399 99.3486 131.429ZM104.692 141.176C103.989 141.176 103.354 141.062 102.785 140.833C102.223 140.599 101.742 140.273 101.344 139.857C100.951 139.441 100.649 138.952 100.438 138.39C100.228 137.827 100.122 137.221 100.122 136.57V136.219C100.122 135.475 100.23 134.801 100.447 134.197C100.664 133.594 100.966 133.078 101.353 132.65C101.739 132.217 102.196 131.886 102.724 131.657C103.251 131.429 103.822 131.314 104.438 131.314C105.117 131.314 105.712 131.429 106.222 131.657C106.731 131.886 107.153 132.208 107.487 132.624C107.827 133.034 108.079 133.523 108.243 134.092C108.413 134.66 108.498 135.287 108.498 135.973V136.878H101.15V135.357H106.406V135.19C106.395 134.81 106.318 134.452 106.178 134.118C106.043 133.784 105.835 133.515 105.554 133.31C105.272 133.104 104.897 133.002 104.429 133.002C104.077 133.002 103.764 133.078 103.488 133.23C103.219 133.377 102.993 133.591 102.812 133.872C102.63 134.153 102.489 134.493 102.39 134.892C102.296 135.284 102.249 135.727 102.249 136.219V136.57C102.249 136.986 102.305 137.373 102.416 137.73C102.533 138.082 102.703 138.39 102.926 138.653C103.148 138.917 103.418 139.125 103.734 139.277C104.051 139.424 104.411 139.497 104.815 139.497C105.325 139.497 105.779 139.395 106.178 139.189C106.576 138.984 106.922 138.694 107.215 138.319L108.331 139.4C108.126 139.699 107.859 139.986 107.531 140.262C107.203 140.531 106.802 140.751 106.327 140.921C105.858 141.091 105.313 141.176 104.692 141.176ZM112.418 127.5V141H110.291V127.5H112.418ZM114.334 136.351V136.148C114.334 135.463 114.434 134.827 114.633 134.241C114.832 133.649 115.119 133.137 115.494 132.703C115.875 132.264 116.338 131.924 116.883 131.684C117.434 131.438 118.055 131.314 118.746 131.314C119.443 131.314 120.064 131.438 120.609 131.684C121.16 131.924 121.626 132.264 122.007 132.703C122.388 133.137 122.678 133.649 122.877 134.241C123.076 134.827 123.176 135.463 123.176 136.148V136.351C123.176 137.036 123.076 137.672 122.877 138.258C122.678 138.844 122.388 139.356 122.007 139.796C121.626 140.229 121.163 140.569 120.618 140.815C120.073 141.056 119.455 141.176 118.764 141.176C118.066 141.176 117.442 141.056 116.892 140.815C116.347 140.569 115.884 140.229 115.503 139.796C115.122 139.356 114.832 138.844 114.633 138.258C114.434 137.672 114.334 137.036 114.334 136.351ZM116.452 136.148V136.351C116.452 136.778 116.496 137.183 116.584 137.563C116.672 137.944 116.81 138.278 116.997 138.565C117.185 138.853 117.425 139.078 117.718 139.242C118.011 139.406 118.359 139.488 118.764 139.488C119.156 139.488 119.496 139.406 119.783 139.242C120.076 139.078 120.316 138.853 120.504 138.565C120.691 138.278 120.829 137.944 120.917 137.563C121.011 137.183 121.058 136.778 121.058 136.351V136.148C121.058 135.727 121.011 135.328 120.917 134.953C120.829 134.572 120.688 134.235 120.495 133.942C120.308 133.649 120.067 133.421 119.774 133.257C119.487 133.087 119.145 133.002 118.746 133.002C118.348 133.002 118.002 133.087 117.709 133.257C117.422 133.421 117.185 133.649 116.997 133.942C116.81 134.235 116.672 134.572 116.584 134.953C116.496 135.328 116.452 135.727 116.452 136.148ZM134.628 129.908L130.805 141H128.493L133.31 128.203H134.786L134.628 129.908ZM137.827 141L133.995 129.908L133.828 128.203H135.313L140.147 141H137.827ZM137.643 136.254V138.003H130.682V136.254H137.643ZM147.161 144.656V133.38L147.407 131.49H149.297V144.656H147.161ZM140.982 136.342V136.157C140.982 135.437 141.064 134.78 141.229 134.188C141.393 133.591 141.636 133.078 141.958 132.65C142.28 132.223 142.673 131.895 143.136 131.666C143.599 131.432 144.132 131.314 144.735 131.314C145.321 131.314 145.831 131.426 146.265 131.648C146.704 131.871 147.073 132.19 147.372 132.606C147.677 133.017 147.92 133.506 148.102 134.074C148.283 134.643 148.415 135.275 148.497 135.973V136.562C148.421 137.241 148.292 137.862 148.11 138.425C147.929 138.987 147.686 139.474 147.381 139.884C147.076 140.294 146.704 140.613 146.265 140.842C145.825 141.064 145.31 141.176 144.718 141.176C144.126 141.176 143.599 141.056 143.136 140.815C142.673 140.575 142.28 140.238 141.958 139.805C141.642 139.365 141.398 138.853 141.229 138.267C141.064 137.675 140.982 137.033 140.982 136.342ZM143.101 136.157V136.342C143.101 136.775 143.139 137.183 143.215 137.563C143.297 137.938 143.426 138.272 143.602 138.565C143.777 138.853 144 139.078 144.27 139.242C144.539 139.406 144.864 139.488 145.245 139.488C145.743 139.488 146.15 139.38 146.467 139.163C146.789 138.946 147.035 138.656 147.205 138.293C147.381 137.924 147.504 137.517 147.574 137.071V135.48C147.533 135.135 147.46 134.812 147.354 134.514C147.249 134.209 147.103 133.945 146.915 133.723C146.733 133.494 146.505 133.318 146.229 133.195C145.96 133.066 145.638 133.002 145.263 133.002C144.882 133.002 144.554 133.084 144.278 133.248C144.003 133.412 143.777 133.641 143.602 133.934C143.432 134.221 143.306 134.555 143.224 134.936C143.142 135.316 143.101 135.724 143.101 136.157ZM157.286 138.759V131.49H159.413V141H157.409L157.286 138.759ZM157.585 136.781L158.297 136.764C158.297 137.402 158.227 137.991 158.086 138.53C157.945 139.063 157.729 139.529 157.436 139.928C157.143 140.32 156.768 140.628 156.311 140.851C155.854 141.067 155.306 141.176 154.667 141.176C154.204 141.176 153.779 141.108 153.393 140.974C153.006 140.839 152.672 140.631 152.391 140.35C152.115 140.068 151.901 139.702 151.749 139.251C151.597 138.8 151.521 138.261 151.521 137.634V131.49H153.639V137.651C153.639 137.997 153.68 138.287 153.762 138.521C153.844 138.75 153.955 138.935 154.096 139.075C154.236 139.216 154.4 139.315 154.588 139.374C154.775 139.433 154.975 139.462 155.186 139.462C155.789 139.462 156.264 139.345 156.609 139.11C156.961 138.87 157.21 138.548 157.356 138.144C157.509 137.739 157.585 137.285 157.585 136.781ZM163.878 131.49V141H161.76V131.49H163.878ZM161.777 130.225L163.491 127.579H165.882L163.491 130.225H161.777Z" fill="white"/>
</svg>
