<svg width="32" height="33" viewBox="0 0 32 33" fill="none" xmlns="http://www.w3.org/2000/svg">
<path d="M0 2.36363C0 1.05806 1.052 0 2.35 0H29.65C30.948 0 32 1.05806 32 2.36363V30.6364C32 31.9419 30.948 33 29.65 33H2.35C1.052 33 0 31.9419 0 30.6364V2.36363ZM9.886 27.6251V12.7236H5.084V27.6251H9.886ZM7.486 10.6879C9.16 10.6879 10.202 9.54525 10.202 8.11388C10.172 6.65156 9.162 5.53988 7.518 5.53988C5.874 5.53988 4.8 6.65363 4.8 8.11388C4.8 9.54525 5.842 10.6879 7.454 10.6879H7.486ZM17.302 27.6251V19.3029C17.302 18.8574 17.334 18.4119 17.462 18.0943C17.808 17.2054 18.598 16.2834 19.926 16.2834C21.664 16.2834 22.358 17.6488 22.358 19.6536V27.6251H27.16V19.0781C27.16 14.4994 24.792 12.3709 21.632 12.3709C19.084 12.3709 17.942 13.8146 17.302 14.8314V14.883H17.27C17.2806 14.8658 17.2913 14.8486 17.302 14.8314V12.7236H12.502C12.562 14.1219 12.502 27.6251 12.502 27.6251H17.302Z" fill="white"/>
</svg>
