<svg width="27" height="21" viewBox="0 0 27 21" fill="none" xmlns="http://www.w3.org/2000/svg">
<path d="M2.8335 20.5C2.16857 20.5 1.61343 20.2798 1.16806 19.8393C0.722685 19.3988 0.5 18.8498 0.5 18.1921V2.80786C0.5 2.15024 0.722685 1.60119 1.16806 1.16071C1.61343 0.720238 2.16857 0.5 2.8335 0.5H24.1665C24.8314 0.5 25.3866 0.720238 25.8319 1.16071C26.2773 1.60119 26.5 2.15024 26.5 2.80786V18.1921C26.5 18.8498 26.2773 19.3988 25.8319 19.8393C25.3866 20.2798 24.8314 20.5 24.1665 20.5H2.8335ZM13.5 10.665L25.0556 3.19214L24.611 1.92857L13.5 9.07143L2.38897 1.92857L1.94444 3.19214L13.5 10.665Z" fill="white"/>
</svg>
