<svg width="38" height="26" viewBox="0 0 38 26" fill="none" xmlns="http://www.w3.org/2000/svg">
<path d="M19.1223 0H19.3337C21.2861 0.00694012 31.1786 0.0763417 33.8459 0.77498C34.6522 0.988201 35.387 1.40381 35.9768 1.98027C36.5665 2.55673 36.9906 3.27385 37.2067 4.05997C37.4466 4.93905 37.6152 6.10268 37.7292 7.30332L37.753 7.54391L37.8052 8.14539L37.8242 8.38598C37.9786 10.5004 37.9976 12.4806 38 12.9132V13.0868C37.9976 13.5355 37.9762 15.65 37.8052 17.8523L37.7862 18.0952L37.7649 18.3358C37.6461 19.659 37.4703 20.973 37.2067 21.94C36.9913 22.7265 36.5674 23.4439 35.9775 24.0205C35.3877 24.597 34.6525 25.0124 33.8459 25.225C31.0907 25.9468 20.6187 25.9977 19.1674 26H18.8302C18.0963 26 15.0608 25.9861 11.8781 25.8797L11.4743 25.8658L11.2677 25.8566L10.4554 25.8242C7.81899 25.7108 5.30846 25.5281 4.15176 25.2227C3.34537 25.0103 2.61044 24.5953 2.0206 24.0192C1.43075 23.443 1.0067 22.726 0.790924 21.94C0.527283 20.9754 0.351522 19.659 0.232765 18.3358L0.194762 17.8523C0.0775429 16.2848 0.012588 14.7139 0 13.1423V12.8577C0.0047503 12.3604 0.0237515 10.6415 0.15201 8.74455L0.168636 8.50627L0.175761 8.38598L0.194762 8.14539L0.247015 7.54391L0.270767 7.30332C0.384774 6.10268 0.55341 4.93674 0.7933 4.05997C1.00871 3.27353 1.4326 2.55607 2.02247 1.97951C2.61234 1.40295 3.34746 0.987561 4.15413 0.77498C5.31083 0.474242 7.82136 0.289171 10.4578 0.173503L10.8616 0.157309L11.4743 0.136489L11.8805 0.120296C14.1409 0.0494477 16.4023 0.0101161 18.6639 0.00231348H19.1223V0ZM15.201 7.42593V18.5718L25.0744 13.0012L15.201 7.42593Z" fill="white"/>
</svg>
