<?xml version="1.0" encoding="UTF-8"?>
<svg xmlns="http://www.w3.org/2000/svg" version="1.1" viewBox="0 0 517 257">
  <defs>
    <style>
      .cls-1 {
        fill: #0063ae;
      }

      .cls-2 {
        fill: #e63338;
      }

      .cls-3 {
        fill: #7a7979;
      }
    </style>
  </defs>
  <!-- Generator: Adobe Illustrator 28.7.5, SVG Export Plug-In . SVG Version: 1.2.0 Build 176)  -->
  <g>
    <g id="Capa_1">
      <g>
        <g>
          <path class="cls-3" d="M55.6,187.6c-9.4,0-17.4-3.4-23-7.5l5.2-10.8c4.1,3.6,11.5,6.8,18,6.8s10.9-4,10.9-9.3c0-15-32.7-7.5-32.7-32.4s8.4-19.5,24.9-19.5,15.3,1.8,21,4.8l-4.6,11c-3.9-2.3-10.2-3.9-16.6-3.9s-10.6,2.1-10.6,7.3c0,12.6,32.9,7.7,32.9,31.8s-9.3,21.7-25.4,21.7Z"/>
          <path class="cls-3" d="M92.2,186.6v-70.6h43.4v11.6h-29.7v17.4h22.7l-1.1,12.1h-21.7v18.1h29.7v11.4h-43.4Z"/>
          <path class="cls-3" d="M160.4,186.6h-13.6v-70.6h22.7c13.9,0,25.2,6.5,25.2,21.2s-5.4,16.7-13.4,20.3c4.9,9.8,10,19.3,15,29.1h-16.1l-11.6-26.7c-3.1.1-5.2.1-8.2.1v26.6ZM167.3,126.6h-6.9v22.6h6.9c9,0,12.8-4.1,12.8-12.2s-4.5-10.5-12.8-10.5Z"/>
          <path class="cls-3" d="M231.5,187.6c-19.9,0-30.6-13.2-30.6-36.7s10.6-36,30.6-36,18.3,2.1,24.1,6l-5.2,11.1c-3.7-2.8-10-4.9-17.4-4.9-11.7,0-17.6,8.3-17.6,23.8s5.9,24.7,17.4,24.7,13.8-2.9,18.6-6.5l4.4,11.1c-7,4.8-15,7.5-24.3,7.5Z"/>
          <path class="cls-3" d="M291.4,187.6c-23.3,0-30-17.7-30-37s6.5-35.8,30-35.8,30.2,17.1,30.2,35.8-6.9,37-30.2,37ZM291.4,126.7c-12.4,0-15.6,11.2-15.6,23.9s3.1,25.5,15.6,25.5,15.7-11.3,15.7-25.5-3.3-23.9-15.7-23.9Z"/>
          <path class="cls-3" d="M353.3,127.5v59h-14.2v-59h-17.1v-11.6h48.9v11.6h-17.6Z"/>
          <path class="cls-3" d="M379.4,186.6v-70.6h43.4v11.6h-29.7v17.4h22.7l-1,12.1h-21.7v18.1h29.7v11.4h-43.4Z"/>
          <path class="cls-3" d="M459.7,187.6c-19.9,0-30.6-13.2-30.6-36.7s10.6-36,30.6-36,18.3,2.1,24.1,6l-5.2,11.1c-3.7-2.8-10.1-4.9-17.4-4.9-11.7,0-17.6,8.3-17.6,23.8s5.9,24.7,17.4,24.7,13.8-2.9,18.6-6.5l4.4,11.1c-7,4.8-15,7.5-24.3,7.5Z"/>
        </g>
        <rect class="cls-2" x="240.6" y="209.6" width="184.2" height="19.2"/>
        <rect class="cls-1" x="91.8" y="209.6" width="148.8" height="19.1"/>
        <rect class="cls-2" x="240.6" y="25.7" width="184.4" height="64.7"/>
        <rect class="cls-1" x="91.8" y="25.7" width="148.8" height="64.7"/>
      </g>
    </g>
  </g>
</svg>